<svg xmlns="http://www.w3.org/2000/svg" xmlns:xlink="http://www.w3.org/1999/xlink" id="body_9" preserveAspectRatio="xMinYMin meet" viewBox="0 0 1280 720"><defs><clipPath id="1"><path d="M0 540L0 0L0 0L960 0L960 0L960 540L960 540L0 540z" /></clipPath><clipPath id="2"><path d="M0 539.9999L960 539.9999L960 539.9999L960 -0.0001220703L960 -0.0001220703L0 -0.0001220703z" /></clipPath><clipPath id="3"><path d="M1.4305E-05 540L960 540L960 540L960 0L960 0L1.4305E-05 0z" /></clipPath><clipPath id="4"><path d="M1.4305E-05 540L960 540L960 540L960 0L960 0L1.4305E-05 0z" /></clipPath><clipPath id="5"><path d="M1.4305E-05 540L960 540L960 540L960 0L960 0L1.4305E-05 0z" /></clipPath><clipPath id="6"><path d="M1.4305E-05 540L960 540L960 540L960 0L960 0L1.4305E-05 0z" /></clipPath><clipPath id="7"><path d="M1.4305E-05 540L960 540L960 540L960 0L960 0L1.4305E-05 0z" /></clipPath><clipPath id="8"><path d="M1.4305E-05 540L960 540L960 540L960 0L960 0L1.4305E-05 0z" /></clipPath><clipPath id="9"><path d="M1.4305E-05 540L960 540L960 540L960 0L960 0L1.4305E-05 0z" /></clipPath><clipPath id="10"><path d="M1.4305E-05 540L960 540L960 540L960 0L960 0L1.4305E-05 0z" /></clipPath><clipPath id="11"><path d="M1.4305E-05 540L960 540L960 540L960 0L960 0L1.4305E-05 0z" /></clipPath><clipPath id="12"><path d="M1.4305E-05 540L960 540L960 540L960 0L960 0L1.4305E-05 0z" /></clipPath><clipPath id="13"><path d="M1.4305E-05 540L960 540L960 540L960 0L960 0L1.4305E-05 0z" /></clipPath><clipPath id="14"><path d="M1.4305E-05 540L960 540L960 540L960 0L960 0L1.4305E-05 0z" /></clipPath><clipPath id="15"><path d="M1.4305E-05 540L960 540L960 540L960 0L960 0L1.4305E-05 0z" /></clipPath><clipPath id="16"><path d="M1.4305E-05 540L960 540L960 540L960 0L960 0L1.4305E-05 0z" /></clipPath><clipPath id="17"><path d="M1.4305E-05 540L960 540L960 540L960 0L960 0L1.4305E-05 0z" /></clipPath><clipPath id="18"><path d="M1.4305E-05 540L960 540L960 540L960 0L960 0L1.4305E-05 0z" /></clipPath><clipPath id="19"><path d="M1.4305E-05 540L960 540L960 540L960 0L960 0L1.4305E-05 0z" /></clipPath><clipPath id="20"><path d="M1.4305E-05 540L960 540L960 540L960 0L960 0L1.4305E-05 0z" /></clipPath><clipPath id="21"><path d="M1.4305E-05 540L960 540L960 540L960 0L960 0L1.4305E-05 0z" /></clipPath><clipPath id="22"><path d="M1.4305E-05 540L960 540L960 540L960 0L960 0L1.4305E-05 0z" /></clipPath><clipPath id="23"><path d="M321.96 134.52L378 134.52L378 134.52L378 78.35999L378 78.35999L321.96 78.35999z" /></clipPath><clipPath id="24"><path d="M378.6 133.68L433.2 133.68L433.2 133.68L433.2 79.19998L433.2 79.19998L378.6 79.19998z" /></clipPath><clipPath id="25"><path d="M622.8 457.2L678.84 457.2L678.84 457.2L678.84 400.56L678.84 400.56L622.8 400.56z" /></clipPath><clipPath id="26"><path d="M679.44 456.48L735.96 456.48L735.96 456.48L735.96 399.96L735.96 399.96L679.44 399.96z" /></clipPath><clipPath id="27"><path d="M433.8 134.52L489.84 134.52L489.84 134.52L489.84 78.35999L489.84 78.35999L433.8 78.35999z" /></clipPath><clipPath id="28"><path d="M56.28 454.68L112.44 454.68L112.44 454.68L112.44 398.52L112.44 398.52L56.28 398.52z" /></clipPath><clipPath id="29"><path d="M112.2 454.68L168.36 454.68L168.36 454.68L168.36 398.52L168.36 398.52L112.2 398.52z" /></clipPath><clipPath id="30"><path d="M736.56 455.88L792.48 455.88L792.48 455.88L792.48 400.08L792.48 400.08L736.56 400.08z" /></clipPath><clipPath id="31"><path d="M793.08 456.12L849.24 456.12L849.24 456.12L849.24 399.84L849.24 399.84L793.08 399.84z" /></clipPath><clipPath id="32"><path d="M849.6 456.12L905.88 456.12L905.88 456.12L905.88 399.84L905.88 399.84L849.6 399.84z" /></clipPath><clipPath id="33"><path d="M263.16 258.96L319.32 258.96L319.32 258.96L319.32 202.8L319.32 202.8L263.16 202.8z" /></clipPath><clipPath id="34"><path d="M168.12 454.68L224.28 454.68L224.28 454.68L224.28 398.52L224.28 398.52L168.12 398.52z" /></clipPath><clipPath id="35"><path d="M440.04 319.08L496.2 319.08L496.2 319.08L496.2 262.92L496.2 262.92L440.04 262.92z" /></clipPath><clipPath id="36"><path d="M224.76 454.68L280.92 454.68L280.92 454.68L280.92 398.52L280.92 398.52L224.76 398.52z" /></clipPath><clipPath id="37"><path d="M490.32 134.52L546.6 134.52L546.6 134.52L546.6 78.35999L546.6 78.35999L490.32 78.35999z" /></clipPath><clipPath id="38"><path d="M546.96 134.16L602.4 134.16L602.4 134.16L602.4 78L602.4 78L546.96 78z" /></clipPath><clipPath id="39"><path d="M281.28 454.68L337.56 454.68L337.56 454.68L337.56 398.52L337.56 398.52L281.28 398.52z" /></clipPath><clipPath id="40"><path d="M1.4305E-05 540L960 540L960 540L960 0L960 0L1.4305E-05 0z" /></clipPath><clipPath id="41"><path d="M1.4305E-05 540L960 540L960 540L960 0L960 0L1.4305E-05 0z" /></clipPath><clipPath id="42"><path d="M1.4305E-05 540L960 540L960 540L960 0L960 0L1.4305E-05 0z" /></clipPath><clipPath id="43"><path d="M1.4305E-05 540L960 540L960 540L960 0L960 0L1.4305E-05 0z" /></clipPath><clipPath id="44"><path d="M1.4305E-05 540L960 540L960 540L960 0L960 0L1.4305E-05 0z" /></clipPath><clipPath id="45"><path d="M1.4305E-05 540L960 540L960 540L960 0L960 0L1.4305E-05 0z" /></clipPath><clipPath id="46"><path d="M336.6 454.68L392.76 454.68L392.76 454.68L392.76 398.52L392.76 398.52L336.6 398.52z" /></clipPath><clipPath id="47"><path d="M1.4305E-05 540L960 540L960 540L960 0L960 0L1.4305E-05 0z" /></clipPath></defs><g transform="matrix(1.333333 0 0 1.333333 0 0)"><g><g clip-path="url(#1)"><g clip-path="url(#2)"><path transform="matrix(1 0 0 -1 0 540)" d="M0 6.1035E-05L960 6.1035E-05L960 6.1035E-05L960 540.0001L960 540.0001L0 540.0001z" stroke="none" fill="#FFFFFF" fill-rule="evenodd" /></g><g clip-path="url(#3)"></g><g clip-path="url(#4)"></g><g clip-path="url(#5)"></g><g clip-path="url(#6)"></g><g clip-path="url(#7)"></g><g clip-path="url(#8)"></g><g clip-path="url(#9)"></g><g clip-path="url(#10)"></g><path transform="matrix(1 0 0 -1 0 540)" d="M676.24 160.68L682.24 157.68L682.24 157.68L676.24 154.68zM253.44 154.68L247.44 157.68L247.44 157.68L253.44 160.68zM252.44 158.18L677.24 158.18L677.24 158.18L677.24 157.18L677.24 157.18L252.44 157.18z" stroke="none" fill="#000000" fill-rule="winding" /><path transform="matrix(1 0 0 -1 0 540)" d="M701.98 179.9L704.66 173.75L704.66 173.75L698.13 175.29zM492.04 347.25L489.36 353.4L489.36 353.4L495.89 351.86zM493.52 350.58L701.14 177.34L701.14 177.34L700.5 176.57L700.5 176.57L492.88 349.81z" stroke="none" fill="#000000" fill-rule="winding" /><path transform="matrix(1 0 0 -1 0 540)" d="M227.84 181.96L225.12 175.83L225.12 175.83L231.66 177.33zM437 346.55L439.72 352.68L439.72 352.68L433.18 351.18zM435.54 349.89L228.66 179.39L228.66 179.39L229.3 178.62L229.3 178.62L436.18 349.11z" stroke="none" fill="#000000" fill-rule="winding" /><g clip-path="url(#11)"></g><g clip-path="url(#12)"></g><g clip-path="url(#13)"></g><g clip-path="url(#14)"></g><g clip-path="url(#15)"></g><g clip-path="url(#16)"></g><g clip-path="url(#17)"></g><g clip-path="url(#18)"></g><g clip-path="url(#19)"></g><g clip-path="url(#20)"></g><g clip-path="url(#21)"></g><g clip-path="url(#22)"></g><g clip-path="url(#23)"><g transform="matrix(0.3736 0 0 0.3744 321.96 78.35999)"><g transform="matrix(1 0 0 1 0 0)"><image x="0" y="0" xlink:href="img_99.png" width="150" height="150" /></g></g></g><g clip-path="url(#24)"><g transform="matrix(0.3592105 0 0 0.3607947 378.6 79.19998)"><g transform="matrix(1 0 0 1 0 0)"><image x="0" y="0" xlink:href="img_100.png" width="152" height="151" /></g></g></g><g clip-path="url(#25)"><g transform="matrix(0.5494118 0 0 0.5499029 622.8 400.56)"><g transform="matrix(1 0 0 1 0 0)"><image x="0" y="0" xlink:href="img_101.png" width="102" height="103" /></g></g></g><g clip-path="url(#26)"><g transform="matrix(0.3768 0 0 0.3768 679.44 399.96)"><g transform="matrix(1 0 0 1 0 0)"><image x="0" y="0" xlink:href="img_102.png" width="150" height="150" /></g></g></g><g clip-path="url(#27)"><g transform="matrix(0.3736 0 0 0.3744 433.8 78.35999)"><g transform="matrix(1 0 0 1 0 0)"><image x="0" y="0" xlink:href="img_103.png" width="150" height="150" /></g></g></g><g clip-path="url(#28)"><g transform="matrix(0.3744 0 0 0.3744 56.28 398.52)"><g transform="matrix(1 0 0 1 0 0)"><image x="0" y="0" xlink:href="img_104.png" width="150" height="150" /></g></g></g><g clip-path="url(#29)"><g transform="matrix(0.3744 0 0 0.3744 112.2 398.52)"><g transform="matrix(1 0 0 1 0 0)"><image x="0" y="0" xlink:href="img_105.png" width="150" height="150" /></g></g></g><g clip-path="url(#30)"><g transform="matrix(0.4204511 0 0 0.4195489 736.56 400.08)"><g transform="matrix(1 0 0 1 0 0)"><image x="0" y="0" xlink:href="img_106.png" width="133" height="133" /></g></g></g><g clip-path="url(#31)"><g transform="matrix(0.3744 0 0 0.3752 793.08 399.84)"><g transform="matrix(1 0 0 1 0 0)"><image x="0" y="0" xlink:href="img_107.png" width="150" height="150" /></g></g></g><g clip-path="url(#32)"><g transform="matrix(0.3752 0 0 0.3752 849.6 399.84)"><g transform="matrix(1 0 0 1 0 0)"><image x="0" y="0" xlink:href="img_108.png" width="150" height="150" /></g></g></g><g clip-path="url(#33)"><g transform="matrix(0.3744 0 0 0.3744 263.16 202.8)"><g transform="matrix(1 0 0 1 0 0)"><image x="0" y="0" xlink:href="img_109.png" width="150" height="150" /></g></g></g><g clip-path="url(#34)"><g transform="matrix(0.3744 0 0 0.3744 168.12 398.52)"><g transform="matrix(1 0 0 1 0 0)"><image x="0" y="0" xlink:href="img_110.png" width="150" height="150" /></g></g></g><g clip-path="url(#35)"><g transform="matrix(0.3744 0 0 0.3744 440.04 262.92)"><g transform="matrix(1 0 0 1 0 0)"><image x="0" y="0" xlink:href="img_111.png" width="150" height="150" /></g></g></g><g clip-path="url(#36)"><g transform="matrix(0.3744 0 0 0.3744 224.76 398.52)"><g transform="matrix(1 0 0 1 0 0)"><image x="0" y="0" xlink:href="img_112.png" width="150" height="150" /></g></g></g><g clip-path="url(#37)"><g transform="matrix(0.3752 0 0 0.3744 490.32 78.35999)"><g transform="matrix(1 0 0 1 0 0)"><image x="0" y="0" xlink:href="img_113.png" width="150" height="150" /></g></g></g><g clip-path="url(#38)"><g transform="matrix(0.4106666 0 0 0.409927 546.96 78)"><g transform="matrix(1 0 0 1 0 0)"><image x="0" y="0" xlink:href="img_114.png" width="135" height="137" /></g></g></g><g clip-path="url(#39)"><g transform="matrix(0.3752 0 0 0.3744 281.28 398.52)"><g transform="matrix(1 0 0 1 0 0)"><image x="0" y="0" xlink:href="img_115.png" width="150" height="150" /></g></g></g><g clip-path="url(#40)"></g><g clip-path="url(#41)"></g><g clip-path="url(#42)"></g><g clip-path="url(#43)"></g><g clip-path="url(#44)"></g><path transform="matrix(1 0 0 -1 0 540)" d="M113.45 64.787L126.95 64.787L126.95 64.787L140.45 64.787L140.45 64.787L153.95 64.787L153.95 64.787L167.45 64.787L167.45 64.787L167.45 63.947L167.45 63.947L153.95 63.947L153.95 63.947L140.45 63.947L140.45 63.947L126.95 63.947L126.95 63.947L113.45 63.947z" stroke="none" fill="#FF0000" fill-rule="evenodd" /><g clip-path="url(#45)"></g><g clip-path="url(#46)"><g transform="matrix(0.3744 0 0 0.3744 336.6 398.52)"><g transform="matrix(1 0 0 1 0 0)"><image x="0" y="0" xlink:href="img_116.png" width="150" height="150" /></g></g></g><g clip-path="url(#47)"></g></g></g></g></svg>