<svg xmlns="http://www.w3.org/2000/svg" xmlns:xlink="http://www.w3.org/1999/xlink" id="body_13" preserveAspectRatio="xMinYMin meet" viewBox="0 0 1280 720"><defs><clipPath id="1"><path d="M0 540L0 0L0 0L960 0L960 0L960 540L960 540L0 540z" /></clipPath><clipPath id="2"><path d="M0 539.9999L960 539.9999L960 539.9999L960 -0.0001220703L960 -0.0001220703L0 -0.0001220703z" /></clipPath><clipPath id="3"><path d="M1.4305E-05 540L960 540L960 540L960 0L960 0L1.4305E-05 0z" /></clipPath><clipPath id="4"><path d="M71.76 350.28L295.56 350.28L295.56 350.28L295.56 294.48L295.56 294.48L71.76 294.48z" /></clipPath><clipPath id="5"><path d="M68.16 98.64001L292.08 98.64001L292.08 98.64001L292.08 41.52002L292.08 41.52002L68.16 41.52002z" /></clipPath><clipPath id="6"><path d="M1.4305E-05 540L960 540L960 540L960 0L960 0L1.4305E-05 0z" /></clipPath><clipPath id="7"><path d="M1.4305E-05 540L960 540L960 540L960 0L960 0L1.4305E-05 0z" /></clipPath><clipPath id="8"><path d="M1.4305E-05 540L960 540L960 540L960 0L960 0L1.4305E-05 0z" /></clipPath><clipPath id="9"><path d="M1.4305E-05 540L960 540L960 540L960 0L960 0L1.4305E-05 0z" /></clipPath><clipPath id="10"><path d="M70.32 213.96L202.2 213.96L202.2 213.96L202.2 148.32L202.2 148.32L70.32 148.32z" /></clipPath><clipPath id="11"><path d="M1.4305E-05 540L960 540L960 540L960 0L960 0L1.4305E-05 0z" /></clipPath><clipPath id="12"><path d="M1.4305E-05 540L960 540L960 540L960 0L960 0L1.4305E-05 0z" /></clipPath><clipPath id="13"><path d="M1.4305E-05 540L960 540L960 540L960 0L960 0L1.4305E-05 0z" /></clipPath><clipPath id="14"><path d="M1.4305E-05 540L960 540L960 540L960 0L960 0L1.4305E-05 0z" /></clipPath><clipPath id="15"><path d="M67.68 282L136.2 282L136.2 282L136.2 221.64L136.2 221.64L67.68 221.64z" /></clipPath><clipPath id="16"><path d="M1.4305E-05 540L960 540L960 540L960 0L960 0L1.4305E-05 0z" /></clipPath><clipPath id="17"><path d="M1.4305E-05 540L960 540L960 540L960 0L960 0L1.4305E-05 0z" /></clipPath><clipPath id="18"><path d="M1.4305E-05 540L960 540L960 540L960 0L960 0L1.4305E-05 0z" /></clipPath><clipPath id="19"><path d="M1.4305E-05 540L960 540L960 540L960 0L960 0L1.4305E-05 0z" /></clipPath><clipPath id="20"><path d="M1.4305E-05 540L960 540L960 540L960 0L960 0L1.4305E-05 0z" /></clipPath><clipPath id="21"><path d="M1.4305E-05 540L960 540L960 540L960 0L960 0L1.4305E-05 0z" /></clipPath><clipPath id="22"><path d="M429 91.20001L651.6 91.20001L651.6 91.20001L651.6 33.60001L651.6 33.60001L429 33.60001z" /></clipPath><clipPath id="23"><path d="M1.4305E-05 540L960 540L960 540L960 0L960 0L1.4305E-05 0z" /></clipPath><clipPath id="24"><path d="M1.4305E-05 540L960 540L960 540L960 0L960 0L1.4305E-05 0z" /></clipPath><clipPath id="25"><path d="M1.4305E-05 540L960 540L960 540L960 0L960 0L1.4305E-05 0z" /></clipPath><clipPath id="26"><path d="M1.4305E-05 540L960 540L960 540L960 0L960 0L1.4305E-05 0z" /></clipPath><clipPath id="27"><path d="M1.4305E-05 540L960 540L960 540L960 0L960 0L1.4305E-05 0z" /></clipPath><clipPath id="28"><path d="M1.4305E-05 540L960 540L960 540L960 0L960 0L1.4305E-05 0z" /></clipPath><clipPath id="29"><path d="M673.44 110.28L746.76 110.28L746.76 110.28L746.76 37.08002L746.76 37.08002L673.44 37.08002z" /></clipPath><clipPath id="30"><path d="M1.4305E-05 540L960 540L960 540L960 0L960 0L1.4305E-05 0z" /></clipPath><clipPath id="31"><path d="M1.4305E-05 540L960 540L960 540L960 0L960 0L1.4305E-05 0z" /></clipPath><clipPath id="32"><path d="M678.12 278.64L751.68 278.64L751.68 278.64L751.68 204.96L751.68 204.96L678.12 204.96z" /></clipPath><clipPath id="33"><path d="M681 459.36L756.6 459.36L756.6 459.36L756.6 384.96L756.6 384.96L681 384.96z" /></clipPath><clipPath id="34"><path d="M427.2 268.56L649.2 268.56L649.2 268.56L649.2 212.76L649.2 212.76L427.2 212.76z" /></clipPath><clipPath id="35"><path d="M1.4305E-05 540L960 540L960 540L960 0L960 0L1.4305E-05 0z" /></clipPath><clipPath id="36"><path d="M1.4305E-05 540L960 540L960 540L960 0L960 0L1.4305E-05 0z" /></clipPath><clipPath id="37"><path d="M1.4305E-05 540L960 540L960 540L960 0L960 0L1.4305E-05 0z" /></clipPath><clipPath id="38"><path d="M1.4305E-05 540L960 540L960 540L960 0L960 0L1.4305E-05 0z" /></clipPath><clipPath id="39"><path d="M1.4305E-05 540L960 540L960 540L960 0L960 0L1.4305E-05 0z" /></clipPath><clipPath id="40"><path d="M1.4305E-05 540L960 540L960 540L960 0L960 0L1.4305E-05 0z" /></clipPath><clipPath id="41"><path d="M626.04 346.2L675.48 346.2L675.48 346.2L675.48 297.24L675.48 297.24L626.04 297.24z" /></clipPath><clipPath id="42"><path d="M1.4305E-05 540L960 540L960 540L960 0L960 0L1.4305E-05 0z" /></clipPath><clipPath id="43"><path d="M1.4305E-05 540L960 540L960 540L960 0L960 0L1.4305E-05 0z" /></clipPath><clipPath id="44"><path d="M428.64 437.88L654.84 437.88L654.84 437.88L654.84 380.28L654.84 380.28L428.64 380.28z" /></clipPath><clipPath id="45"><path d="M1.4305E-05 540L960 540L960 540L960 0L960 0L1.4305E-05 0z" /></clipPath><clipPath id="46"><path d="M1.4305E-05 540L960 540L960 540L960 0L960 0L1.4305E-05 0z" /></clipPath><clipPath id="47"><path d="M1.4305E-05 540L960 540L960 540L960 0L960 0L1.4305E-05 0z" /></clipPath><clipPath id="48"><path d="M1.4305E-05 540L960 540L960 540L960 0L960 0L1.4305E-05 0z" /></clipPath><clipPath id="49"><path d="M1.4305E-05 540L960 540L960 540L960 0L960 0L1.4305E-05 0z" /></clipPath><clipPath id="50"><path d="M1.4305E-05 540L960 540L960 540L960 0L960 0L1.4305E-05 0z" /></clipPath><clipPath id="51"><path d="M1.4305E-05 540L960 540L960 540L960 0L960 0L1.4305E-05 0z" /></clipPath><clipPath id="52"><path d="M1.4305E-05 540L960 540L960 540L960 0L960 0L1.4305E-05 0z" /></clipPath><clipPath id="53"><path d="M1.4305E-05 540L960 540L960 540L960 0L960 0L1.4305E-05 0z" /></clipPath><clipPath id="54"><path d="M1.4305E-05 540L960 540L960 540L960 0L960 0L1.4305E-05 0z" /></clipPath><clipPath id="55"><path d="M1.4305E-05 540L960 540L960 540L960 0L960 0L1.4305E-05 0z" /></clipPath><clipPath id="56"><path d="M859.56 530.6398L920.16 530.6398L920.16 530.6398L920.16 470.6398L920.16 470.6398L859.56 470.6398z" /></clipPath><clipPath id="57"><path d="M774.96 354.48L835.56 354.48L835.56 354.48L835.56 294.48L835.56 294.48L774.96 294.48z" /></clipPath><clipPath id="58"><path d="M775.32 181.56L835.32 181.56L835.32 181.56L835.32 122.16L835.32 122.16L775.32 122.16z" /></clipPath><clipPath id="59"><path d="M801.36 485.4L853.08 485.4L853.08 485.4L853.08 434.04L853.08 434.04L801.36 434.04z" /></clipPath><clipPath id="60"><path d="M68.16 485.52L290.76 485.52L290.76 485.52L290.76 428.52L290.76 428.52L68.16 428.52z" /></clipPath><clipPath id="61"><path d="M1.4305E-05 540L960 540L960 540L960 0L960 0L1.4305E-05 0z" /></clipPath><clipPath id="62"><path d="M1.4305E-05 540L960 540L960 540L960 0L960 0L1.4305E-05 0z" /></clipPath><clipPath id="63"><path d="M1.4305E-05 540L960 540L960 540L960 0L960 0L1.4305E-05 0z" /></clipPath><clipPath id="64"><path d="M1.4305E-05 540L960 540L960 540L960 0L960 0L1.4305E-05 0z" /></clipPath><clipPath id="65"><path d="M1.4305E-05 540L960 540L960 540L960 0L960 0L1.4305E-05 0z" /></clipPath><clipPath id="66"><path d="M1.4305E-05 540L960 540L960 540L960 0L960 0L1.4305E-05 0z" /></clipPath><clipPath id="67"><path d="M1.4305E-05 540L960 540L960 540L960 0L960 0L1.4305E-05 0z" /></clipPath><clipPath id="68"><path d="M1.4305E-05 540L960 540L960 540L960 0L960 0L1.4305E-05 0z" /></clipPath><clipPath id="69"><path d="M1.4305E-05 540L960 540L960 540L960 0L960 0L1.4305E-05 0z" /></clipPath><clipPath id="70"><path d="M1.4305E-05 540L960 540L960 540L960 0L960 0L1.4305E-05 0z" /></clipPath><clipPath id="71"><path d="M1.4305E-05 540L960 540L960 540L960 0L960 0L1.4305E-05 0z" /></clipPath></defs><g transform="matrix(1.333333 0 0 1.333333 0 0)"><g><g clip-path="url(#1)"><g clip-path="url(#2)"><path transform="matrix(1 0 0 -1 0 540)" d="M0 6.1035E-05L960 6.1035E-05L960 6.1035E-05L960 540.0001L960 540.0001L0 540.0001z" stroke="none" fill="#FFFFFF" fill-rule="evenodd" /></g><g clip-path="url(#3)"></g><g clip-path="url(#4)"><g transform="matrix(0.6 0 0 0.6 71.76 294.48)"><g transform="matrix(1 0 0 1 0 0)"><image x="0" y="0" xlink:href="img_155.png" width="373" height="93" /></g></g></g><g clip-path="url(#5)"><g transform="matrix(0.6003217 0 0 0.6012632 68.16 41.52002)"><g transform="matrix(1 0 0 1 0 0)"><image x="0" y="0" xlink:href="img_156.png" width="373" height="95" /></g></g></g><g clip-path="url(#6)"></g><path transform="matrix(1 0 0 -1 0 540)" d="M115.55 422.27L147.05 422.27L147.05 422.27L178.55 422.27L178.55 422.27L210.05 422.27L210.05 422.27L241.55 422.27L241.55 422.27L241.55 421.31L241.55 421.31L210.05 421.31L210.05 421.31L178.55 421.31L178.55 421.31L147.05 421.31L147.05 421.31L115.55 421.31z" stroke="none" fill="#000000" fill-rule="evenodd" /><g clip-path="url(#7)"></g><path transform="matrix(1 0 0 -1 0 540)" d="M111.36 168.53L142.86 168.53L142.86 168.53L174.36 168.53L174.36 168.53L205.86 168.53L205.86 168.53L237.36 168.53L237.36 168.53L237.36 167.57L237.36 167.57L205.86 167.57L205.86 167.57L174.36 167.57L174.36 167.57L142.86 167.57L142.86 167.57L111.36 167.57z" stroke="none" fill="#000000" fill-rule="evenodd" /><g clip-path="url(#8)"></g><g clip-path="url(#9)"></g><g clip-path="url(#10)"><g transform="matrix(0.3603279 0 0 0.3606594 70.32 148.32)"><g transform="matrix(1 0 0 1 0 0)"><image x="0" y="0" xlink:href="img_157.png" width="366" height="182" /></g></g></g><g clip-path="url(#11)"></g><g clip-path="url(#12)"></g><g clip-path="url(#13)"></g><g clip-path="url(#14)"></g><g clip-path="url(#15)"><g transform="matrix(0.4537748 0 0 0.4538346 67.68 221.64)"><g transform="matrix(1 0 0 1 0 0)"><image x="0" y="0" xlink:href="img_158.png" width="151" height="133" /></g></g></g><g clip-path="url(#16)"></g><g clip-path="url(#17)"></g><g clip-path="url(#18)"></g><g clip-path="url(#19)"></g><g clip-path="url(#20)"></g><g clip-path="url(#21)"></g><g clip-path="url(#22)"><g transform="matrix(0.6 0 0 0.6 429 33.60001)"><g transform="matrix(1 0 0 1 0 0)"><image x="0" y="0" xlink:href="img_159.png" width="371" height="96" /></g></g></g><g clip-path="url(#23)"></g><g clip-path="url(#24)"></g><g clip-path="url(#25)"></g><g clip-path="url(#26)"></g><g clip-path="url(#27)"></g><g clip-path="url(#28)"></g><g clip-path="url(#29)"><g transform="matrix(0.4165909 0 0 0.4159091 673.44 37.08002)"><g transform="matrix(1 0 0 1 0 0)"><image x="0" y="0" xlink:href="img_160.png" width="176" height="176" /></g></g></g><g clip-path="url(#30)"></g><g clip-path="url(#31)"></g><g clip-path="url(#32)"><g transform="matrix(0.4155932 0 0 0.4162712 678.12 204.96)"><g transform="matrix(1 0 0 1 0 0)"><image x="0" y="0" xlink:href="img_161.png" width="177" height="177" /></g></g></g><g clip-path="url(#33)"><g transform="matrix(0.4223464 0 0 0.4227273 681 384.96)"><g transform="matrix(1 0 0 1 0 0)"><image x="0" y="0" xlink:href="img_162.png" width="179" height="176" /></g></g></g><g clip-path="url(#34)"><g transform="matrix(0.6 0 0 0.6 427.2 212.76)"><g transform="matrix(1 0 0 1 0 0)"><image x="0" y="0" xlink:href="img_163.png" width="370" height="93" /></g></g></g><g clip-path="url(#35)"></g><g clip-path="url(#36)"></g><g clip-path="url(#37)"></g><g clip-path="url(#38)"></g><g clip-path="url(#39)"></g><g clip-path="url(#40)"></g><g clip-path="url(#41)"><g transform="matrix(0.412 0 0 0.4114286 626.04 297.24)"><g transform="matrix(1 0 0 1 0 0)"><image x="0" y="0" xlink:href="img_164.png" width="120" height="119" /></g></g></g><g clip-path="url(#42)"></g><g clip-path="url(#43)"></g><g clip-path="url(#44)"><g transform="matrix(0.6 0 0 0.6 428.64 380.28)"><g transform="matrix(1 0 0 1 0 0)"><image x="0" y="0" xlink:href="img_165.png" width="377" height="96" /></g></g></g><g clip-path="url(#45)"></g><g clip-path="url(#46)"></g><g clip-path="url(#47)"></g><g clip-path="url(#48)"></g><g clip-path="url(#49)"></g><g clip-path="url(#50)"></g><g clip-path="url(#51)"></g><g clip-path="url(#52)"></g><g clip-path="url(#53)"></g><g clip-path="url(#54)"></g><g clip-path="url(#55)"></g><g clip-path="url(#56)"><g transform="matrix(0.6 0 0 0.6 859.56 470.64)"><g transform="matrix(1 0 0 1 0 0)"><image x="0" y="0" xlink:href="img_166.png" width="101" height="100" /></g></g></g><g clip-path="url(#57)"><g transform="matrix(0.6 0 0 0.6 774.96 294.48)"><g transform="matrix(1 0 0 1 0 0)"><image x="0" y="0" xlink:href="img_166.png" width="101" height="100" /></g></g></g><g clip-path="url(#58)"><g transform="matrix(0.6 0 0 0.6 775.32 122.16)"><g transform="matrix(1 0 0 1 0 0)"><image x="0" y="0" xlink:href="img_167.png" width="100" height="99" /></g></g></g><g clip-path="url(#59)"><g transform="matrix(0.3494595 0 0 0.3493878 801.36 434.04)"><g transform="matrix(1 0 0 1 0 0)"><image x="0" y="0" xlink:href="img_168.png" width="148" height="147" /></g></g></g><g clip-path="url(#60)"><g transform="matrix(0.6 0 0 0.6 68.16 428.52)"><g transform="matrix(1 0 0 1 0 0)"><image x="0" y="0" xlink:href="img_169.png" width="371" height="95" /></g></g></g><g clip-path="url(#61)"></g><g clip-path="url(#62)"></g><g clip-path="url(#63)"></g><g clip-path="url(#64)"></g><g clip-path="url(#65)"></g><g clip-path="url(#66)"></g><g clip-path="url(#67)"></g><g clip-path="url(#68)"></g><g clip-path="url(#69)"></g><g clip-path="url(#70)"></g><g clip-path="url(#71)"></g></g></g></g></svg>