<svg xmlns="http://www.w3.org/2000/svg" xmlns:xlink="http://www.w3.org/1999/xlink" id="body_32" preserveAspectRatio="xMinYMin meet" viewBox="0 0 1280 720"><defs><clipPath id="1"><path d="M0 540L0 0L0 0L960 0L960 0L960 540L960 540L0 540z" /></clipPath><clipPath id="2"><path d="M0 539.9999L960 539.9999L960 539.9999L960 -0.0001220703L960 -0.0001220703L0 -0.0001220703z" /></clipPath><clipPath id="3"><path d="M1.4305E-05 540L960 540L960 540L960 0L960 0L1.4305E-05 0z" /></clipPath><clipPath id="4"><path d="M1.4305E-05 540L960 540L960 540L960 0L960 0L1.4305E-05 0z" /></clipPath><clipPath id="5"><path d="M58.08 163.32L322.56 163.32L322.56 163.32L322.56 125.16L322.56 125.16L58.08 125.16z" /></clipPath><clipPath id="6"><path d="M57.72 207.36L322.56 207.36L322.56 207.36L322.56 163.32L322.56 163.32L57.72 163.32z" /></clipPath><clipPath id="7"><path d="M1.4305E-05 540L960 540L960 540L960 0L960 0L1.4305E-05 0z" /></clipPath><clipPath id="8"><path d="M1.4305E-05 540L960 540L960 540L960 0L960 0L1.4305E-05 0z" /></clipPath><clipPath id="9"><path d="M1.4305E-05 540L960 540L960 540L960 0L960 0L1.4305E-05 0z" /></clipPath><clipPath id="10"><path d="M1.4305E-05 540L960 540L960 540L960 0L960 0L1.4305E-05 0z" /></clipPath><clipPath id="11"><path d="M1.4305E-05 540L960 540L960 540L960 0L960 0L1.4305E-05 0z" /></clipPath><clipPath id="12"><path d="M1.4305E-05 540L960 540L960 540L960 0L960 0L1.4305E-05 0z" /></clipPath><clipPath id="13"><path d="M1.4305E-05 540L960 540L960 540L960 0L960 0L1.4305E-05 0z" /></clipPath><clipPath id="14"><path d="M1.4305E-05 540L960 540L960 540L960 0L960 0L1.4305E-05 0z" /></clipPath><clipPath id="15"><path d="M1.4305E-05 540L960 540L960 540L960 0L960 0L1.4305E-05 0z" /></clipPath><clipPath id="16"><path d="M1.4305E-05 540L960 540L960 540L960 0L960 0L1.4305E-05 0z" /></clipPath><clipPath id="17"><path d="M1.4305E-05 540L960 540L960 540L960 0L960 0L1.4305E-05 0z" /></clipPath><clipPath id="18"><path d="M1.4305E-05 540L960 540L960 540L960 0L960 0L1.4305E-05 0z" /></clipPath><clipPath id="19"><path d="M1.4305E-05 540L960 540L960 540L960 0L960 0L1.4305E-05 0z" /></clipPath><clipPath id="20"><path d="M1.4305E-05 540L960 540L960 540L960 0L960 0L1.4305E-05 0z" /></clipPath><clipPath id="21"><path d="M1.4305E-05 540L960 540L960 540L960 0L960 0L1.4305E-05 0z" /></clipPath><clipPath id="22"><path d="M1.4305E-05 540L960 540L960 540L960 0L960 0L1.4305E-05 0z" /></clipPath><clipPath id="23"><path d="M1.4305E-05 540L960 540L960 540L960 0L960 0L1.4305E-05 0z" /></clipPath><clipPath id="24"><path d="M1.4305E-05 540L960 540L960 540L960 0L960 0L1.4305E-05 0z" /></clipPath><clipPath id="25"><path d="M1.4305E-05 540L960 540L960 540L960 0L960 0L1.4305E-05 0z" /></clipPath><clipPath id="26"><path d="M1.4305E-05 540L960 540L960 540L960 0L960 0L1.4305E-05 0z" /></clipPath><clipPath id="27"><path d="M1.4305E-05 540L960 540L960 540L960 0L960 0L1.4305E-05 0z" /></clipPath><clipPath id="28"><path d="M1.4305E-05 540L960 540L960 540L960 0L960 0L1.4305E-05 0z" /></clipPath><clipPath id="29"><path d="M1.4305E-05 540L960 540L960 540L960 0L960 0L1.4305E-05 0z" /></clipPath><clipPath id="30"><path d="M1.4305E-05 540L960 540L960 540L960 0L960 0L1.4305E-05 0z" /></clipPath><clipPath id="31"><path d="M1.4305E-05 540L960 540L960 540L960 0L960 0L1.4305E-05 0z" /></clipPath><clipPath id="32"><path d="M1.4305E-05 540L960 540L960 540L960 0L960 0L1.4305E-05 0z" /></clipPath><clipPath id="33"><path d="M1.4305E-05 540L960 540L960 540L960 0L960 0L1.4305E-05 0z" /></clipPath><clipPath id="34"><path d="M1.4305E-05 540L960 540L960 540L960 0L960 0L1.4305E-05 0z" /></clipPath><clipPath id="35"><path d="M1.4305E-05 540L960 540L960 540L960 0L960 0L1.4305E-05 0z" /></clipPath><clipPath id="36"><path d="M1.4305E-05 540L960 540L960 540L960 0L960 0L1.4305E-05 0z" /></clipPath><clipPath id="37"><path d="M1.4305E-05 540L960 540L960 540L960 0L960 0L1.4305E-05 0z" /></clipPath><clipPath id="38"><path d="M1.4305E-05 540L960 540L960 540L960 0L960 0L1.4305E-05 0z" /></clipPath><clipPath id="39"><path d="M1.4305E-05 540L960 540L960 540L960 0L960 0L1.4305E-05 0z" /></clipPath><clipPath id="40"><path d="M1.4305E-05 540L960 540L960 540L960 0L960 0L1.4305E-05 0z" /></clipPath><clipPath id="41"><path d="M1.4305E-05 540L960 540L960 540L960 0L960 0L1.4305E-05 0z" /></clipPath><clipPath id="42"><path d="M1.4305E-05 540L960 540L960 540L960 0L960 0L1.4305E-05 0z" /></clipPath><clipPath id="43"><path d="M1.4305E-05 540L960 540L960 540L960 0L960 0L1.4305E-05 0z" /></clipPath><clipPath id="44"><path d="M1.4305E-05 540L960 540L960 540L960 0L960 0L1.4305E-05 0z" /></clipPath><clipPath id="45"><path d="M1.4305E-05 540L960 540L960 540L960 0L960 0L1.4305E-05 0z" /></clipPath><clipPath id="46"><path d="M1.4305E-05 540L960 540L960 540L960 0L960 0L1.4305E-05 0z" /></clipPath><clipPath id="47"><path d="M1.4305E-05 540L960 540L960 540L960 0L960 0L1.4305E-05 0z" /></clipPath><clipPath id="48"><path d="M1.4305E-05 540L960 540L960 540L960 0L960 0L1.4305E-05 0z" /></clipPath><clipPath id="49"><path d="M1.4305E-05 540L960 540L960 540L960 0L960 0L1.4305E-05 0z" /></clipPath><clipPath id="50"><path d="M1.4305E-05 540L960 540L960 540L960 0L960 0L1.4305E-05 0z" /></clipPath><clipPath id="51"><path d="M1.4305E-05 540L960 540L960 540L960 0L960 0L1.4305E-05 0z" /></clipPath><clipPath id="52"><path d="M1.4305E-05 540L960 540L960 540L960 0L960 0L1.4305E-05 0z" /></clipPath><clipPath id="53"><path d="M1.4305E-05 540L960 540L960 540L960 0L960 0L1.4305E-05 0z" /></clipPath><clipPath id="54"><path d="M1.4305E-05 540L960 540L960 540L960 0L960 0L1.4305E-05 0z" /></clipPath><clipPath id="55"><path d="M388.56 151.92L479.28 151.92L479.28 151.92L479.28 60.72003L479.28 60.72003L388.56 60.72003z" /></clipPath><clipPath id="56"><path d="M481.8 152.64L573.6 152.64L573.6 152.64L573.6 61.44L573.6 61.44L481.8 61.44z" /></clipPath><clipPath id="57"><path d="M575.76 152.76L667.08 152.76L667.08 152.76L667.08 62.76001L667.08 62.76001L575.76 62.76001z" /></clipPath><clipPath id="58"><path d="M477.84 305.28L569.16 305.28L569.16 305.28L569.16 215.28L569.16 215.28L477.84 215.28z" /></clipPath><clipPath id="59"><path d="M569.64 305.88L660.36 305.88L660.36 305.88L660.36 214.68L660.36 214.68L569.64 214.68z" /></clipPath><clipPath id="60"><path d="M666.84 152.76L757.44 152.76L757.44 152.76L757.44 62.76001L757.44 62.76001L666.84 62.76001z" /></clipPath><clipPath id="61"><path d="M658.92 305.52L749.52 305.52L749.52 305.52L749.52 214.92L749.52 214.92L658.92 214.92z" /></clipPath><clipPath id="62"><path d="M1.4305E-05 540L960 540L960 540L960 0L960 0L1.4305E-05 0z" /></clipPath><clipPath id="63"><path d="M1.4305E-05 540L960 540L960 540L960 0L960 0L1.4305E-05 0z" /></clipPath><clipPath id="64"><path d="M1.4305E-05 540L960 540L960 540L960 0L960 0L1.4305E-05 0z" /></clipPath><clipPath id="65"><path d="M1.4305E-05 540L960 540L960 540L960 0L960 0L1.4305E-05 0z" /></clipPath><clipPath id="66"><path d="M1.4305E-05 540L960 540L960 540L960 0L960 0L1.4305E-05 0z" /></clipPath><clipPath id="67"><path d="M1.4305E-05 540L960 540L960 540L960 0L960 0L1.4305E-05 0z" /></clipPath><clipPath id="68"><path d="M1.4305E-05 540L960 540L960 540L960 0L960 0L1.4305E-05 0z" /></clipPath><clipPath id="69"><path d="M1.4305E-05 540L960 540L960 540L960 0L960 0L1.4305E-05 0z" /></clipPath><clipPath id="70"><path d="M1.4305E-05 540L960 540L960 540L960 0L960 0L1.4305E-05 0z" /></clipPath><clipPath id="71"><path d="M1.4305E-05 540L960 540L960 540L960 0L960 0L1.4305E-05 0z" /></clipPath><clipPath id="72"><path d="M1.4305E-05 540L960 540L960 540L960 0L960 0L1.4305E-05 0z" /></clipPath><clipPath id="73"><path d="M1.4305E-05 540L960 540L960 540L960 0L960 0L1.4305E-05 0z" /></clipPath><clipPath id="74"><path d="M1.4305E-05 540L960 540L960 540L960 0L960 0L1.4305E-05 0z" /></clipPath><clipPath id="75"><path d="M1.4305E-05 540L960 540L960 540L960 0L960 0L1.4305E-05 0z" /></clipPath><clipPath id="76"><path d="M757.2 153.6L848.64 153.6L848.64 153.6L848.64 62.04001L848.64 62.04001L757.2 62.04001z" /></clipPath><clipPath id="77"><path d="M1.4305E-05 540L960 540L960 540L960 0L960 0L1.4305E-05 0z" /></clipPath><clipPath id="78"><path d="M1.4305E-05 540L960 540L960 540L960 0L960 0L1.4305E-05 0z" /></clipPath><clipPath id="79"><path d="M750.24 306.72L842.4 306.72L842.4 306.72L842.4 214.56L842.4 214.56L750.24 214.56z" /></clipPath><clipPath id="80"><path d="M1.4305E-05 540L960 540L960 540L960 0L960 0L1.4305E-05 0z" /></clipPath><clipPath id="81"><path d="M1.4305E-05 540L960 540L960 540L960 0L960 0L1.4305E-05 0z" /></clipPath><clipPath id="82"><path d="M1.4305E-05 540L960 540L960 540L960 0L960 0L1.4305E-05 0z" /></clipPath><clipPath id="83"><path d="M1.4305E-05 540L960 540L960 540L960 0L960 0L1.4305E-05 0z" /></clipPath><clipPath id="84"><path d="M1.4305E-05 540L960 540L960 540L960 0L960 0L1.4305E-05 0z" /></clipPath><clipPath id="85"><path d="M1.4305E-05 540L960 540L960 540L960 0L960 0L1.4305E-05 0z" /></clipPath><clipPath id="86"><path d="M521.64 472.44L652.2 472.44L652.2 472.44L652.2 363.6L652.2 363.6L521.64 363.6z" /></clipPath><clipPath id="87"><path d="M1.4305E-05 540L960 540L960 540L960 0L960 0L1.4305E-05 0z" /></clipPath><clipPath id="88"><path d="M847.56 154.08L939.48 154.08L939.48 154.08L939.48 62.03998L939.48 62.03998L847.56 62.03998z" /></clipPath><clipPath id="89"><path d="M1.4305E-05 540L960 540L960 540L960 0L960 0L1.4305E-05 0z" /></clipPath><clipPath id="90"><path d="M1.4305E-05 540L960 540L960 540L960 0L960 0L1.4305E-05 0z" /></clipPath><clipPath id="91"><path d="M1.4305E-05 540L960 540L960 540L960 0L960 0L1.4305E-05 0z" /></clipPath><clipPath id="92"><path d="M1.4305E-05 540L960 540L960 540L960 0L960 0L1.4305E-05 0z" /></clipPath><clipPath id="93"><path d="M1.4305E-05 540L960 540L960 540L960 0L960 0L1.4305E-05 0z" /></clipPath><clipPath id="94"><path d="M728.28 472.32L866.76 472.32L866.76 472.32L866.76 371.88L866.76 371.88L728.28 371.88z" /></clipPath></defs><g transform="matrix(1.333333 0 0 1.333333 0 0)"><g><g clip-path="url(#1)"><g clip-path="url(#2)"><path transform="matrix(1 0 0 -1 0 540)" d="M0 6.1035E-05L960 6.1035E-05L960 6.1035E-05L960 540.0001L960 540.0001L0 540.0001z" stroke="none" fill="#FFFFFF" fill-rule="evenodd" /></g><g clip-path="url(#3)"></g><g clip-path="url(#4)"></g><g clip-path="url(#5)"><g transform="matrix(0.4962102 0 0 0.4955844 58.08 125.16)"><g transform="matrix(1 0 0 1 0 0)"><image x="0" y="0" xlink:href="img_220.png" width="533" height="77" /></g></g></g><g clip-path="url(#6)"><g transform="matrix(0.52968 0 0 0.5306024 57.72 163.32)"><g transform="matrix(1 0 0 1 0 0)"><image x="0" y="0" xlink:href="img_221.png" width="500" height="83" /></g></g></g><g clip-path="url(#7)"></g><g clip-path="url(#8)"></g><g clip-path="url(#9)"></g><g clip-path="url(#10)"></g><g clip-path="url(#11)"></g><g clip-path="url(#12)"></g><g clip-path="url(#13)"></g><g clip-path="url(#14)"></g><g clip-path="url(#15)"></g><g clip-path="url(#16)"></g><g clip-path="url(#17)"></g><g clip-path="url(#18)"></g><g clip-path="url(#19)"></g><g clip-path="url(#20)"></g><g clip-path="url(#21)"></g><g clip-path="url(#22)"></g><g clip-path="url(#23)"></g><g clip-path="url(#24)"></g><g clip-path="url(#25)"></g><g clip-path="url(#26)"></g><g clip-path="url(#27)"></g><g clip-path="url(#28)"></g><g clip-path="url(#29)"></g><g clip-path="url(#30)"></g><g clip-path="url(#31)"></g><g clip-path="url(#32)"></g><g clip-path="url(#33)"></g><g clip-path="url(#34)"></g><g clip-path="url(#35)"></g><g clip-path="url(#36)"></g><g clip-path="url(#37)"></g><g clip-path="url(#38)"></g><g clip-path="url(#39)"></g><g clip-path="url(#40)"></g><g clip-path="url(#41)"></g><g clip-path="url(#42)"></g><g clip-path="url(#43)"></g><g clip-path="url(#44)"></g><g clip-path="url(#45)"></g><g clip-path="url(#46)"></g><g clip-path="url(#47)"></g><g clip-path="url(#48)"></g><g clip-path="url(#49)"></g><g clip-path="url(#50)"></g><g clip-path="url(#51)"></g><g clip-path="url(#52)"></g><g clip-path="url(#53)"></g><g clip-path="url(#54)"></g><g clip-path="url(#55)"><g transform="matrix(0.6007947 0 0 0.6 388.56 60.72003)"><g transform="matrix(1 0 0 1 0 0)"><image x="0" y="0" xlink:href="img_222.png" width="151" height="152" /></g></g></g><g clip-path="url(#56)"><g transform="matrix(0.6 0 0 0.6 481.8 61.44)"><g transform="matrix(1 0 0 1 0 0)"><image x="0" y="0" xlink:href="img_223.png" width="153" height="152" /></g></g></g><g clip-path="url(#57)"><g transform="matrix(0.6007895 0 0 0.6 575.76 62.76001)"><g transform="matrix(1 0 0 1 0 0)"><image x="0" y="0" xlink:href="img_224.png" width="152" height="150" /></g></g></g><g clip-path="url(#58)"><g transform="matrix(0.6007895 0 0 0.6 477.84 215.28)"><g transform="matrix(1 0 0 1 0 0)"><image x="0" y="0" xlink:href="img_225.png" width="152" height="150" /></g></g></g><g clip-path="url(#59)"><g transform="matrix(0.6007947 0 0 0.6 569.64 214.68)"><g transform="matrix(1 0 0 1 0 0)"><image x="0" y="0" xlink:href="img_226.png" width="151" height="152" /></g></g></g><g clip-path="url(#60)"><g transform="matrix(0.6 0 0 0.6 666.84 62.76001)"><g transform="matrix(1 0 0 1 0 0)"><image x="0" y="0" xlink:href="img_227.png" width="151" height="150" /></g></g></g><g clip-path="url(#61)"><g transform="matrix(0.6 0 0 0.6 658.92 214.92)"><g transform="matrix(1 0 0 1 0 0)"><image x="0" y="0" xlink:href="img_228.png" width="151" height="151" /></g></g></g><g clip-path="url(#62)"></g><g clip-path="url(#63)"></g><g clip-path="url(#64)"></g><g clip-path="url(#65)"></g><g clip-path="url(#66)"></g><g clip-path="url(#67)"></g><g clip-path="url(#68)"></g><g clip-path="url(#69)"></g><g clip-path="url(#70)"></g><g clip-path="url(#71)"></g><g clip-path="url(#72)"></g><g clip-path="url(#73)"></g><g clip-path="url(#74)"></g><g clip-path="url(#75)"></g><g clip-path="url(#76)"><g transform="matrix(0.6096 0 0 0.6104 757.2 62.04001)"><g transform="matrix(1 0 0 1 0 0)"><image x="0" y="0" xlink:href="img_229.png" width="150" height="150" /></g></g></g><g clip-path="url(#77)"></g><g clip-path="url(#78)"></g><g clip-path="url(#79)"><g transform="matrix(0.6144 0 0 0.6144 750.24 214.56)"><g transform="matrix(1 0 0 1 0 0)"><image x="0" y="0" xlink:href="img_230.png" width="150" height="150" /></g></g></g><g clip-path="url(#80)"></g><g clip-path="url(#81)"></g><path transform="matrix(1 0 0 -1 0 540)" d="M17.52 495.24L89.52 495.24L89.52 495.24L89.52 527.4L89.52 527.4L17.52 527.4z" stroke="none" fill="#00B0F0" fill-rule="evenodd" /><path transform="matrix(1 0 0 -1 0 540)" d="M24 500.64L81.96 500.64L81.96 500.64L81.96 521.64L81.96 521.64L24 521.64z" stroke="none" fill="#BDD7EE" fill-rule="evenodd" /><g clip-path="url(#82)"></g><g clip-path="url(#83)"></g><g clip-path="url(#84)"></g><g clip-path="url(#85)"></g><g clip-path="url(#86)"><g transform="matrix(0.9890909 0 0 0.9894545 521.64 363.6)"><g transform="matrix(1 0 0 1 0 0)"><image x="0" y="0" xlink:href="img_231.png" width="132" height="110" /></g></g></g><g clip-path="url(#87)"></g><g clip-path="url(#88)"><g transform="matrix(0.6128 0 0 0.6136 847.56 62.03998)"><g transform="matrix(1 0 0 1 0 0)"><image x="0" y="0" xlink:href="img_60.png" width="150" height="150" /></g></g></g><g clip-path="url(#89)"></g><g clip-path="url(#90)"></g><path transform="matrix(1 0 0 -1 0 540)" d="M675.24 111L691.32 111L691.32 111L691.32 125.52L691.32 125.52L707.4 96.48L707.4 96.48L691.32 67.44L691.32 67.44L691.32 81.96L691.32 81.96L675.24 81.96z" stroke="none" fill="#4472C4" fill-rule="evenodd" /><path transform="matrix(1 0 0 -1 0 540)" d="M675.24 111L691.32 111L691.32 111L691.32 125.52L691.32 125.52L707.4 96.48L707.4 96.48L691.32 67.44L691.32 67.44L691.32 81.96L691.32 81.96L675.24 81.96z" stroke="#2F528F" stroke-width="0.96" fill="none" /><g clip-path="url(#91)"></g><g clip-path="url(#92)"></g><g clip-path="url(#93)"></g><g clip-path="url(#94)"><g transform="matrix(3.147273 0 0 3.13875 728.28 371.88)"><g transform="matrix(1 0 0 1 0 0)"><image x="0" y="0" xlink:href="img_232.png" width="44" height="32" /></g></g></g></g></g></g></svg>