<svg xmlns="http://www.w3.org/2000/svg" xmlns:xlink="http://www.w3.org/1999/xlink" id="body_5" preserveAspectRatio="xMinYMin meet" viewBox="0 0 1280 720"><defs><clipPath id="1"><path d="M0 540L0 0L0 0L960 0L960 0L960 540L960 540L0 540z" /></clipPath><clipPath id="2"><path d="M0 539.9999L960 539.9999L960 539.9999L960 -0.0001220703L960 -0.0001220703L0 -0.0001220703z" /></clipPath><clipPath id="3"><path d="M1.4305E-05 540L960 540L960 540L960 0L960 0L1.4305E-05 0z" /></clipPath><clipPath id="4"><path d="M1.4305E-05 540L960 540L960 540L960 0L960 0L1.4305E-05 0z" /></clipPath><clipPath id="5"><path d="M1.4305E-05 540L960 540L960 540L960 0L960 0L1.4305E-05 0z" /></clipPath><clipPath id="6"><path d="M105.96 461.64L162 461.64L162 461.64L162 405.48L162 405.48L105.96 405.48z" /></clipPath><clipPath id="7"><path d="M1.4305E-05 540L960 540L960 540L960 0L960 0L1.4305E-05 0z" /></clipPath><clipPath id="8"><path d="M1.4305E-05 540L960 540L960 540L960 0L960 0L1.4305E-05 0z" /></clipPath><clipPath id="9"><path d="M1.4305E-05 540L960 540L960 540L960 0L960 0L1.4305E-05 0z" /></clipPath><clipPath id="10"><path d="M1.4305E-05 540L960 540L960 540L960 0L960 0L1.4305E-05 0z" /></clipPath><clipPath id="11"><path d="M260.28 260.4L316.68 260.4L316.68 260.4L316.68 204L316.68 204L260.28 204z" /></clipPath><clipPath id="12"><path d="M162.6 461.64L218.64 461.64L218.64 461.64L218.64 405.48L218.64 405.48L162.6 405.48z" /></clipPath><clipPath id="13"><path d="M632.28 458.88L688.44 458.88L688.44 458.88L688.44 402.72L688.44 402.72L632.28 402.72z" /></clipPath><clipPath id="14"><path d="M1.4305E-05 540L960 540L960 540L960 0L960 0L1.4305E-05 0z" /></clipPath><clipPath id="15"><path d="M688.92 458.88L745.08 458.88L745.08 458.88L745.08 402.72L745.08 402.72L688.92 402.72z" /></clipPath><clipPath id="16"><path d="M744.84 458.88L801 458.88L801 458.88L801 402.72L801 402.72L744.84 402.72z" /></clipPath><clipPath id="17"><path d="M398.76 133.92L457.8 133.92L457.8 133.92L457.8 74.76001L457.8 74.76001L398.76 74.76001z" /></clipPath><clipPath id="18"><path d="M1.4305E-05 540L960 540L960 540L960 0L960 0L1.4305E-05 0z" /></clipPath><clipPath id="19"><path d="M1.4305E-05 540L960 540L960 540L960 0L960 0L1.4305E-05 0z" /></clipPath><clipPath id="20"><path d="M1.4305E-05 540L960 540L960 540L960 0L960 0L1.4305E-05 0z" /></clipPath><clipPath id="21"><path d="M1.4305E-05 540L960 540L960 540L960 0L960 0L1.4305E-05 0z" /></clipPath><clipPath id="22"><path d="M1.4305E-05 540L960 540L960 540L960 0L960 0L1.4305E-05 0z" /></clipPath><clipPath id="23"><path d="M1.4305E-05 540L960 540L960 540L960 0L960 0L1.4305E-05 0z" /></clipPath><clipPath id="24"><path d="M1.4305E-05 540L960 540L960 540L960 0L960 0L1.4305E-05 0z" /></clipPath><clipPath id="25"><path d="M800.16 457.68L854.64 457.68L854.64 457.68L854.64 402.48L854.64 402.48L800.16 402.48z" /></clipPath><clipPath id="26"><path d="M1.4305E-05 540L960 540L960 540L960 0L960 0L1.4305E-05 0z" /></clipPath><clipPath id="27"><path d="M587.52 258.96L643.68 258.96L643.68 258.96L643.68 202.8L643.68 202.8L587.52 202.8z" /></clipPath><clipPath id="28"><path d="M1.4305E-05 540L960 540L960 540L960 0L960 0L1.4305E-05 0z" /></clipPath><clipPath id="29"><path d="M428.88 455.4L485.04 455.4L485.04 455.4L485.04 399.24L485.04 399.24L428.88 399.24z" /></clipPath><clipPath id="30"><path d="M1.4305E-05 540L960 540L960 540L960 0L960 0L1.4305E-05 0z" /></clipPath><clipPath id="31"><path d="M218.52 461.64L274.56 461.64L274.56 461.64L274.56 405.48L274.56 405.48L218.52 405.48z" /></clipPath><clipPath id="32"><path d="M1.4305E-05 540L960 540L960 540L960 0L960 0L1.4305E-05 0z" /></clipPath><clipPath id="33"><path d="M854.88 458.16L911.04 458.16L911.04 458.16L911.04 402L911.04 402L854.88 402z" /></clipPath><clipPath id="34"><path d="M1.4305E-05 540L960 540L960 540L960 0L960 0L1.4305E-05 0z" /></clipPath><clipPath id="35"><path d="M462.36 134.16L522.48 134.16L522.48 134.16L522.48 74.16L522.48 74.16L462.36 74.16z" /></clipPath><clipPath id="36"><path d="M1.4305E-05 540L960 540L960 540L960 0L960 0L1.4305E-05 0z" /></clipPath><clipPath id="37"><path d="M1.4305E-05 540L960 540L960 540L960 0L960 0L1.4305E-05 0z" /></clipPath></defs><g transform="matrix(1.333333 0 0 1.333333 0 0)"><g><g clip-path="url(#1)"><g clip-path="url(#2)"><path transform="matrix(1 0 0 -1 0 540)" d="M0 6.1035E-05L960 6.1035E-05L960 6.1035E-05L960 540.0001L960 540.0001L0 540.0001z" stroke="none" fill="#FFFFFF" fill-rule="evenodd" /></g><g clip-path="url(#3)"></g><g clip-path="url(#4)"></g><g clip-path="url(#5)"></g><g clip-path="url(#6)"><g transform="matrix(0.418209 0 0 0.4191045 105.96 405.48)"><g transform="matrix(1 0 0 1 0 0)"><image x="0" y="0" xlink:href="img_31.png" width="134" height="134" /></g></g></g><g clip-path="url(#7)"></g><g clip-path="url(#8)"></g><g clip-path="url(#9)"></g><g clip-path="url(#10)"></g><g clip-path="url(#11)"><g transform="matrix(0.376 0 0 0.376 260.28 204)"><g transform="matrix(1 0 0 1 0 0)"><image x="0" y="0" xlink:href="img_32.png" width="150" height="150" /></g></g></g><g clip-path="url(#12)"><g transform="matrix(0.3736 0 0 0.3744 162.6 405.48)"><g transform="matrix(1 0 0 1 0 0)"><image x="0" y="0" xlink:href="img_33.png" width="150" height="150" /></g></g></g><g clip-path="url(#13)"><g transform="matrix(0.3744 0 0 0.3744 632.28 402.72)"><g transform="matrix(1 0 0 1 0 0)"><image x="0" y="0" xlink:href="img_34.png" width="150" height="150" /></g></g></g><g clip-path="url(#14)"></g><g clip-path="url(#15)"><g transform="matrix(0.3744 0 0 0.3744 688.92 402.72)"><g transform="matrix(1 0 0 1 0 0)"><image x="0" y="0" xlink:href="img_35.png" width="150" height="150" /></g></g></g><g clip-path="url(#16)"><g transform="matrix(0.3744 0 0 0.3744 744.84 402.72)"><g transform="matrix(1 0 0 1 0 0)"><image x="0" y="0" xlink:href="img_36.png" width="150" height="150" /></g></g></g><g clip-path="url(#17)"><g transform="matrix(0.3012245 0 0 0.3003046 398.76 74.76001)"><g transform="matrix(1 0 0 1 0 0)"><image x="0" y="0" xlink:href="img_37.png" width="196" height="197" /></g></g></g><path transform="matrix(1 0 0 -1 0 540)" d="M669.28 155.76L675.28 152.76L675.28 152.76L669.28 149.76zM246.48 149.76L240.48 152.76L240.48 152.76L246.48 155.76zM245.48 153.26L670.28 153.26L670.28 153.26L670.28 152.26L670.28 152.26L245.48 152.26z" stroke="none" fill="#000000" fill-rule="winding" /><path transform="matrix(1 0 0 -1 0 540)" d="M694.9 174.98L697.58 168.83L697.58 168.83L691.05 170.37zM484.96 342.33L482.28 348.48L482.28 348.48L488.81 346.94zM486.44 345.66L694.06 172.42L694.06 172.42L693.42 171.65L693.42 171.65L485.8 344.89z" stroke="none" fill="#000000" fill-rule="winding" /><path transform="matrix(1 0 0 -1 0 540)" d="M220.76 177.04L218.04 170.91L218.04 170.91L224.58 172.41zM429.92 341.63L432.64 347.76L432.64 347.76L426.1 346.26zM428.46 344.97L221.58 174.47L221.58 174.47L222.22 173.7L222.22 173.7L429.1 344.19z" stroke="none" fill="#000000" fill-rule="winding" /><g clip-path="url(#18)"></g><g clip-path="url(#19)"></g><g clip-path="url(#20)"></g><g clip-path="url(#21)"></g><g clip-path="url(#22)"></g><g clip-path="url(#23)"></g><g clip-path="url(#24)"></g><g clip-path="url(#25)"><g transform="matrix(0.3584211 0 0 0.3584416 800.16 402.48)"><g transform="matrix(1 0 0 1 0 0)"><image x="0" y="0" xlink:href="img_38.png" width="152" height="154" /></g></g></g><g clip-path="url(#26)"></g><g clip-path="url(#27)"><g transform="matrix(0.3744 0 0 0.3744 587.52 202.8)"><g transform="matrix(1 0 0 1 0 0)"><image x="0" y="0" xlink:href="img_39.png" width="150" height="150" /></g></g></g><g clip-path="url(#28)"></g><g clip-path="url(#29)"><g transform="matrix(0.3744 0 0 0.3744 428.88 399.24)"><g transform="matrix(1 0 0 1 0 0)"><image x="0" y="0" xlink:href="img_40.png" width="150" height="150" /></g></g></g><g clip-path="url(#30)"></g><g clip-path="url(#31)"><g transform="matrix(0.3736 0 0 0.3744 218.52 405.48)"><g transform="matrix(1 0 0 1 0 0)"><image x="0" y="0" xlink:href="img_41.png" width="150" height="150" /></g></g></g><g clip-path="url(#32)"></g><g clip-path="url(#33)"><g transform="matrix(0.3744 0 0 0.3744 854.88 402)"><g transform="matrix(1 0 0 1 0 0)"><image x="0" y="0" xlink:href="img_42.png" width="150" height="150" /></g></g></g><g clip-path="url(#34)"></g><g clip-path="url(#35)"><g transform="matrix(0.4008 0 0 0.4 462.36 74.16)"><g transform="matrix(1 0 0 1 0 0)"><image x="0" y="0" xlink:href="img_43.png" width="150" height="150" /></g></g></g><g clip-path="url(#36)"></g><g clip-path="url(#37)"></g></g></g></g></svg>