<svg xmlns="http://www.w3.org/2000/svg" xmlns:xlink="http://www.w3.org/1999/xlink" id="body_12" preserveAspectRatio="xMinYMin meet" viewBox="0 0 1280 720"><defs><clipPath id="1"><path d="M0 540L0 0L0 0L960 0L960 0L960 540L960 540L0 540z" /></clipPath><clipPath id="2"><path d="M0 539.9999L960 539.9999L960 539.9999L960 -0.0001220703L960 -0.0001220703L0 -0.0001220703z" /></clipPath><clipPath id="3"><path d="M1.4305E-05 540L960 540L960 540L960 0L960 0L1.4305E-05 0z" /></clipPath><clipPath id="4"><path d="M34.8 124.44L201 124.44L201 124.44L201 59.04001L201 59.04001L34.8 59.04001z" /></clipPath><clipPath id="5"><path d="M19.2 357.24L273.48 357.24L273.48 357.24L273.48 169.08L273.48 169.08L19.2 169.08z" /></clipPath><clipPath id="6"><path d="M1.4305E-05 540L960 540L960 540L960 0L960 0L1.4305E-05 0z" /></clipPath><clipPath id="7"><path d="M1.4305E-05 540L960 540L960 540L960 0L960 0L1.4305E-05 0z" /></clipPath><clipPath id="8"><path d="M1.4305E-05 540L960 540L960 540L960 0L960 0L1.4305E-05 0z" /></clipPath><clipPath id="9"><path d="M1.4305E-05 540L960 540L960 540L960 0L960 0L1.4305E-05 0z" /></clipPath><clipPath id="10"><path d="M1.4305E-05 540L960 540L960 540L960 0L960 0L1.4305E-05 0z" /></clipPath><clipPath id="11"><path d="M1.4305E-05 540L960 540L960 540L960 0L960 0L1.4305E-05 0z" /></clipPath><clipPath id="12"><path d="M1.4305E-05 540L960 540L960 540L960 0L960 0L1.4305E-05 0z" /></clipPath><clipPath id="13"><path d="M1.4305E-05 540L960 540L960 540L960 0L960 0L1.4305E-05 0z" /></clipPath><clipPath id="14"><path d="M1.4305E-05 540L960 540L960 540L960 0L960 0L1.4305E-05 0z" /></clipPath><clipPath id="15"><path d="M1.4305E-05 540L960 540L960 540L960 0L960 0L1.4305E-05 0z" /></clipPath><clipPath id="16"><path d="M1.4305E-05 540L960 540L960 540L960 0L960 0L1.4305E-05 0z" /></clipPath><clipPath id="17"><path d="M1.4305E-05 540L960 540L960 540L960 0L960 0L1.4305E-05 0z" /></clipPath><clipPath id="18"><path d="M1.4305E-05 540L960 540L960 540L960 0L960 0L1.4305E-05 0z" /></clipPath><clipPath id="19"><path d="M1.4305E-05 540L960 540L960 540L960 0L960 0L1.4305E-05 0z" /></clipPath><clipPath id="20"><path d="M1.4305E-05 540L960 540L960 540L960 0L960 0L1.4305E-05 0z" /></clipPath><clipPath id="21"><path d="M1.4305E-05 540L960 540L960 540L960 0L960 0L1.4305E-05 0z" /></clipPath><clipPath id="22"><path d="M1.4305E-05 540L960 540L960 540L960 0L960 0L1.4305E-05 0z" /></clipPath><clipPath id="23"><path d="M1.4305E-05 540L960 540L960 540L960 0L960 0L1.4305E-05 0z" /></clipPath><clipPath id="24"><path d="M1.4305E-05 540L960 540L960 540L960 0L960 0L1.4305E-05 0z" /></clipPath><clipPath id="25"><path d="M325.2 96.84L605.4 96.84L605.4 96.84L605.4 36.72L605.4 36.72L325.2 36.72z" /></clipPath><clipPath id="26"><path d="M1.4305E-05 540L960 540L960 540L960 0L960 0L1.4305E-05 0z" /></clipPath><clipPath id="27"><path d="M1.4305E-05 540L960 540L960 540L960 0L960 0L1.4305E-05 0z" /></clipPath><clipPath id="28"><path d="M1.4305E-05 540L960 540L960 540L960 0L960 0L1.4305E-05 0z" /></clipPath><clipPath id="29"><path d="M1.4305E-05 540L960 540L960 540L960 0L960 0L1.4305E-05 0z" /></clipPath><clipPath id="30"><path d="M1.4305E-05 540L960 540L960 540L960 0L960 0L1.4305E-05 0z" /></clipPath><clipPath id="31"><path d="M325.8 216L607.08 216L607.08 216L607.08 156.96L607.08 156.96L325.8 156.96z" /></clipPath><clipPath id="32"><path d="M1.4305E-05 540L960 540L960 540L960 0L960 0L1.4305E-05 0z" /></clipPath><clipPath id="33"><path d="M1.4305E-05 540L960 540L960 540L960 0L960 0L1.4305E-05 0z" /></clipPath><clipPath id="34"><path d="M1.4305E-05 540L960 540L960 540L960 0L960 0L1.4305E-05 0z" /></clipPath><clipPath id="35"><path d="M1.4305E-05 540L960 540L960 540L960 0L960 0L1.4305E-05 0z" /></clipPath><clipPath id="36"><path d="M1.4305E-05 540L960 540L960 540L960 0L960 0L1.4305E-05 0z" /></clipPath><clipPath id="37"><path d="M1.4305E-05 540L960 540L960 540L960 0L960 0L1.4305E-05 0z" /></clipPath><clipPath id="38"><path d="M320.76 355.8L603.96 355.8L603.96 355.8L603.96 296.4L603.96 296.4L320.76 296.4z" /></clipPath><clipPath id="39"><path d="M1.4305E-05 540L960 540L960 540L960 0L960 0L1.4305E-05 0z" /></clipPath><clipPath id="40"><path d="M1.4305E-05 540L960 540L960 540L960 0L960 0L1.4305E-05 0z" /></clipPath><clipPath id="41"><path d="M1.4305E-05 540L960 540L960 540L960 0L960 0L1.4305E-05 0z" /></clipPath><clipPath id="42"><path d="M1.4305E-05 540L960 540L960 540L960 0L960 0L1.4305E-05 0z" /></clipPath><clipPath id="43"><path d="M1.4305E-05 540L960 540L960 540L960 0L960 0L1.4305E-05 0z" /></clipPath><clipPath id="44"><path d="M1.4305E-05 540L960 540L960 540L960 0L960 0L1.4305E-05 0z" /></clipPath><clipPath id="45"><path d="M1.4305E-05 540L960 540L960 540L960 0L960 0L1.4305E-05 0z" /></clipPath><clipPath id="46"><path d="M1.4305E-05 540L960 540L960 540L960 0L960 0L1.4305E-05 0z" /></clipPath><clipPath id="47"><path d="M654.36 92.76001L933.96 92.76001L933.96 92.76001L933.96 35.04001L933.96 35.04001L654.36 35.04001z" /></clipPath><clipPath id="48"><path d="M1.4305E-05 540L960 540L960 540L960 0L960 0L1.4305E-05 0z" /></clipPath><clipPath id="49"><path d="M1.4305E-05 540L960 540L960 540L960 0L960 0L1.4305E-05 0z" /></clipPath><clipPath id="50"><path d="M1.4305E-05 540L960 540L960 540L960 0L960 0L1.4305E-05 0z" /></clipPath><clipPath id="51"><path d="M1.4305E-05 540L960 540L960 540L960 0L960 0L1.4305E-05 0z" /></clipPath><clipPath id="52"><path d="M1.4305E-05 540L960 540L960 540L960 0L960 0L1.4305E-05 0z" /></clipPath><clipPath id="53"><path d="M1.4305E-05 540L960 540L960 540L960 0L960 0L1.4305E-05 0z" /></clipPath><clipPath id="54"><path d="M1.4305E-05 540L960 540L960 540L960 0L960 0L1.4305E-05 0z" /></clipPath><clipPath id="55"><path d="M1.4305E-05 540L960 540L960 540L960 0L960 0L1.4305E-05 0z" /></clipPath><clipPath id="56"><path d="M1.4305E-05 540L960 540L960 540L960 0L960 0L1.4305E-05 0z" /></clipPath><clipPath id="57"><path d="M1.4305E-05 540L960 540L960 540L960 0L960 0L1.4305E-05 0z" /></clipPath><clipPath id="58"><path d="M1.4305E-05 540L960 540L960 540L960 0L960 0L1.4305E-05 0z" /></clipPath><clipPath id="59"><path d="M1.4305E-05 540L960 540L960 540L960 0L960 0L1.4305E-05 0z" /></clipPath><clipPath id="60"><path d="M656.64 272.4L935.64 272.4L935.64 272.4L935.64 213.96L935.64 213.96L656.64 213.96z" /></clipPath><clipPath id="61"><path d="M1.4305E-05 540L960 540L960 540L960 0L960 0L1.4305E-05 0z" /></clipPath><clipPath id="62"><path d="M1.4305E-05 540L960 540L960 540L960 0L960 0L1.4305E-05 0z" /></clipPath><clipPath id="63"><path d="M1.4305E-05 540L960 540L960 540L960 0L960 0L1.4305E-05 0z" /></clipPath><clipPath id="64"><path d="M1.4305E-05 540L960 540L960 540L960 0L960 0L1.4305E-05 0z" /></clipPath><clipPath id="65"><path d="M1.4305E-05 540L960 540L960 540L960 0L960 0L1.4305E-05 0z" /></clipPath><clipPath id="66"><path d="M1.4305E-05 540L960 540L960 540L960 0L960 0L1.4305E-05 0z" /></clipPath><clipPath id="67"><path d="M1.4305E-05 540L960 540L960 540L960 0L960 0L1.4305E-05 0z" /></clipPath><clipPath id="68"><path d="M655.8 391.2L938.76 391.2L938.76 391.2L938.76 331.68L938.76 331.68L655.8 331.68z" /></clipPath><clipPath id="69"><path d="M1.4305E-05 540L960 540L960 540L960 0L960 0L1.4305E-05 0z" /></clipPath><clipPath id="70"><path d="M1.4305E-05 540L960 540L960 540L960 0L960 0L1.4305E-05 0z" /></clipPath><clipPath id="71"><path d="M1.4305E-05 540L960 540L960 540L960 0L960 0L1.4305E-05 0z" /></clipPath><clipPath id="72"><path d="M1.4305E-05 540L960 540L960 540L960 0L960 0L1.4305E-05 0z" /></clipPath><clipPath id="73"><path d="M1.4305E-05 540L960 540L960 540L960 0L960 0L1.4305E-05 0z" /></clipPath><clipPath id="74"><path d="M1.4305E-05 540L960 540L960 540L960 0L960 0L1.4305E-05 0z" /></clipPath><clipPath id="75"><path d="M1.4305E-05 540L960 540L960 540L960 0L960 0L1.4305E-05 0z" /></clipPath><clipPath id="76"><path d="M1.4305E-05 540L960 540L960 540L960 0L960 0L1.4305E-05 0z" /></clipPath><clipPath id="77"><path d="M1.4305E-05 540L960 540L960 540L960 0L960 0L1.4305E-05 0z" /></clipPath><clipPath id="78"><path d="M1.4305E-05 540L960 540L960 540L960 0L960 0L1.4305E-05 0z" /></clipPath><clipPath id="79"><path d="M1.4305E-05 540L960 540L960 540L960 0L960 0L1.4305E-05 0z" /></clipPath><clipPath id="80"><path d="M319.08 515.4L381 515.4L381 515.4L381 452.88L381 452.88L319.08 452.88z" /></clipPath><clipPath id="81"><path d="M1.4305E-05 540L960 540L960 540L960 0L960 0L1.4305E-05 0z" /></clipPath><clipPath id="82"><path d="M1.4305E-05 540L960 540L960 540L960 0L960 0L1.4305E-05 0z" /></clipPath><clipPath id="83"><path d="M1.4305E-05 540L960 540L960 540L960 0L960 0L1.4305E-05 0z" /></clipPath><clipPath id="84"><path d="M1.4305E-05 540L960 540L960 540L960 0L960 0L1.4305E-05 0z" /></clipPath><clipPath id="85"><path d="M1.4305E-05 540L960 540L960 540L960 0L960 0L1.4305E-05 0z" /></clipPath><clipPath id="86"><path d="M1.4305E-05 540L960 540L960 540L960 0L960 0L1.4305E-05 0z" /></clipPath><clipPath id="87"><path d="M1.4305E-05 540L960 540L960 540L960 0L960 0L1.4305E-05 0z" /></clipPath><clipPath id="88"><path d="M589.32 514.92L650.76 514.92L650.76 514.92L650.76 454.44L650.76 454.44L589.32 454.44z" /></clipPath><clipPath id="89"><path d="M1.4305E-05 540L960 540L960 540L960 0L960 0L1.4305E-05 0z" /></clipPath><clipPath id="90"><path d="M1.4305E-05 540L960 540L960 540L960 0L960 0L1.4305E-05 0z" /></clipPath><clipPath id="91"><path d="M1.4305E-05 540L960 540L960 540L960 0L960 0L1.4305E-05 0z" /></clipPath><clipPath id="92"><path d="M1.4305E-05 540L960 540L960 540L960 0L960 0L1.4305E-05 0z" /></clipPath><clipPath id="93"><path d="M1.4305E-05 540L960 540L960 540L960 0L960 0L1.4305E-05 0z" /></clipPath><clipPath id="94"><path d="M1.4305E-05 540L960 540L960 540L960 0L960 0L1.4305E-05 0z" /></clipPath><clipPath id="95"><path d="M1.4305E-05 540L960 540L960 540L960 0L960 0L1.4305E-05 0z" /></clipPath><clipPath id="96"><path d="M1.4305E-05 540L960 540L960 540L960 0L960 0L1.4305E-05 0z" /></clipPath></defs><g transform="matrix(1.333333 0 0 1.333333 0 0)"><g><g clip-path="url(#1)"><g clip-path="url(#2)"><path transform="matrix(1 0 0 -1 0 540)" d="M0 6.1035E-05L960 6.1035E-05L960 6.1035E-05L960 540.0001L960 540.0001L0 540.0001z" stroke="none" fill="#FFFFFF" fill-rule="evenodd" /></g><g clip-path="url(#3)"></g><g clip-path="url(#4)"><g transform="matrix(0.6 0 0 0.6 34.8 59.04001)"><g transform="matrix(1 0 0 1 0 0)"><image x="0" y="0" xlink:href="img_144.png" width="277" height="109" /></g></g></g><g clip-path="url(#5)"><g transform="matrix(0.4010726 0 0 0.401194 19.2 169.08)"><g transform="matrix(1 0 0 1 0 0)"><image x="0" y="0" xlink:href="img_145.png" width="634" height="469" /></g></g></g><g clip-path="url(#6)"></g><g clip-path="url(#7)"></g><g clip-path="url(#8)"></g><g clip-path="url(#9)"></g><g clip-path="url(#10)"></g><g clip-path="url(#11)"></g><g clip-path="url(#12)"></g><g clip-path="url(#13)"></g><g clip-path="url(#14)"></g><g clip-path="url(#15)"></g><g clip-path="url(#16)"></g><g clip-path="url(#17)"></g><g clip-path="url(#18)"></g><g clip-path="url(#19)"></g><g clip-path="url(#20)"></g><g clip-path="url(#21)"></g><g clip-path="url(#22)"></g><g clip-path="url(#23)"></g><g clip-path="url(#24)"></g><g clip-path="url(#25)"><g transform="matrix(0.4548701 0 0 0.4554546 325.2 36.72)"><g transform="matrix(1 0 0 1 0 0)"><image x="0" y="0" xlink:href="img_146.png" width="616" height="132" /></g></g></g><g clip-path="url(#26)"></g><g clip-path="url(#27)"></g><g clip-path="url(#28)"></g><g clip-path="url(#29)"></g><g clip-path="url(#30)"></g><g clip-path="url(#31)"><g transform="matrix(0.4581107 0 0 0.4576744 325.8 156.96)"><g transform="matrix(1 0 0 1 0 0)"><image x="0" y="0" xlink:href="img_147.png" width="614" height="129" /></g></g></g><g clip-path="url(#32)"></g><g clip-path="url(#33)"></g><g clip-path="url(#34)"></g><g clip-path="url(#35)"></g><g clip-path="url(#36)"></g><g clip-path="url(#37)"></g><g clip-path="url(#38)"><g transform="matrix(0.4642623 0 0 0.4640625 320.76 296.4)"><g transform="matrix(1 0 0 1 0 0)"><image x="0" y="0" xlink:href="img_148.png" width="610" height="128" /></g></g></g><g clip-path="url(#39)"></g><g clip-path="url(#40)"></g><g clip-path="url(#41)"></g><g clip-path="url(#42)"></g><g clip-path="url(#43)"></g><g clip-path="url(#44)"></g><g clip-path="url(#45)"></g><g clip-path="url(#46)"></g><g clip-path="url(#47)"><g transform="matrix(0.4553746 0 0 0.4544882 654.36 35.04001)"><g transform="matrix(1 0 0 1 0 0)"><image x="0" y="0" xlink:href="img_149.png" width="614" height="127" /></g></g></g><g clip-path="url(#48)"></g><g clip-path="url(#49)"></g><g clip-path="url(#50)"></g><g clip-path="url(#51)"></g><g clip-path="url(#52)"></g><g clip-path="url(#53)"></g><g clip-path="url(#54)"></g><g clip-path="url(#55)"></g><g clip-path="url(#56)"></g><g clip-path="url(#57)"></g><g clip-path="url(#58)"></g><g clip-path="url(#59)"></g><g clip-path="url(#60)"><g transform="matrix(0.4529221 0 0 0.4530233 656.64 213.96)"><g transform="matrix(1 0 0 1 0 0)"><image x="0" y="0" xlink:href="img_150.png" width="616" height="129" /></g></g></g><g clip-path="url(#61)"></g><g clip-path="url(#62)"></g><g clip-path="url(#63)"></g><g clip-path="url(#64)"></g><g clip-path="url(#65)"></g><g clip-path="url(#66)"></g><g clip-path="url(#67)"></g><g clip-path="url(#68)"><g transform="matrix(0.4608469 0 0 0.4613954 655.8 331.68)"><g transform="matrix(1 0 0 1 0 0)"><image x="0" y="0" xlink:href="img_151.png" width="614" height="129" /></g></g></g><g clip-path="url(#69)"></g><g clip-path="url(#70)"></g><g clip-path="url(#71)"></g><g clip-path="url(#72)"></g><g clip-path="url(#73)"></g><g clip-path="url(#74)"></g><g clip-path="url(#75)"></g><g clip-path="url(#76)"></g><g clip-path="url(#77)"></g><g clip-path="url(#78)"></g><g clip-path="url(#79)"></g><g clip-path="url(#80)"><g transform="matrix(0.344 0 0 0.3435165 319.08 452.88)"><g transform="matrix(1 0 0 1 0 0)"><image x="0" y="0" xlink:href="img_152.png" width="180" height="182" /></g></g></g><g clip-path="url(#81)"></g><g clip-path="url(#82)"></g><g clip-path="url(#83)"></g><g clip-path="url(#84)"></g><g clip-path="url(#85)"></g><g clip-path="url(#86)"></g><g clip-path="url(#87)"></g><g clip-path="url(#88)"><g transform="matrix(0.3394475 0 0 0.3397753 589.32 454.44)"><g transform="matrix(1 0 0 1 0 0)"><image x="0" y="0" xlink:href="img_153.png" width="181" height="178" /></g></g></g><g clip-path="url(#89)"></g><g clip-path="url(#90)"></g><g clip-path="url(#91)"></g><g clip-path="url(#92)"></g><g clip-path="url(#93)"></g><g clip-path="url(#94)"></g><g clip-path="url(#95)"></g><g clip-path="url(#96)"></g></g></g></g></svg>