<svg xmlns="http://www.w3.org/2000/svg" xmlns:xlink="http://www.w3.org/1999/xlink" id="body_6" preserveAspectRatio="xMinYMin meet" viewBox="0 0 1280 720"><defs><clipPath id="1"><path d="M0 540L0 0L0 0L960 0L960 0L960 540L960 540L0 540z" /></clipPath><clipPath id="2"><path d="M0 539.9999L960 539.9999L960 539.9999L960 -0.0001220703L960 -0.0001220703L0 -0.0001220703z" /></clipPath><clipPath id="3"><path d="M1.4305E-05 540L960 540L960 540L960 0L960 0L1.4305E-05 0z" /></clipPath><clipPath id="4"><path d="M1.4305E-05 540L960 540L960 540L960 0L960 0L1.4305E-05 0z" /></clipPath><clipPath id="5"><path d="M1.4305E-05 540L960 540L960 540L960 0L960 0L1.4305E-05 0z" /></clipPath><clipPath id="6"><path d="M1.4305E-05 540L960 540L960 540L960 0L960 0L1.4305E-05 0z" /></clipPath><clipPath id="7"><path d="M1.4305E-05 540L960 540L960 540L960 0L960 0L1.4305E-05 0z" /></clipPath><clipPath id="8"><path d="M1.4305E-05 540L960 540L960 540L960 0L960 0L1.4305E-05 0z" /></clipPath><clipPath id="9"><path d="M1.4305E-05 540L960 540L960 540L960 0L960 0L1.4305E-05 0z" /></clipPath><clipPath id="10"><path d="M1.4305E-05 540L960 540L960 540L960 0L960 0L1.4305E-05 0z" /></clipPath><clipPath id="11"><path d="M1.4305E-05 540L960 540L960 540L960 0L960 0L1.4305E-05 0z" /></clipPath><clipPath id="12"><path d="M1.4305E-05 540L960 540L960 540L960 0L960 0L1.4305E-05 0z" /></clipPath><clipPath id="13"><path d="M1.4305E-05 540L960 540L960 540L960 0L960 0L1.4305E-05 0z" /></clipPath><clipPath id="14"><path d="M1.4305E-05 540L960 540L960 540L960 0L960 0L1.4305E-05 0z" /></clipPath><clipPath id="15"><path d="M1.4305E-05 540L960 540L960 540L960 0L960 0L1.4305E-05 0z" /></clipPath><clipPath id="16"><path d="M1.4305E-05 540L960 540L960 540L960 0L960 0L1.4305E-05 0z" /></clipPath><clipPath id="17"><path d="M1.4305E-05 540L960 540L960 540L960 0L960 0L1.4305E-05 0z" /></clipPath><clipPath id="18"><path d="M698.04 453.96L754.08 453.96L754.08 453.96L754.08 397.8L754.08 397.8L698.04 397.8z" /></clipPath><clipPath id="19"><path d="M358.32 133.8L414.36 133.8L414.36 133.8L414.36 77.63998L414.36 77.63998L358.32 77.63998z" /></clipPath><clipPath id="20"><path d="M581.16 253.2L637.56 253.2L637.56 253.2L637.56 197.4L637.56 197.4L581.16 197.4z" /></clipPath><clipPath id="21"><path d="M414.24 133.8L470.28 133.8L470.28 133.8L470.28 77.63998L470.28 77.63998L414.24 77.63998z" /></clipPath><clipPath id="22"><path d="M82.68 454.08L137.64 454.08L137.64 454.08L137.64 399.12L137.64 399.12L82.68 399.12z" /></clipPath><clipPath id="23"><path d="M470.16 133.8L526.2 133.8L526.2 133.8L526.2 77.63998L526.2 77.63998L470.16 77.63998z" /></clipPath><clipPath id="24"><path d="M464.52 451.2L520.68 451.2L520.68 451.2L520.68 395.04L520.68 395.04L464.52 395.04z" /></clipPath><clipPath id="25"><path d="M425.28 324L481.56 324L481.56 324L481.56 267.72L481.56 267.72L425.28 267.72z" /></clipPath><clipPath id="26"><path d="M637.8 254.04L694.08 254.04L694.08 254.04L694.08 197.88L694.08 197.88L637.8 197.88z" /></clipPath><clipPath id="27"><path d="M138 454.68L194.28 454.68L194.28 454.68L194.28 398.52L194.28 398.52L138 398.52z" /></clipPath><clipPath id="28"><path d="M754.56 453.96L810.72 453.96L810.72 453.96L810.72 397.8L810.72 397.8L754.56 397.8z" /></clipPath><clipPath id="29"><path d="M407.88 451.2L464.04 451.2L464.04 451.2L464.04 395.04L464.04 395.04L407.88 395.04z" /></clipPath><clipPath id="30"><path d="M193.92 454.68L250.2 454.68L250.2 454.68L250.2 398.52L250.2 398.52L193.92 398.52z" /></clipPath><clipPath id="31"><path d="M249.84 454.68L306.12 454.68L306.12 454.68L306.12 398.52L306.12 398.52L249.84 398.52z" /></clipPath><clipPath id="32"><path d="M1.4305E-05 540L960 540L960 540L960 0L960 0L1.4305E-05 0z" /></clipPath><clipPath id="33"><path d="M1.4305E-05 540L960 540L960 540L960 0L960 0L1.4305E-05 0z" /></clipPath><clipPath id="34"><path d="M1.4305E-05 540L960 540L960 540L960 0L960 0L1.4305E-05 0z" /></clipPath><clipPath id="35"><path d="M1.4305E-05 540L960 540L960 540L960 0L960 0L1.4305E-05 0z" /></clipPath><clipPath id="36"><path d="M1.4305E-05 540L960 540L960 540L960 0L960 0L1.4305E-05 0z" /></clipPath><clipPath id="37"><path d="M1.4305E-05 540L960 540L960 540L960 0L960 0L1.4305E-05 0z" /></clipPath><clipPath id="38"><path d="M1.4305E-05 540L960 540L960 540L960 0L960 0L1.4305E-05 0z" /></clipPath><clipPath id="39"><path d="M1.4305E-05 540L960 540L960 540L960 0L960 0L1.4305E-05 0z" /></clipPath><clipPath id="40"><path d="M1.4305E-05 540L960 540L960 540L960 0L960 0L1.4305E-05 0z" /></clipPath><clipPath id="41"><path d="M525.84 133.2L581.64 133.2L581.64 133.2L581.64 77.40002L581.64 77.40002L525.84 77.40002z" /></clipPath><clipPath id="42"><path d="M1.4305E-05 540L960 540L960 540L960 0L960 0L1.4305E-05 0z" /></clipPath><clipPath id="43"><path d="M810.36 454.08L866.76 454.08L866.76 454.08L866.76 397.56L866.76 397.56L810.36 397.56z" /></clipPath><clipPath id="44"><path d="M1.4305E-05 540L960 540L960 540L960 0L960 0L1.4305E-05 0z" /></clipPath></defs><g transform="matrix(1.333333 0 0 1.333333 0 0)"><g><g clip-path="url(#1)"><g clip-path="url(#2)"><path transform="matrix(1 0 0 -1 0 540)" d="M0 6.1035E-05L960 6.1035E-05L960 6.1035E-05L960 540.0001L960 540.0001L0 540.0001z" stroke="none" fill="#FFFFFF" fill-rule="evenodd" /></g><g clip-path="url(#3)"></g><g clip-path="url(#4)"></g><g clip-path="url(#5)"></g><g clip-path="url(#6)"></g><g clip-path="url(#7)"></g><g clip-path="url(#8)"></g><g clip-path="url(#9)"></g><g clip-path="url(#10)"></g><path transform="matrix(1 0 0 -1 0 540)" d="M676.24 160.68L682.24 157.68L682.24 157.68L676.24 154.68zM253.44 154.68L247.44 157.68L247.44 157.68L253.44 160.68zM252.44 158.18L677.24 158.18L677.24 158.18L677.24 157.18L677.24 157.18L252.44 157.18z" stroke="none" fill="#000000" fill-rule="winding" /><path transform="matrix(1 0 0 -1 0 540)" d="M701.98 179.9L704.66 173.75L704.66 173.75L698.13 175.29zM492.04 347.25L489.36 353.4L489.36 353.4L495.89 351.86zM493.52 350.58L701.14 177.34L701.14 177.34L700.5 176.57L700.5 176.57L492.88 349.81z" stroke="none" fill="#000000" fill-rule="winding" /><path transform="matrix(1 0 0 -1 0 540)" d="M227.84 181.96L225.12 175.83L225.12 175.83L231.66 177.33zM437 346.55L439.72 352.68L439.72 352.68L433.18 351.18zM435.54 349.89L228.66 179.39L228.66 179.39L229.3 178.62L229.3 178.62L436.18 349.11z" stroke="none" fill="#000000" fill-rule="winding" /><g clip-path="url(#11)"></g><g clip-path="url(#12)"></g><g clip-path="url(#13)"></g><g clip-path="url(#14)"></g><g clip-path="url(#15)"></g><g clip-path="url(#16)"></g><g clip-path="url(#17)"></g><g clip-path="url(#18)"><g transform="matrix(0.3736 0 0 0.3744 698.04 397.8)"><g transform="matrix(1 0 0 1 0 0)"><image x="0" y="0" xlink:href="img_45.png" width="150" height="150" /></g></g></g><g clip-path="url(#19)"><g transform="matrix(0.3736 0 0 0.3744 358.32 77.63998)"><g transform="matrix(1 0 0 1 0 0)"><image x="0" y="0" xlink:href="img_46.png" width="150" height="150" /></g></g></g><g clip-path="url(#20)"><g transform="matrix(0.4208955 0 0 0.4195489 581.16 197.4)"><g transform="matrix(1 0 0 1 0 0)"><image x="0" y="0" xlink:href="img_47.png" width="134" height="133" /></g></g></g><g clip-path="url(#21)"><g transform="matrix(0.3736 0 0 0.3744 414.24 77.63998)"><g transform="matrix(1 0 0 1 0 0)"><image x="0" y="0" xlink:href="img_48.png" width="150" height="150" /></g></g></g><g clip-path="url(#22)"><g transform="matrix(0.3592157 0 0 0.3592157 82.68 399.12)"><g transform="matrix(1 0 0 1 0 0)"><image x="0" y="0" xlink:href="img_49.png" width="153" height="153" /></g></g></g><g clip-path="url(#23)"><g transform="matrix(0.3736 0 0 0.3744 470.16 77.63998)"><g transform="matrix(1 0 0 1 0 0)"><image x="0" y="0" xlink:href="img_50.png" width="150" height="150" /></g></g></g><g clip-path="url(#24)"><g transform="matrix(0.3744 0 0 0.3744 464.52 395.04)"><g transform="matrix(1 0 0 1 0 0)"><image x="0" y="0" xlink:href="img_51.png" width="150" height="150" /></g></g></g><g clip-path="url(#25)"><g transform="matrix(0.3752 0 0 0.3752 425.28 267.72)"><g transform="matrix(1 0 0 1 0 0)"><image x="0" y="0" xlink:href="img_52.png" width="150" height="150" /></g></g></g><g clip-path="url(#26)"><g transform="matrix(0.3752 0 0 0.3744 637.8 197.88)"><g transform="matrix(1 0 0 1 0 0)"><image x="0" y="0" xlink:href="img_53.png" width="150" height="150" /></g></g></g><g clip-path="url(#27)"><g transform="matrix(0.3752 0 0 0.3744 138 398.52)"><g transform="matrix(1 0 0 1 0 0)"><image x="0" y="0" xlink:href="img_54.png" width="150" height="150" /></g></g></g><g clip-path="url(#28)"><g transform="matrix(0.3744 0 0 0.3744 754.56 397.8)"><g transform="matrix(1 0 0 1 0 0)"><image x="0" y="0" xlink:href="img_55.png" width="150" height="150" /></g></g></g><g clip-path="url(#29)"><g transform="matrix(0.3744 0 0 0.3744 407.88 395.04)"><g transform="matrix(1 0 0 1 0 0)"><image x="0" y="0" xlink:href="img_56.png" width="150" height="150" /></g></g></g><g clip-path="url(#30)"><g transform="matrix(0.3752 0 0 0.3744 193.92 398.52)"><g transform="matrix(1 0 0 1 0 0)"><image x="0" y="0" xlink:href="img_57.png" width="150" height="150" /></g></g></g><g clip-path="url(#31)"><g transform="matrix(0.3752 0 0 0.3744 249.84 398.52)"><g transform="matrix(1 0 0 1 0 0)"><image x="0" y="0" xlink:href="img_58.png" width="150" height="150" /></g></g></g><g clip-path="url(#32)"></g><g clip-path="url(#33)"></g><g clip-path="url(#34)"></g><g clip-path="url(#35)"></g><g clip-path="url(#36)"></g><g clip-path="url(#37)"></g><g clip-path="url(#38)"></g><g clip-path="url(#39)"></g><g clip-path="url(#40)"></g><g clip-path="url(#41)"><g transform="matrix(0.372 0 0 0.372 525.84 77.40002)"><g transform="matrix(1 0 0 1 0 0)"><image x="0" y="0" xlink:href="img_59.png" width="150" height="150" /></g></g></g><g clip-path="url(#42)"></g><g clip-path="url(#43)"><g transform="matrix(0.376 0 0 0.3768 810.36 397.56)"><g transform="matrix(1 0 0 1 0 0)"><image x="0" y="0" xlink:href="img_60.png" width="150" height="150" /></g></g></g><g clip-path="url(#44)"></g></g></g></g></svg>