<svg xmlns="http://www.w3.org/2000/svg" xmlns:xlink="http://www.w3.org/1999/xlink" id="body_15" preserveAspectRatio="xMinYMin meet" viewBox="0 0 1280 720"><defs><clipPath id="1"><path d="M0 540L0 0L0 0L960 0L960 0L960 540L960 540L0 540z" /></clipPath><clipPath id="2"><path d="M0 539.9999L960 539.9999L960 539.9999L960 -0.0001220703L960 -0.0001220703L0 -0.0001220703z" /></clipPath><clipPath id="3"><path d="M1.4305E-05 540L960 540L960 540L960 0L960 0L1.4305E-05 0z" /></clipPath><clipPath id="4"><path d="M1.4305E-05 540L960 540L960 540L960 0L960 0L1.4305E-05 0z" /></clipPath><clipPath id="5"><path d="M1.4305E-05 540L960 540L960 540L960 0L960 0L1.4305E-05 0z" /></clipPath><clipPath id="6"><path d="M1.4305E-05 540L960 540L960 540L960 0L960 0L1.4305E-05 0z" /></clipPath><clipPath id="7"><path d="M1.4305E-05 540L960 540L960 540L960 0L960 0L1.4305E-05 0z" /></clipPath><clipPath id="8"><path d="M1.4305E-05 540L960 540L960 540L960 0L960 0L1.4305E-05 0z" /></clipPath><clipPath id="9"><path d="M1.4305E-05 540L960 540L960 540L960 0L960 0L1.4305E-05 0z" /></clipPath><clipPath id="10"><path d="M1.4305E-05 540L960 540L960 540L960 0L960 0L1.4305E-05 0z" /></clipPath><clipPath id="11"><path d="M1.4305E-05 540L960 540L960 540L960 0L960 0L1.4305E-05 0z" /></clipPath><clipPath id="12"><path d="M1.4305E-05 540L960 540L960 540L960 0L960 0L1.4305E-05 0z" /></clipPath><clipPath id="13"><path d="M1.4305E-05 540L960 540L960 540L960 0L960 0L1.4305E-05 0z" /></clipPath><clipPath id="14"><path d="M1.4305E-05 540L960 540L960 540L960 0L960 0L1.4305E-05 0z" /></clipPath><clipPath id="15"><path d="M1.4305E-05 540L960 540L960 540L960 0L960 0L1.4305E-05 0z" /></clipPath><clipPath id="16"><path d="M1.4305E-05 540L960 540L960 540L960 0L960 0L1.4305E-05 0z" /></clipPath><clipPath id="17"><path d="M1.4305E-05 540L960 540L960 540L960 0L960 0L1.4305E-05 0z" /></clipPath><clipPath id="18"><path d="M1.4305E-05 540L960 540L960 540L960 0L960 0L1.4305E-05 0z" /></clipPath><clipPath id="19"><path d="M1.4305E-05 540L960 540L960 540L960 0L960 0L1.4305E-05 0z" /></clipPath><clipPath id="20"><path d="M1.4305E-05 540L960 540L960 540L960 0L960 0L1.4305E-05 0z" /></clipPath><clipPath id="21"><path d="M1.4305E-05 540L960 540L960 540L960 0L960 0L1.4305E-05 0z" /></clipPath><clipPath id="22"><path d="M1.4305E-05 540L960 540L960 540L960 0L960 0L1.4305E-05 0z" /></clipPath><clipPath id="23"><path d="M1.4305E-05 540L960 540L960 540L960 0L960 0L1.4305E-05 0z" /></clipPath><clipPath id="24"><path d="M1.4305E-05 540L960 540L960 540L960 0L960 0L1.4305E-05 0z" /></clipPath><clipPath id="25"><path d="M1.4305E-05 540L960 540L960 540L960 0L960 0L1.4305E-05 0z" /></clipPath><clipPath id="26"><path d="M1.4305E-05 540L960 540L960 540L960 0L960 0L1.4305E-05 0z" /></clipPath><clipPath id="27"><path d="M1.4305E-05 540L960 540L960 540L960 0L960 0L1.4305E-05 0z" /></clipPath><clipPath id="28"><path d="M1.4305E-05 540L960 540L960 540L960 0L960 0L1.4305E-05 0z" /></clipPath><clipPath id="29"><path d="M1.4305E-05 540L960 540L960 540L960 0L960 0L1.4305E-05 0z" /></clipPath><clipPath id="30"><path d="M1.4305E-05 540L960 540L960 540L960 0L960 0L1.4305E-05 0z" /></clipPath><clipPath id="31"><path d="M1.4305E-05 540L960 540L960 540L960 0L960 0L1.4305E-05 0z" /></clipPath><clipPath id="32"><path d="M1.4305E-05 540L960 540L960 540L960 0L960 0L1.4305E-05 0z" /></clipPath><clipPath id="33"><path d="M1.4305E-05 540L960 540L960 540L960 0L960 0L1.4305E-05 0z" /></clipPath><clipPath id="34"><path d="M1.4305E-05 540L960 540L960 540L960 0L960 0L1.4305E-05 0z" /></clipPath><clipPath id="35"><path d="M1.4305E-05 540L960 540L960 540L960 0L960 0L1.4305E-05 0z" /></clipPath><clipPath id="36"><path d="M79.68 293.64L137.4 293.64L137.4 293.64L137.4 229.56L137.4 229.56L79.68 229.56z" /></clipPath><clipPath id="37"><path d="M169.92 292.92L230.4 292.92L230.4 292.92L230.4 232.92L230.4 232.92L169.92 232.92z" /></clipPath><clipPath id="38"><path d="M1.4305E-05 540L960 540L960 540L960 0L960 0L1.4305E-05 0z" /></clipPath><clipPath id="39"><path d="M73.44 489.36L131.16 489.36L131.16 489.36L131.16 425.28L131.16 425.28L73.44 425.28z" /></clipPath><clipPath id="40"><path d="M164.4 489.12L226.44 489.12L226.44 489.12L226.44 428.52L226.44 428.52L164.4 428.52z" /></clipPath><clipPath id="41"><path d="M1.4305E-05 540L960 540L960 540L960 0L960 0L1.4305E-05 0z" /></clipPath><clipPath id="42"><path d="M409.68 273.96L463.8 273.96L463.8 273.96L463.8 219.96L463.8 219.96L409.68 219.96z" /></clipPath><clipPath id="43"><path d="M463.68 274.32L518.64 274.32L518.64 274.32L518.64 219.96L518.64 219.96L463.68 219.96z" /></clipPath><clipPath id="44"><path d="M518.16 274.68L573.48 274.68L573.48 274.68L573.48 219.36L573.48 219.36L518.16 219.36z" /></clipPath><clipPath id="45"><path d="M1.4305E-05 540L960 540L960 540L960 0L960 0L1.4305E-05 0z" /></clipPath><clipPath id="46"><path d="M408.96 366.84L469.56 366.84L469.56 366.84L469.56 306.96L469.56 306.96L408.96 306.96z" /></clipPath><clipPath id="47"><path d="M469.56 366.84L530.4 366.84L530.4 366.84L530.4 306.72L530.4 306.72L469.56 306.72z" /></clipPath><clipPath id="48"><path d="M1.4305E-05 540L960 540L960 540L960 0L960 0L1.4305E-05 0z" /></clipPath><clipPath id="49"><path d="M733.2 251.28L788.52 251.28L788.52 251.28L788.52 196.68L788.52 196.68L733.2 196.68z" /></clipPath><clipPath id="50"><path d="M1.4305E-05 540L960 540L960 540L960 0L960 0L1.4305E-05 0z" /></clipPath><clipPath id="51"><path d="M1.4305E-05 540L960 540L960 540L960 0L960 0L1.4305E-05 0z" /></clipPath><clipPath id="52"><path d="M1.4305E-05 540L960 540L960 540L960 0L960 0L1.4305E-05 0z" /></clipPath><clipPath id="53"><path d="M732.48 363.48L787.56 363.48L787.56 363.48L787.56 309.12L787.56 309.12L732.48 309.12z" /></clipPath><clipPath id="54"><path d="M1.4305E-05 540L960 540L960 540L960 0L960 0L1.4305E-05 0z" /></clipPath><clipPath id="55"><path d="M1.4305E-05 540L960 540L960 540L960 0L960 0L1.4305E-05 0z" /></clipPath><clipPath id="56"><path d="M731.52 480.24L787.08 480.24L787.08 480.24L787.08 425.04L787.08 425.04L731.52 425.04z" /></clipPath><clipPath id="57"><path d="M1.4305E-05 540L960 540L960 540L960 0L960 0L1.4305E-05 0z" /></clipPath><clipPath id="58"><path d="M1.4305E-05 540L960 540L960 540L960 0L960 0L1.4305E-05 0z" /></clipPath><clipPath id="59"><path d="M1.4305E-05 540L960 540L960 540L960 0L960 0L1.4305E-05 0z" /></clipPath><clipPath id="60"><path d="M1.4305E-05 540L960 540L960 540L960 0L960 0L1.4305E-05 0z" /></clipPath><clipPath id="61"><path d="M0 0L960 0L960 0L960 540L960 540L0 539.9999" /></clipPath><clipPath id="62"><path d="M0 0L960 0L960 0L960 540L960 540L0 539.9999" /></clipPath><clipPath id="63"><path d="M-3.0518E-05 0L960 0L960 0L960 539.9999L960 539.9999L-3.0518E-05 539.9999" /></clipPath><clipPath id="64"><path d="M-3.0518E-05 0L960 0L960 0L960 539.9999L960 539.9999L-3.0518E-05 539.9999" /></clipPath><clipPath id="65"><path d="M1.4305E-05 540L960 540L960 540L960 0L960 0L1.4305E-05 0z" /></clipPath><clipPath id="66"><path d="M1.4305E-05 540L960 540L960 540L960 0L960 0L1.4305E-05 0z" /></clipPath><clipPath id="67"><path d="M1.4305E-05 540L960 540L960 540L960 0L960 0L1.4305E-05 0z" /></clipPath><clipPath id="68"><path d="M531 366.84L591 366.84L591 366.84L591 306.84L591 306.84L531 306.84z" /></clipPath><clipPath id="69"><path d="M1.4305E-05 540L960 540L960 540L960 0L960 0L1.4305E-05 0z" /></clipPath></defs><g transform="matrix(1.333333 0 0 1.333333 0 0)"><g><g clip-path="url(#1)"><g clip-path="url(#2)"><path transform="matrix(1 0 0 -1 0 540)" d="M0 6.1035E-05L960 6.1035E-05L960 6.1035E-05L960 540.0001L960 540.0001L0 540.0001z" stroke="none" fill="#FFFFFF" fill-rule="evenodd" /></g><g clip-path="url(#3)"></g><g clip-path="url(#4)"></g><path transform="matrix(1 0 0 -1 0 540)" d="M91.78 483.53L129.06 483.53L129.06 483.53L166.34 483.53L166.34 483.53L203.62 483.53L203.62 483.53L203.62 482.09L203.62 482.09L166.34 482.09L166.34 482.09L129.06 482.09L129.06 482.09L91.78 482.09z" stroke="none" fill="#000000" fill-rule="evenodd" /><g clip-path="url(#5)"></g><g clip-path="url(#6)"></g><path transform="matrix(1 0 0 -1 0 540)" d="M378.56 484.06L414.56 484.06L414.56 484.06L414.56 484.9L414.56 484.9L378.56 484.9z" stroke="none" fill="#000000" fill-rule="evenodd" /><g clip-path="url(#7)"></g><g clip-path="url(#8)"></g><path transform="matrix(1 0 0 -1 0 540)" d="M423.56 484.06L477.56 484.06L477.56 484.06L477.56 484.9L477.56 484.9L423.56 484.9z" stroke="none" fill="#000000" fill-rule="evenodd" /><g clip-path="url(#9)"></g><g clip-path="url(#10)"></g><path transform="matrix(1 0 0 -1 0 540)" d="M486.56 484.06L522.56 484.06L522.56 484.06L522.56 484.9L522.56 484.9L486.56 484.9z" stroke="none" fill="#000000" fill-rule="evenodd" /><g clip-path="url(#11)"></g><path transform="matrix(1 0 0 -1 0 540)" d="M62.88 152.76C 58.075 152.76 54.18 153.41 54.18 154.21L54.18 154.21L54.18 247.43C 54.18 248.23 50.285 248.88 45.48 248.88C 50.285 248.88 54.18 249.53 54.18 250.33L54.18 250.33L54.18 343.55C 54.18 344.35 58.075 345 62.88 345" stroke="#000000" stroke-width="0.48" fill="none" /><g clip-path="url(#12)"></g><g clip-path="url(#13)"></g><g clip-path="url(#14)"></g><g clip-path="url(#15)"></g><path transform="matrix(1 0 0 -1 0 540)" d="M393.6 105.24C 388.36 105.24 384.12 105.95 384.12 106.82L384.12 106.82L384.12 227.02C 384.12 227.89 379.88 228.6 374.64 228.6C 379.88 228.6 384.12 229.31 384.12 230.18L384.12 230.18L384.12 350.38C 384.12 351.25 388.36 351.96 393.6 351.96" stroke="#000000" stroke-width="0.48" fill="none" /><g clip-path="url(#16)"></g><g clip-path="url(#17)"></g><g clip-path="url(#18)"></g><g clip-path="url(#19)"></g><g clip-path="url(#20)"></g><g clip-path="url(#21)"></g><path transform="matrix(1 0 0 -1 0 540)" d="M463.84 59.335L499.84 59.335L499.84 59.335L535.84 59.335L535.84 59.335L535.84 58.495L535.84 58.495L499.84 58.495L499.84 58.495L463.84 58.495z" stroke="none" fill="#000000" fill-rule="evenodd" /><g clip-path="url(#22)"></g><path transform="matrix(1 0 0 -1 0 540)" d="M714.36 91.2C 706.64 91.2 700.38 92.243 700.38 93.53L700.38 93.53L700.38 222.07C 700.38 223.36 694.12 224.4 686.4 224.4C 694.12 224.4 700.38 225.44 700.38 226.73L700.38 226.73L700.38 355.27C 700.38 356.56 706.64 357.6 714.36 357.6" stroke="#000000" stroke-width="0.48" fill="none" /><g clip-path="url(#23)"></g><g clip-path="url(#24)"></g><g clip-path="url(#25)"></g><g clip-path="url(#26)"></g><g clip-path="url(#27)"></g><g clip-path="url(#28)"></g><g clip-path="url(#29)"></g><g clip-path="url(#30)"></g><g clip-path="url(#31)"></g><g clip-path="url(#32)"></g><g clip-path="url(#33)"></g><g clip-path="url(#34)"></g><g clip-path="url(#35)"></g><g clip-path="url(#36)"><g transform="matrix(0.3317241 0 0 0.3320207 79.68 229.56)"><g transform="matrix(1 0 0 1 0 0)"><image x="0" y="0" xlink:href="img_172.png" width="174" height="193" /></g></g></g><g clip-path="url(#37)"><g transform="matrix(0.4762205 0 0 0.4761905 169.92 232.92)"><g transform="matrix(1 0 0 1 0 0)"><image x="0" y="0" xlink:href="img_173.png" width="127" height="126" /></g></g></g><path transform="matrix(1 0 0 -1 0 540)" d="M146.76 288.21L155.16 288.21L155.16 288.21L155.16 297.48L155.16 297.48L163.56 278.94L163.56 278.94L155.16 260.4L155.16 260.4L155.16 269.67L155.16 269.67L146.76 269.67z" stroke="none" fill="#4472C4" fill-rule="evenodd" /><path transform="matrix(1 0 0 -1 0 540)" d="M146.76 288.21L155.16 288.21L155.16 288.21L155.16 297.48L155.16 297.48L163.56 278.94L163.56 278.94L155.16 260.4L155.16 260.4L155.16 269.67L155.16 269.67L146.76 269.67z" stroke="#2F528F" stroke-width="0.96" fill="none" /><g clip-path="url(#38)"></g><g clip-path="url(#39)"><g transform="matrix(0.3317241 0 0 0.3320207 73.44 425.28)"><g transform="matrix(1 0 0 1 0 0)"><image x="0" y="0" xlink:href="img_172.png" width="174" height="193" /></g></g></g><path transform="matrix(1 0 0 -1 0 540)" d="M140.52 92.49L148.92 92.49L148.92 92.49L148.92 101.76L148.92 101.76L157.32 83.22L157.32 83.22L148.92 64.68L148.92 64.68L148.92 73.95L148.92 73.95L140.52 73.95z" stroke="none" fill="#4472C4" fill-rule="evenodd" /><path transform="matrix(1 0 0 -1 0 540)" d="M140.52 92.49L148.92 92.49L148.92 92.49L148.92 101.76L148.92 101.76L157.32 83.22L157.32 83.22L148.92 64.68L148.92 64.68L148.92 73.95L148.92 73.95L140.52 73.95z" stroke="#2F528F" stroke-width="0.96" fill="none" /><g clip-path="url(#40)"><g transform="matrix(0.4885039 0 0 0.4887097 164.4 428.52)"><g transform="matrix(1 0 0 1 0 0)"><image x="0" y="0" xlink:href="img_174.png" width="127" height="124" /></g></g></g><g clip-path="url(#41)"></g><g clip-path="url(#42)"><g transform="matrix(0.3656757 0 0 0.3648649 409.68 219.96)"><g transform="matrix(1 0 0 1 0 0)"><image x="0" y="0" xlink:href="img_175.png" width="148" height="148" /></g></g></g><g clip-path="url(#43)"><g transform="matrix(0.3664 0 0 0.3672973 463.68 219.96)"><g transform="matrix(1 0 0 1 0 0)"><image x="0" y="0" xlink:href="img_176.png" width="150" height="148" /></g></g></g><g clip-path="url(#44)"><g transform="matrix(0.3688 0 0 0.3688 518.16 219.36)"><g transform="matrix(1 0 0 1 0 0)"><image x="0" y="0" xlink:href="img_177.png" width="150" height="150" /></g></g></g><g clip-path="url(#45)"></g><g clip-path="url(#46)"><g transform="matrix(0.404 0 0 0.4045946 408.96 306.96)"><g transform="matrix(1 0 0 1 0 0)"><image x="0" y="0" xlink:href="img_178.png" width="150" height="148" /></g></g></g><g clip-path="url(#47)"><g transform="matrix(0.4029139 0 0 0.4034899 469.56 306.72)"><g transform="matrix(1 0 0 1 0 0)"><image x="0" y="0" xlink:href="img_179.png" width="151" height="149" /></g></g></g><g clip-path="url(#48)"></g><g clip-path="url(#49)"><g transform="matrix(0.3663576 0 0 0.3664429 733.2 196.68)"><g transform="matrix(1 0 0 1 0 0)"><image x="0" y="0" xlink:href="img_180.png" width="151" height="149" /></g></g></g><g clip-path="url(#50)"></g><g clip-path="url(#51)"></g><g clip-path="url(#52)"></g><g clip-path="url(#53)"><g transform="matrix(0.3647682 0 0 0.3648322 732.48 309.12)"><g transform="matrix(1 0 0 1 0 0)"><image x="0" y="0" xlink:href="img_181.png" width="151" height="149" /></g></g></g><g clip-path="url(#54)"></g><g clip-path="url(#55)"></g><g clip-path="url(#56)"><g transform="matrix(0.3754054 0 0 0.3755102 731.52 425.04)"><g transform="matrix(1 0 0 1 0 0)"><image x="0" y="0" xlink:href="img_168.png" width="148" height="147" /></g></g></g><g clip-path="url(#57)"></g><g clip-path="url(#58)"></g><g clip-path="url(#59)"></g><g clip-path="url(#60)"></g><g clip-path="url(#61)"><path transform="matrix(1 0 0 -1 0 540)" d="M676.32 181.8L656.04 222.3L656.04 222.3L676.32 262.8z" stroke="none" fill="#4472C4" fill-rule="evenodd" /></g><g clip-path="url(#62)"><path transform="matrix(1 0 0 -1 0 540)" d="M676.32 181.8L656.04 222.3L656.04 222.3L676.32 262.8z" stroke="#2F528F" stroke-width="0.96" fill="none" /></g><g clip-path="url(#63)"><path transform="matrix(1 0 0 -1 0 540)" d="M361.08 184.56L340.8 225.12L340.8 225.12L361.08 265.68z" stroke="none" fill="#4472C4" fill-rule="evenodd" /></g><g clip-path="url(#64)"><path transform="matrix(1 0 0 -1 0 540)" d="M361.08 184.56L340.8 225.12L340.8 225.12L361.08 265.68z" stroke="#2F528F" stroke-width="0.96" fill="none" /></g><g clip-path="url(#65)"></g><g clip-path="url(#66)"></g><g clip-path="url(#67)"></g><g clip-path="url(#68)"><g transform="matrix(0.46875 0 0 0.46875 531 306.84)"><g transform="matrix(1 0 0 1 0 0)"><image x="0" y="0" xlink:href="img_182.png" width="128" height="128" /></g></g></g><g clip-path="url(#69)"></g></g></g></g></svg>