<svg xmlns="http://www.w3.org/2000/svg" xmlns:xlink="http://www.w3.org/1999/xlink" id="body_7" preserveAspectRatio="xMinYMin meet" viewBox="0 0 1280 720"><defs><clipPath id="1"><path d="M0 540L0 0L0 0L960 0L960 0L960 540L960 540L0 540z" /></clipPath><clipPath id="2"><path d="M0 539.9999L960 539.9999L960 539.9999L960 -0.0001220703L960 -0.0001220703L0 -0.0001220703z" /></clipPath><clipPath id="3"><path d="M1.4305E-05 540L960 540L960 540L960 0L960 0L1.4305E-05 0z" /></clipPath><clipPath id="4"><path d="M1.4305E-05 540L960 540L960 540L960 0L960 0L1.4305E-05 0z" /></clipPath><clipPath id="5"><path d="M1.4305E-05 540L960 540L960 540L960 0L960 0L1.4305E-05 0z" /></clipPath><clipPath id="6"><path d="M1.4305E-05 540L960 540L960 540L960 0L960 0L1.4305E-05 0z" /></clipPath><clipPath id="7"><path d="M1.4305E-05 540L960 540L960 540L960 0L960 0L1.4305E-05 0z" /></clipPath><clipPath id="8"><path d="M1.4305E-05 540L960 540L960 540L960 0L960 0L1.4305E-05 0z" /></clipPath><clipPath id="9"><path d="M1.4305E-05 540L960 540L960 540L960 0L960 0L1.4305E-05 0z" /></clipPath><clipPath id="10"><path d="M1.4305E-05 540L960 540L960 540L960 0L960 0L1.4305E-05 0z" /></clipPath><clipPath id="11"><path d="M1.4305E-05 540L960 540L960 540L960 0L960 0L1.4305E-05 0z" /></clipPath><clipPath id="12"><path d="M1.4305E-05 540L960 540L960 540L960 0L960 0L1.4305E-05 0z" /></clipPath><clipPath id="13"><path d="M1.4305E-05 540L960 540L960 540L960 0L960 0L1.4305E-05 0z" /></clipPath><clipPath id="14"><path d="M1.4305E-05 540L960 540L960 540L960 0L960 0L1.4305E-05 0z" /></clipPath><clipPath id="15"><path d="M1.4305E-05 540L960 540L960 540L960 0L960 0L1.4305E-05 0z" /></clipPath><clipPath id="16"><path d="M1.4305E-05 540L960 540L960 540L960 0L960 0L1.4305E-05 0z" /></clipPath><clipPath id="17"><path d="M1.4305E-05 540L960 540L960 540L960 0L960 0L1.4305E-05 0z" /></clipPath><clipPath id="18"><path d="M1.4305E-05 540L960 540L960 540L960 0L960 0L1.4305E-05 0z" /></clipPath><clipPath id="19"><path d="M1.4305E-05 540L960 540L960 540L960 0L960 0L1.4305E-05 0z" /></clipPath><clipPath id="20"><path d="M1.4305E-05 540L960 540L960 540L960 0L960 0L1.4305E-05 0z" /></clipPath><clipPath id="21"><path d="M1.4305E-05 540L960 540L960 540L960 0L960 0L1.4305E-05 0z" /></clipPath><clipPath id="22"><path d="M353.4 132.36L409.44 132.36L409.44 132.36L409.44 76.31998L409.44 76.31998L353.4 76.31998z" /></clipPath><clipPath id="23"><path d="M409.32 132.36L465.36 132.36L465.36 132.36L465.36 76.31998L465.36 76.31998L409.32 76.31998z" /></clipPath><clipPath id="24"><path d="M693.12 453.96L749.16 453.96L749.16 453.96L749.16 397.8L749.16 397.8L693.12 397.8z" /></clipPath><clipPath id="25"><path d="M268.8 259.56L324.96 259.56L324.96 259.56L324.96 203.52L324.96 203.52L268.8 203.52z" /></clipPath><clipPath id="26"><path d="M465.84 132.48L522.12 132.48L522.12 132.48L522.12 76.20001L522.12 76.20001L465.84 76.20001z" /></clipPath><clipPath id="27"><path d="M54.12 451.92L110.4 451.92L110.4 451.92L110.4 395.64L110.4 395.64L54.12 395.64z" /></clipPath><clipPath id="28"><path d="M407.16 450.48L463.32 450.48L463.32 450.48L463.32 394.32L463.32 394.32L407.16 394.32z" /></clipPath><clipPath id="29"><path d="M110.76 451.92L166.92 451.92L166.92 451.92L166.92 395.64L166.92 395.64L110.76 395.64z" /></clipPath><clipPath id="30"><path d="M750.36 453.96L806.64 453.96L806.64 453.96L806.64 397.8L806.64 397.8L750.36 397.8z" /></clipPath><clipPath id="31"><path d="M807.72 453.96L863.8799 453.96L863.8799 453.96L863.8799 397.8L863.8799 397.8L807.72 397.8z" /></clipPath><clipPath id="32"><path d="M522.48 132.48L578.76 132.48L578.76 132.48L578.76 76.20001L578.76 76.20001L522.48 76.20001z" /></clipPath><clipPath id="33"><path d="M579.84 254.04L636 254.04L636 254.04L636 197.88L636 197.88L579.84 197.88z" /></clipPath><clipPath id="34"><path d="M168.12 451.92L224.28 451.92L224.28 451.92L224.28 395.64L224.28 395.64L168.12 395.64z" /></clipPath><clipPath id="35"><path d="M225.36 451.2L281.64 451.2L281.64 451.2L281.64 395.04L281.64 395.04L225.36 395.04z" /></clipPath><clipPath id="36"><path d="M282 451.92L338.28 451.92L338.28 451.92L338.28 395.64L338.28 395.64L282 395.64z" /></clipPath><clipPath id="37"><path d="M464.52 450.48L520.68 450.48L520.68 450.48L520.68 394.32L520.68 394.32L464.52 394.32z" /></clipPath><clipPath id="38"><path d="M1.4305E-05 540L960 540L960 540L960 0L960 0L1.4305E-05 0z" /></clipPath><clipPath id="39"><path d="M1.4305E-05 540L960 540L960 540L960 0L960 0L1.4305E-05 0z" /></clipPath><clipPath id="40"><path d="M1.4305E-05 540L960 540L960 540L960 0L960 0L1.4305E-05 0z" /></clipPath><clipPath id="41"><path d="M1.4305E-05 540L960 540L960 540L960 0L960 0L1.4305E-05 0z" /></clipPath><clipPath id="42"><path d="M1.4305E-05 540L960 540L960 540L960 0L960 0L1.4305E-05 0z" /></clipPath><clipPath id="43"><path d="M1.4305E-05 540L960 540L960 540L960 0L960 0L1.4305E-05 0z" /></clipPath><clipPath id="44"><path d="M636.96 253.8L693 253.8L693 253.8L693 197.64L693 197.64L636.96 197.64z" /></clipPath><clipPath id="45"><path d="M1.4305E-05 540L960 540L960 540L960 0L960 0L1.4305E-05 0z" /></clipPath></defs><g transform="matrix(1.333333 0 0 1.333333 0 0)"><g><g clip-path="url(#1)"><g clip-path="url(#2)"><path transform="matrix(1 0 0 -1 0 540)" d="M0 6.1035E-05L960 6.1035E-05L960 6.1035E-05L960 540.0001L960 540.0001L0 540.0001z" stroke="none" fill="#FFFFFF" fill-rule="evenodd" /></g><g clip-path="url(#3)"></g><g clip-path="url(#4)"></g><g clip-path="url(#5)"></g><g clip-path="url(#6)"></g><g clip-path="url(#7)"></g><g clip-path="url(#8)"></g><g clip-path="url(#9)"></g><g clip-path="url(#10)"></g><path transform="matrix(1 0 0 -1 0 540)" d="M676.24 160.68L682.24 157.68L682.24 157.68L676.24 154.68zM253.44 154.68L247.44 157.68L247.44 157.68L253.44 160.68zM252.44 158.18L677.24 158.18L677.24 158.18L677.24 157.18L677.24 157.18L252.44 157.18z" stroke="none" fill="#000000" fill-rule="winding" /><path transform="matrix(1 0 0 -1 0 540)" d="M701.98 179.9L704.66 173.75L704.66 173.75L698.13 175.29zM492.04 347.25L489.36 353.4L489.36 353.4L495.89 351.86zM493.52 350.58L701.14 177.34L701.14 177.34L700.5 176.57L700.5 176.57L492.88 349.81z" stroke="none" fill="#000000" fill-rule="winding" /><path transform="matrix(1 0 0 -1 0 540)" d="M227.84 181.96L225.12 175.83L225.12 175.83L231.66 177.33zM437 346.55L439.72 352.68L439.72 352.68L433.18 351.18zM435.54 349.89L228.66 179.39L228.66 179.39L229.3 178.62L229.3 178.62L436.18 349.11z" stroke="none" fill="#000000" fill-rule="winding" /><g clip-path="url(#11)"></g><g clip-path="url(#12)"></g><g clip-path="url(#13)"></g><g clip-path="url(#14)"></g><g clip-path="url(#15)"></g><g clip-path="url(#16)"></g><g clip-path="url(#17)"></g><g clip-path="url(#18)"></g><g clip-path="url(#19)"></g><g clip-path="url(#20)"></g><g clip-path="url(#21)"></g><g clip-path="url(#22)"><g transform="matrix(0.3736 0 0 0.3736 353.4 76.31998)"><g transform="matrix(1 0 0 1 0 0)"><image x="0" y="0" xlink:href="img_62.png" width="150" height="150" /></g></g></g><g clip-path="url(#23)"><g transform="matrix(0.3736 0 0 0.3736 409.32 76.31998)"><g transform="matrix(1 0 0 1 0 0)"><image x="0" y="0" xlink:href="img_63.png" width="150" height="150" /></g></g></g><g clip-path="url(#24)"><g transform="matrix(0.3736 0 0 0.3744 693.12 397.8)"><g transform="matrix(1 0 0 1 0 0)"><image x="0" y="0" xlink:href="img_64.png" width="150" height="150" /></g></g></g><g clip-path="url(#25)"><g transform="matrix(0.3744 0 0 0.3736 268.8 203.52)"><g transform="matrix(1 0 0 1 0 0)"><image x="0" y="0" xlink:href="img_65.png" width="150" height="150" /></g></g></g><g clip-path="url(#26)"><g transform="matrix(0.3752 0 0 0.3752 465.84 76.20001)"><g transform="matrix(1 0 0 1 0 0)"><image x="0" y="0" xlink:href="img_66.png" width="150" height="150" /></g></g></g><g clip-path="url(#27)"><g transform="matrix(0.3752 0 0 0.3752 54.12 395.64)"><g transform="matrix(1 0 0 1 0 0)"><image x="0" y="0" xlink:href="img_67.png" width="150" height="150" /></g></g></g><g clip-path="url(#28)"><g transform="matrix(0.3744 0 0 0.3744 407.16 394.32)"><g transform="matrix(1 0 0 1 0 0)"><image x="0" y="0" xlink:href="img_68.png" width="150" height="150" /></g></g></g><g clip-path="url(#29)"><g transform="matrix(0.3744 0 0 0.3752 110.76 395.64)"><g transform="matrix(1 0 0 1 0 0)"><image x="0" y="0" xlink:href="img_69.png" width="150" height="150" /></g></g></g><g clip-path="url(#30)"><g transform="matrix(0.3752 0 0 0.3744 750.36 397.8)"><g transform="matrix(1 0 0 1 0 0)"><image x="0" y="0" xlink:href="img_70.png" width="150" height="150" /></g></g></g><g clip-path="url(#31)"><g transform="matrix(0.3744 0 0 0.3744 807.72 397.8)"><g transform="matrix(1 0 0 1 0 0)"><image x="0" y="0" xlink:href="img_71.png" width="150" height="150" /></g></g></g><g clip-path="url(#32)"><g transform="matrix(0.3752 0 0 0.3752 522.48 76.20001)"><g transform="matrix(1 0 0 1 0 0)"><image x="0" y="0" xlink:href="img_72.png" width="150" height="150" /></g></g></g><g clip-path="url(#33)"><g transform="matrix(0.3744 0 0 0.3744 579.84 197.88)"><g transform="matrix(1 0 0 1 0 0)"><image x="0" y="0" xlink:href="img_73.png" width="150" height="150" /></g></g></g><g clip-path="url(#34)"><g transform="matrix(0.3744 0 0 0.3752 168.12 395.64)"><g transform="matrix(1 0 0 1 0 0)"><image x="0" y="0" xlink:href="img_74.png" width="150" height="150" /></g></g></g><g clip-path="url(#35)"><g transform="matrix(0.3752 0 0 0.3744 225.36 395.04)"><g transform="matrix(1 0 0 1 0 0)"><image x="0" y="0" xlink:href="img_75.png" width="150" height="150" /></g></g></g><g clip-path="url(#36)"><g transform="matrix(0.3752 0 0 0.3752 282 395.64)"><g transform="matrix(1 0 0 1 0 0)"><image x="0" y="0" xlink:href="img_76.png" width="150" height="150" /></g></g></g><g clip-path="url(#37)"><g transform="matrix(0.3744 0 0 0.3744 464.52 394.32)"><g transform="matrix(1 0 0 1 0 0)"><image x="0" y="0" xlink:href="img_77.png" width="150" height="150" /></g></g></g><g clip-path="url(#38)"></g><g clip-path="url(#39)"></g><g clip-path="url(#40)"></g><g clip-path="url(#41)"></g><g clip-path="url(#42)"></g><g clip-path="url(#43)"></g><g clip-path="url(#44)"><g transform="matrix(0.3736 0 0 0.3744 636.96 197.64)"><g transform="matrix(1 0 0 1 0 0)"><image x="0" y="0" xlink:href="img_78.png" width="150" height="150" /></g></g></g><g clip-path="url(#45)"></g></g></g></g></svg>