<svg xmlns="http://www.w3.org/2000/svg" xmlns:xlink="http://www.w3.org/1999/xlink" id="body_3" preserveAspectRatio="xMinYMin meet" viewBox="0 0 1280 720"><defs><clipPath id="1"><path d="M0 540L0 0L0 0L960 0L960 0L960 540L960 540L0 540z" /></clipPath><clipPath id="2"><path d="M0 539.9999L960 539.9999L960 539.9999L960 -0.0001220703L960 -0.0001220703L0 -0.0001220703z" /></clipPath><clipPath id="3"><path d="M55.44 310.68L380.28 310.68L380.28 310.68L380.28 91.44L380.28 91.44L55.44 91.44z" /></clipPath><clipPath id="4"><path d="M1.4305E-05 540L960 540L960 540L960 0L960 0L1.4305E-05 0z" /></clipPath><clipPath id="5"><path d="M1.4305E-05 540L960 540L960 540L960 0L960 0L1.4305E-05 0z" /></clipPath><clipPath id="6"><path d="M1.4305E-05 540L960 540L960 540L960 0L960 0L1.4305E-05 0z" /></clipPath><clipPath id="7"><path d="M1.4305E-05 540L960 540L960 540L960 0L960 0L1.4305E-05 0z" /></clipPath><clipPath id="8"><path d="M1.4305E-05 540L960 540L960 540L960 0L960 0L1.4305E-05 0z" /></clipPath><clipPath id="9"><path d="M1.4305E-05 540L960 540L960 540L960 0L960 0L1.4305E-05 0z" /></clipPath><clipPath id="10"><path d="M1.4305E-05 540L960 540L960 540L960 0L960 0L1.4305E-05 0z" /></clipPath><clipPath id="11"><path d="M1.4305E-05 540L960 540L960 540L960 0L960 0L1.4305E-05 0z" /></clipPath><clipPath id="12"><path d="M1.4305E-05 540L960 540L960 540L960 0L960 0L1.4305E-05 0z" /></clipPath><clipPath id="13"><path d="M1.4305E-05 540L960 540L960 540L960 0L960 0L1.4305E-05 0z" /></clipPath><clipPath id="14"><path d="M1.4305E-05 540L960 540L960 540L960 0L960 0L1.4305E-05 0z" /></clipPath><clipPath id="15"><path d="M1.4305E-05 540L960 540L960 540L960 0L960 0L1.4305E-05 0z" /></clipPath><clipPath id="16"><path d="M1.4305E-05 540L960 540L960 540L960 0L960 0L1.4305E-05 0z" /></clipPath><clipPath id="17"><path d="M1.4305E-05 540L960 540L960 540L960 0L960 0L1.4305E-05 0z" /></clipPath><clipPath id="18"><path d="M456 257.16L798 257.16L798 257.16L798 55.32001L798 55.32001L456 55.32001z" /></clipPath><clipPath id="19"><path d="M1.4305E-05 540L960 540L960 540L960 0L960 0L1.4305E-05 0z" /></clipPath><clipPath id="20"><path d="M1.4305E-05 540L960 540L960 540L960 0L960 0L1.4305E-05 0z" /></clipPath><clipPath id="21"><path d="M1.4305E-05 540L960 540L960 540L960 0L960 0L1.4305E-05 0z" /></clipPath><clipPath id="22"><path d="M1.4305E-05 540L960 540L960 540L960 0L960 0L1.4305E-05 0z" /></clipPath><clipPath id="23"><path d="M1.4305E-05 540L960 540L960 540L960 0L960 0L1.4305E-05 0z" /></clipPath><clipPath id="24"><path d="M1.4305E-05 540L960 540L960 540L960 0L960 0L1.4305E-05 0z" /></clipPath><clipPath id="25"><path d="M6.1035E-05 0L960 0L960 0L960 539.9998L960 539.9998L0.00012207 539.9998" /></clipPath><clipPath id="26"><path d="M473.28 393.72L508.56 393.72L508.56 393.72L508.56 362.28L508.56 362.28L473.28 362.28z" /></clipPath><clipPath id="27"><path d="M819.48 397.56L858.48 397.56L858.48 397.56L858.48 369L858.48 369L819.48 369z" /></clipPath><clipPath id="28"><path d="M620.28 395.28L659.28 395.28L659.28 395.28L659.28 367.56L659.28 367.56L620.28 367.56z" /></clipPath><clipPath id="29"><path d="M710.04 396.12L749.76 396.12L749.76 396.12L749.76 368.4L749.76 368.4L710.04 368.4z" /></clipPath><clipPath id="30"><path d="M519.72 395.28L555.72 395.28L555.72 395.28L555.72 361.56L555.72 361.56L519.72 361.56z" /></clipPath><clipPath id="31"><path d="M666.12 398.28L704.4 398.28L704.4 398.28L704.4 367.56L704.4 367.56L666.12 367.56z" /></clipPath><clipPath id="32"><path d="M1.4305E-05 540L960 540L960 540L960 0L960 0L1.4305E-05 0z" /></clipPath><clipPath id="33"><path d="M882 479.28L917.28 479.28L917.28 479.28L917.28 447.72L917.28 447.72L882 447.72z" /></clipPath><clipPath id="34"><path d="M1.4305E-05 540L960 540L960 540L960 0L960 0L1.4305E-05 0z" /></clipPath></defs><g transform="matrix(1.333333 0 0 1.333333 0 0)"><g><g clip-path="url(#1)"><g clip-path="url(#2)"><path transform="matrix(1 0 0 -1 0 540)" d="M0 6.1035E-05L960 6.1035E-05L960 6.1035E-05L960 540.0001L960 540.0001L0 540.0001z" stroke="none" fill="#FFFFFF" fill-rule="evenodd" /></g><g clip-path="url(#3)"><g transform="matrix(1.320488 0 0 1.320723 55.44 91.44)"><g transform="matrix(1 0 0 1 0 0)"><image x="0" y="0" xlink:href="img_19.png" width="246" height="166" /></g></g></g><g clip-path="url(#4)"></g><g clip-path="url(#5)"></g><g clip-path="url(#6)"></g><g clip-path="url(#7)"></g><g clip-path="url(#8)"></g><g clip-path="url(#9)"></g><g clip-path="url(#10)"></g><g clip-path="url(#11)"></g><g clip-path="url(#12)"></g><g clip-path="url(#13)"></g><g clip-path="url(#14)"></g><g clip-path="url(#15)"></g><g clip-path="url(#16)"></g><g clip-path="url(#17)"></g><g clip-path="url(#18)"><g transform="matrix(0.38 0 0 0.380113 456 55.32001)"><g transform="matrix(1 0 0 1 0 0)"><image x="0" y="0" xlink:href="img_20.png" width="900" height="531" /></g></g></g><g clip-path="url(#19)"></g><g clip-path="url(#20)"></g><path transform="matrix(1 0 0 -1 0 540)" d="M697.2 484.77L769.2 484.77L769.2 484.77L769.2 485.61L769.2 485.61L697.2 485.61z" stroke="none" fill="#000000" fill-rule="evenodd" /><g clip-path="url(#21)"></g><g clip-path="url(#22)"></g><g clip-path="url(#23)"></g><g clip-path="url(#24)"></g><g clip-path="url(#25)"><path transform="matrix(1 0 0 -1 0 540)" d="M468.72 132.36L879.36 121.32L879.36 121.32L468.72 110.28z" stroke="none" fill="#BDD7EE" fill-rule="evenodd" /></g><g clip-path="url(#26)"><g transform="matrix(1.306667 0 0 1.31 473.28 362.28)"><g transform="matrix(1 0 0 1 0 0)"><image x="0" y="0" xlink:href="img_21.png" width="27" height="24" /></g></g></g><g clip-path="url(#27)"><g transform="matrix(1.3 0 0 1.298182 819.48 369)"><g transform="matrix(1 0 0 1 0 0)"><image x="0" y="0" xlink:href="img_22.png" width="30" height="22" /></g></g></g><g clip-path="url(#28)"><g transform="matrix(1.3 0 0 1.32 620.28 367.56)"><g transform="matrix(1 0 0 1 0 0)"><image x="0" y="0" xlink:href="img_23.png" width="30" height="21" /></g></g></g><g clip-path="url(#29)"><g transform="matrix(1.324 0 0 1.32 710.04 368.4)"><g transform="matrix(1 0 0 1 0 0)"><image x="0" y="0" xlink:href="img_24.png" width="30" height="21" /></g></g></g><g clip-path="url(#30)"><g transform="matrix(1.333333 0 0 1.296923 519.72 361.56)"><g transform="matrix(1 0 0 1 0 0)"><image x="0" y="0" xlink:href="img_25.png" width="27" height="26" /></g></g></g><g clip-path="url(#31)"><g transform="matrix(1.32 0 0 1.335652 666.12 367.56)"><g transform="matrix(1 0 0 1 0 0)"><image x="0" y="0" xlink:href="img_26.png" width="29" height="23" /></g></g></g><g clip-path="url(#32)"></g><g clip-path="url(#33)"><g transform="matrix(1.306667 0 0 1.315 882 447.72)"><g transform="matrix(1 0 0 1 0 0)"><image x="0" y="0" xlink:href="img_21.png" width="27" height="24" /></g></g></g><g clip-path="url(#34)"></g></g></g></g></svg>