<svg xmlns="http://www.w3.org/2000/svg" xmlns:xlink="http://www.w3.org/1999/xlink" id="body_8" preserveAspectRatio="xMinYMin meet" viewBox="0 0 1280 720"><defs><clipPath id="1"><path d="M0 540L0 0L0 0L960 0L960 0L960 540L960 540L0 540z" /></clipPath><clipPath id="2"><path d="M0 539.9999L960 539.9999L960 539.9999L960 -0.0001220703L960 -0.0001220703L0 -0.0001220703z" /></clipPath><clipPath id="3"><path d="M1.4305E-05 540L960 540L960 540L960 0L960 0L1.4305E-05 0z" /></clipPath><clipPath id="4"><path d="M1.4305E-05 540L960 540L960 540L960 0L960 0L1.4305E-05 0z" /></clipPath><clipPath id="5"><path d="M1.4305E-05 540L960 540L960 540L960 0L960 0L1.4305E-05 0z" /></clipPath><clipPath id="6"><path d="M1.4305E-05 540L960 540L960 540L960 0L960 0L1.4305E-05 0z" /></clipPath><clipPath id="7"><path d="M1.4305E-05 540L960 540L960 540L960 0L960 0L1.4305E-05 0z" /></clipPath><clipPath id="8"><path d="M1.4305E-05 540L960 540L960 540L960 0L960 0L1.4305E-05 0z" /></clipPath><clipPath id="9"><path d="M1.4305E-05 540L960 540L960 540L960 0L960 0L1.4305E-05 0z" /></clipPath><clipPath id="10"><path d="M1.4305E-05 540L960 540L960 540L960 0L960 0L1.4305E-05 0z" /></clipPath><clipPath id="11"><path d="M1.4305E-05 540L960 540L960 540L960 0L960 0L1.4305E-05 0z" /></clipPath><clipPath id="12"><path d="M1.4305E-05 540L960 540L960 540L960 0L960 0L1.4305E-05 0z" /></clipPath><clipPath id="13"><path d="M1.4305E-05 540L960 540L960 540L960 0L960 0L1.4305E-05 0z" /></clipPath><clipPath id="14"><path d="M1.4305E-05 540L960 540L960 540L960 0L960 0L1.4305E-05 0z" /></clipPath><clipPath id="15"><path d="M1.4305E-05 540L960 540L960 540L960 0L960 0L1.4305E-05 0z" /></clipPath><clipPath id="16"><path d="M1.4305E-05 540L960 540L960 540L960 0L960 0L1.4305E-05 0z" /></clipPath><clipPath id="17"><path d="M1.4305E-05 540L960 540L960 540L960 0L960 0L1.4305E-05 0z" /></clipPath><clipPath id="18"><path d="M1.4305E-05 540L960 540L960 540L960 0L960 0L1.4305E-05 0z" /></clipPath><clipPath id="19"><path d="M1.4305E-05 540L960 540L960 540L960 0L960 0L1.4305E-05 0z" /></clipPath><clipPath id="20"><path d="M1.4305E-05 540L960 540L960 540L960 0L960 0L1.4305E-05 0z" /></clipPath><clipPath id="21"><path d="M1.4305E-05 540L960 540L960 540L960 0L960 0L1.4305E-05 0z" /></clipPath><clipPath id="22"><path d="M1.4305E-05 540L960 540L960 540L960 0L960 0L1.4305E-05 0z" /></clipPath><clipPath id="23"><path d="M1.4305E-05 540L960 540L960 540L960 0L960 0L1.4305E-05 0z" /></clipPath><clipPath id="24"><path d="M1.4305E-05 540L960 540L960 540L960 0L960 0L1.4305E-05 0z" /></clipPath><clipPath id="25"><path d="M1.4305E-05 540L960 540L960 540L960 0L960 0L1.4305E-05 0z" /></clipPath><clipPath id="26"><path d="M356.16 134.52L412.32 134.52L412.32 134.52L412.32 78.35999L412.32 78.35999L356.16 78.35999z" /></clipPath><clipPath id="27"><path d="M698.76 453.24L754.8 453.24L754.8 453.24L754.8 397.08L754.8 397.08L698.76 397.08z" /></clipPath><clipPath id="28"><path d="M810.6 453.24L866.64 453.24L866.64 453.24L866.64 397.08L866.64 397.08L810.6 397.08z" /></clipPath><clipPath id="29"><path d="M479.88 454.68L536.04 454.68L536.04 454.68L536.04 398.52L536.04 398.52L479.88 398.52z" /></clipPath><clipPath id="30"><path d="M414.24 135.12L470.28 135.12L470.28 135.12L470.28 79.07999L470.28 79.07999L414.24 79.07999z" /></clipPath><clipPath id="31"><path d="M56.16 454.08L112.56 454.08L112.56 454.08L112.56 397.68L112.56 397.68L56.16 397.68z" /></clipPath><clipPath id="32"><path d="M473.52 135.24L529.8 135.24L529.8 135.24L529.8 79.07999L529.8 79.07999L473.52 79.07999z" /></clipPath><clipPath id="33"><path d="M755.28 453.24L811.44 453.24L811.44 453.24L811.44 397.08L811.44 397.08L755.28 397.08z" /></clipPath><clipPath id="34"><path d="M428.88 321.84L485.04 321.84L485.04 321.84L485.04 265.68L485.04 265.68L428.88 265.68z" /></clipPath><clipPath id="35"><path d="M265.92 258.24L322.2 258.24L322.2 258.24L322.2 202.08L322.2 202.08L265.92 202.08z" /></clipPath><clipPath id="36"><path d="M112.92 454.68L169.08 454.68L169.08 454.68L169.08 398.52L169.08 398.52L112.92 398.52z" /></clipPath><clipPath id="37"><path d="M170.16 455.4L226.44 455.4L226.44 455.4L226.44 399.24L226.44 399.24L170.16 399.24z" /></clipPath><clipPath id="38"><path d="M371.52 321.84L427.68 321.84L427.68 321.84L427.68 265.68L427.68 265.68L371.52 265.68z" /></clipPath><clipPath id="39"><path d="M226.8 455.4L282.96 455.4L282.96 455.4L282.96 399.24L282.96 399.24L226.8 399.24z" /></clipPath><clipPath id="40"><path d="M283.44 455.4L345.96 455.4L345.96 455.4L345.96 399.24L345.96 399.24L283.44 399.24z" /></clipPath><clipPath id="41"><path d="M532.32 135.24L588.48 135.24L588.48 135.24L588.48 79.07999L588.48 79.07999L532.32 79.07999z" /></clipPath><clipPath id="42"><path d="M423.24 454.68L479.4 454.68L479.4 454.68L479.4 398.52L479.4 398.52L423.24 398.52z" /></clipPath><clipPath id="43"><path d="M1.4305E-05 540L960 540L960 540L960 0L960 0L1.4305E-05 0z" /></clipPath><clipPath id="44"><path d="M1.4305E-05 540L960 540L960 540L960 0L960 0L1.4305E-05 0z" /></clipPath><clipPath id="45"><path d="M1.4305E-05 540L960 540L960 540L960 0L960 0L1.4305E-05 0z" /></clipPath><clipPath id="46"><path d="M1.4305E-05 540L960 540L960 540L960 0L960 0L1.4305E-05 0z" /></clipPath><clipPath id="47"><path d="M1.4305E-05 540L960 540L960 540L960 0L960 0L1.4305E-05 0z" /></clipPath><clipPath id="48"><path d="M486.72 322.08L543.12 322.08L543.12 322.08L543.12 265.68L543.12 265.68L486.72 265.68z" /></clipPath><clipPath id="49"><path d="M1.4305E-05 540L960 540L960 540L960 0L960 0L1.4305E-05 0z" /></clipPath></defs><g transform="matrix(1.333333 0 0 1.333333 0 0)"><g><g clip-path="url(#1)"><g clip-path="url(#2)"><path transform="matrix(1 0 0 -1 0 540)" d="M0 6.1035E-05L960 6.1035E-05L960 6.1035E-05L960 540.0001L960 540.0001L0 540.0001z" stroke="none" fill="#FFFFFF" fill-rule="evenodd" /></g><g clip-path="url(#3)"></g><g clip-path="url(#4)"></g><g clip-path="url(#5)"></g><g clip-path="url(#6)"></g><g clip-path="url(#7)"></g><g clip-path="url(#8)"></g><g clip-path="url(#9)"></g><g clip-path="url(#10)"></g><path transform="matrix(1 0 0 -1 0 540)" d="M676.24 160.68L682.24 157.68L682.24 157.68L676.24 154.68zM253.44 154.68L247.44 157.68L247.44 157.68L253.44 160.68zM252.44 158.18L677.24 158.18L677.24 158.18L677.24 157.18L677.24 157.18L252.44 157.18z" stroke="none" fill="#000000" fill-rule="winding" /><path transform="matrix(1 0 0 -1 0 540)" d="M701.98 179.9L704.66 173.75L704.66 173.75L698.13 175.29zM492.04 347.25L489.36 353.4L489.36 353.4L495.89 351.86zM493.52 350.58L701.14 177.34L701.14 177.34L700.5 176.57L700.5 176.57L492.88 349.81z" stroke="none" fill="#000000" fill-rule="winding" /><path transform="matrix(1 0 0 -1 0 540)" d="M227.84 181.96L225.12 175.83L225.12 175.83L231.66 177.33zM437 346.55L439.72 352.68L439.72 352.68L433.18 351.18zM435.54 349.89L228.66 179.39L228.66 179.39L229.3 178.62L229.3 178.62L436.18 349.11z" stroke="none" fill="#000000" fill-rule="winding" /><g clip-path="url(#11)"></g><g clip-path="url(#12)"></g><g clip-path="url(#13)"></g><g clip-path="url(#14)"></g><g clip-path="url(#15)"></g><g clip-path="url(#16)"></g><g clip-path="url(#17)"></g><g clip-path="url(#18)"></g><g clip-path="url(#19)"></g><g clip-path="url(#20)"></g><g clip-path="url(#21)"></g><g clip-path="url(#22)"></g><g clip-path="url(#23)"></g><g clip-path="url(#24)"></g><g clip-path="url(#25)"></g><g clip-path="url(#26)"><g transform="matrix(0.3744 0 0 0.3744 356.16 78.35999)"><g transform="matrix(1 0 0 1 0 0)"><image x="0" y="0" xlink:href="img_80.png" width="150" height="150" /></g></g></g><g clip-path="url(#27)"><g transform="matrix(0.3736 0 0 0.3744 698.76 397.08)"><g transform="matrix(1 0 0 1 0 0)"><image x="0" y="0" xlink:href="img_81.png" width="150" height="150" /></g></g></g><g clip-path="url(#28)"><g transform="matrix(0.3736 0 0 0.3744 810.6 397.08)"><g transform="matrix(1 0 0 1 0 0)"><image x="0" y="0" xlink:href="img_82.png" width="150" height="150" /></g></g></g><g clip-path="url(#29)"><g transform="matrix(0.3744 0 0 0.3744 479.88 398.52)"><g transform="matrix(1 0 0 1 0 0)"><image x="0" y="0" xlink:href="img_83.png" width="150" height="150" /></g></g></g><g clip-path="url(#30)"><g transform="matrix(0.3736 0 0 0.3736 414.24 79.07999)"><g transform="matrix(1 0 0 1 0 0)"><image x="0" y="0" xlink:href="img_84.png" width="150" height="150" /></g></g></g><g clip-path="url(#31)"><g transform="matrix(0.376 0 0 0.376 56.16 397.68)"><g transform="matrix(1 0 0 1 0 0)"><image x="0" y="0" xlink:href="img_85.png" width="150" height="150" /></g></g></g><g clip-path="url(#32)"><g transform="matrix(0.3752 0 0 0.3744 473.52 79.07999)"><g transform="matrix(1 0 0 1 0 0)"><image x="0" y="0" xlink:href="img_86.png" width="150" height="150" /></g></g></g><g clip-path="url(#33)"><g transform="matrix(0.3744 0 0 0.3744 755.28 397.08)"><g transform="matrix(1 0 0 1 0 0)"><image x="0" y="0" xlink:href="img_87.png" width="150" height="150" /></g></g></g><g clip-path="url(#34)"><g transform="matrix(0.3744 0 0 0.3744 428.88 265.68)"><g transform="matrix(1 0 0 1 0 0)"><image x="0" y="0" xlink:href="img_88.png" width="150" height="150" /></g></g></g><g clip-path="url(#35)"><g transform="matrix(0.3752 0 0 0.3744 265.92 202.08)"><g transform="matrix(1 0 0 1 0 0)"><image x="0" y="0" xlink:href="img_89.png" width="150" height="150" /></g></g></g><g clip-path="url(#36)"><g transform="matrix(0.3744 0 0 0.3744 112.92 398.52)"><g transform="matrix(1 0 0 1 0 0)"><image x="0" y="0" xlink:href="img_90.png" width="150" height="150" /></g></g></g><g clip-path="url(#37)"><g transform="matrix(0.3752 0 0 0.3744 170.16 399.24)"><g transform="matrix(1 0 0 1 0 0)"><image x="0" y="0" xlink:href="img_91.png" width="150" height="150" /></g></g></g><g clip-path="url(#38)"><g transform="matrix(0.3744 0 0 0.3744 371.52 265.68)"><g transform="matrix(1 0 0 1 0 0)"><image x="0" y="0" xlink:href="img_92.png" width="150" height="150" /></g></g></g><g clip-path="url(#39)"><g transform="matrix(0.3744 0 0 0.3744 226.8 399.24)"><g transform="matrix(1 0 0 1 0 0)"><image x="0" y="0" xlink:href="img_93.png" width="150" height="150" /></g></g></g><g clip-path="url(#40)"><g transform="matrix(0.4168 0 0 0.3744 283.44 399.24)"><g transform="matrix(1 0 0 1 0 0)"><image x="0" y="0" xlink:href="img_94.png" width="150" height="150" /></g></g></g><g clip-path="url(#41)"><g transform="matrix(0.3744 0 0 0.3744 532.32 79.07999)"><g transform="matrix(1 0 0 1 0 0)"><image x="0" y="0" xlink:href="img_95.png" width="150" height="150" /></g></g></g><g clip-path="url(#42)"><g transform="matrix(0.3744 0 0 0.3744 423.24 398.52)"><g transform="matrix(1 0 0 1 0 0)"><image x="0" y="0" xlink:href="img_96.png" width="150" height="150" /></g></g></g><g clip-path="url(#43)"></g><g clip-path="url(#44)"></g><g clip-path="url(#45)"></g><g clip-path="url(#46)"></g><g clip-path="url(#47)"></g><g clip-path="url(#48)"><g transform="matrix(0.376 0 0 0.376 486.72 265.68)"><g transform="matrix(1 0 0 1 0 0)"><image x="0" y="0" xlink:href="img_97.png" width="150" height="150" /></g></g></g><g clip-path="url(#49)"></g></g></g></g></svg>