<svg xmlns="http://www.w3.org/2000/svg" xmlns:xlink="http://www.w3.org/1999/xlink" id="body_14" preserveAspectRatio="xMinYMin meet" viewBox="0 0 1280 720"><defs><clipPath id="1"><path d="M0 540L0 0L0 0L960 0L960 0L960 540L960 540L0 540z" /></clipPath><clipPath id="2"><path d="M0 539.9999L960 539.9999L960 539.9999L960 -0.0001220703L960 -0.0001220703L0 -0.0001220703z" /></clipPath><clipPath id="3"><path d="M1.4305E-05 540L960 540L960 540L960 0L960 0L1.4305E-05 0z" /></clipPath><clipPath id="4"><path d="M32.76 162.72L119.28 162.72L119.28 162.72L119.28 80.28L119.28 80.28L32.76 80.28z" /></clipPath><clipPath id="5"><path d="M1.4305E-05 540L960 540L960 540L960 0L960 0L1.4305E-05 0z" /></clipPath><clipPath id="6"><path d="M31.8 243.6L154.56 243.6L154.56 243.6L154.56 175.8L154.56 175.8L31.8 175.8z" /></clipPath><clipPath id="7"><path d="M1.4305E-05 540L960 540L960 540L960 0L960 0L1.4305E-05 0z" /></clipPath><clipPath id="8"><path d="M1.4305E-05 540L960 540L960 540L960 0L960 0L1.4305E-05 0z" /></clipPath><clipPath id="9"><path d="M1.4305E-05 540L960 540L960 540L960 0L960 0L1.4305E-05 0z" /></clipPath><clipPath id="10"><path d="M1.4305E-05 540L960 540L960 540L960 0L960 0L1.4305E-05 0z" /></clipPath><clipPath id="11"><path d="M1.4305E-05 540L960 540L960 540L960 0L960 0L1.4305E-05 0z" /></clipPath><clipPath id="12"><path d="M1.4305E-05 540L960 540L960 540L960 0L960 0L1.4305E-05 0z" /></clipPath><clipPath id="13"><path d="M31.08 316.08L175.56 316.08L175.56 316.08L175.56 259.32L175.56 259.32L31.08 259.32z" /></clipPath><clipPath id="14"><path d="M1.4305E-05 540L960 540L960 540L960 0L960 0L1.4305E-05 0z" /></clipPath><clipPath id="15"><path d="M1.4305E-05 540L960 540L960 540L960 0L960 0L1.4305E-05 0z" /></clipPath><clipPath id="16"><path d="M1.4305E-05 540L960 540L960 540L960 0L960 0L1.4305E-05 0z" /></clipPath><clipPath id="17"><path d="M1.4305E-05 540L960 540L960 540L960 0L960 0L1.4305E-05 0z" /></clipPath><clipPath id="18"><path d="M1.4305E-05 540L960 540L960 540L960 0L960 0L1.4305E-05 0z" /></clipPath><clipPath id="19"><path d="M1.4305E-05 540L960 540L960 540L960 0L960 0L1.4305E-05 0z" /></clipPath><clipPath id="20"><path d="M1.4305E-05 540L960 540L960 540L960 0L960 0L1.4305E-05 0z" /></clipPath><clipPath id="21"><path d="M1.4305E-05 540L960 540L960 540L960 0L960 0L1.4305E-05 0z" /></clipPath><clipPath id="22"><path d="M1.4305E-05 540L960 540L960 540L960 0L960 0L1.4305E-05 0z" /></clipPath><clipPath id="23"><path d="M1.4305E-05 540L960 540L960 540L960 0L960 0L1.4305E-05 0z" /></clipPath><clipPath id="24"><path d="M1.4305E-05 540L960 540L960 540L960 0L960 0L1.4305E-05 0z" /></clipPath><clipPath id="25"><path d="M329.4 158.28L495.72 158.28L495.72 158.28L495.72 78.84L495.72 78.84L329.4 78.84z" /></clipPath><clipPath id="26"><path d="M1.4305E-05 540L960 540L960 540L960 0L960 0L1.4305E-05 0z" /></clipPath><clipPath id="27"><path d="M1.4305E-05 540L960 540L960 540L960 0L960 0L1.4305E-05 0z" /></clipPath><clipPath id="28"><path d="M1.4305E-05 540L960 540L960 540L960 0L960 0L1.4305E-05 0z" /></clipPath><clipPath id="29"><path d="M1.4305E-05 540L960 540L960 540L960 0L960 0L1.4305E-05 0z" /></clipPath><clipPath id="30"><path d="M1.4305E-05 540L960 540L960 540L960 0L960 0L1.4305E-05 0z" /></clipPath><clipPath id="31"><path d="M1.4305E-05 540L960 540L960 540L960 0L960 0L1.4305E-05 0z" /></clipPath><clipPath id="32"><path d="M340.8 293.64L485.28 293.64L485.28 293.64L485.28 236.76L485.28 236.76L340.8 236.76z" /></clipPath><clipPath id="33"><path d="M1.4305E-05 540L960 540L960 540L960 0L960 0L1.4305E-05 0z" /></clipPath><clipPath id="34"><path d="M1.4305E-05 540L960 540L960 540L960 0L960 0L1.4305E-05 0z" /></clipPath><clipPath id="35"><path d="M1.4305E-05 540L960 540L960 540L960 0L960 0L1.4305E-05 0z" /></clipPath><clipPath id="36"><path d="M1.4305E-05 540L960 540L960 540L960 0L960 0L1.4305E-05 0z" /></clipPath><clipPath id="37"><path d="M1.4305E-05 540L960 540L960 540L960 0L960 0L1.4305E-05 0z" /></clipPath><clipPath id="38"><path d="M1.4305E-05 540L960 540L960 540L960 0L960 0L1.4305E-05 0z" /></clipPath><clipPath id="39"><path d="M1.4305E-05 540L960 540L960 540L960 0L960 0L1.4305E-05 0z" /></clipPath><clipPath id="40"><path d="M1.4305E-05 540L960 540L960 540L960 0L960 0L1.4305E-05 0z" /></clipPath><clipPath id="41"><path d="M1.4305E-05 540L960 540L960 540L960 0L960 0L1.4305E-05 0z" /></clipPath><clipPath id="42"><path d="M1.4305E-05 540L960 540L960 540L960 0L960 0L1.4305E-05 0z" /></clipPath><clipPath id="43"><path d="M1.4305E-05 540L960 540L960 540L960 0L960 0L1.4305E-05 0z" /></clipPath><clipPath id="44"><path d="M1.4305E-05 540L960 540L960 540L960 0L960 0L1.4305E-05 0z" /></clipPath><clipPath id="45"><path d="M1.4305E-05 540L960 540L960 540L960 0L960 0L1.4305E-05 0z" /></clipPath><clipPath id="46"><path d="M1.4305E-05 540L960 540L960 540L960 0L960 0L1.4305E-05 0z" /></clipPath><clipPath id="47"><path d="M1.4305E-05 540L960 540L960 540L960 0L960 0L1.4305E-05 0z" /></clipPath><clipPath id="48"><path d="M1.4305E-05 540L960 540L960 540L960 0L960 0L1.4305E-05 0z" /></clipPath><clipPath id="49"><path d="M1.4305E-05 540L960 540L960 540L960 0L960 0L1.4305E-05 0z" /></clipPath><clipPath id="50"><path d="M1.4305E-05 540L960 540L960 540L960 0L960 0L1.4305E-05 0z" /></clipPath><clipPath id="51"><path d="M1.4305E-05 540L960 540L960 540L960 0L960 0L1.4305E-05 0z" /></clipPath><clipPath id="52"><path d="M1.4305E-05 540L960 540L960 540L960 0L960 0L1.4305E-05 0z" /></clipPath><clipPath id="53"><path d="M1.4305E-05 540L960 540L960 540L960 0L960 0L1.4305E-05 0z" /></clipPath><clipPath id="54"><path d="M1.4305E-05 540L960 540L960 540L960 0L960 0L1.4305E-05 0z" /></clipPath><clipPath id="55"><path d="M1.4305E-05 540L960 540L960 540L960 0L960 0L1.4305E-05 0z" /></clipPath><clipPath id="56"><path d="M1.4305E-05 540L960 540L960 540L960 0L960 0L1.4305E-05 0z" /></clipPath><clipPath id="57"><path d="M1.4305E-05 540L960 540L960 540L960 0L960 0L1.4305E-05 0z" /></clipPath><clipPath id="58"><path d="M1.4305E-05 540L960 540L960 540L960 0L960 0L1.4305E-05 0z" /></clipPath><clipPath id="59"><path d="M1.4305E-05 540L960 540L960 540L960 0L960 0L1.4305E-05 0z" /></clipPath><clipPath id="60"><path d="M1.4305E-05 540L960 540L960 540L960 0L960 0L1.4305E-05 0z" /></clipPath><clipPath id="61"><path d="M1.4305E-05 540L960 540L960 540L960 0L960 0L1.4305E-05 0z" /></clipPath><clipPath id="62"><path d="M633.24 82.92001L777.72 82.92001L777.72 82.92001L777.72 26.04004L777.72 26.04004L633.24 26.04004z" /></clipPath><clipPath id="63"><path d="M1.4305E-05 540L960 540L960 540L960 0L960 0L1.4305E-05 0z" /></clipPath><clipPath id="64"><path d="M1.4305E-05 540L960 540L960 540L960 0L960 0L1.4305E-05 0z" /></clipPath><clipPath id="65"><path d="M1.4305E-05 540L960 540L960 540L960 0L960 0L1.4305E-05 0z" /></clipPath><clipPath id="66"><path d="M1.4305E-05 540L960 540L960 540L960 0L960 0L1.4305E-05 0z" /></clipPath><clipPath id="67"><path d="M1.4305E-05 540L960 540L960 540L960 0L960 0L1.4305E-05 0z" /></clipPath><clipPath id="68"><path d="M1.4305E-05 540L960 540L960 540L960 0L960 0L1.4305E-05 0z" /></clipPath><clipPath id="69"><path d="M634.56 362.64L810.6 362.64L810.6 362.64L810.6 317.04L810.6 317.04L634.56 317.04z" /></clipPath><clipPath id="70"><path d="M635.04 408.36L810.48 408.36L810.48 408.36L810.48 364.2L810.48 364.2L635.04 364.2z" /></clipPath><clipPath id="71"><path d="M634.92 453.6L813.72 453.6L813.72 453.6L813.72 408L813.72 408L634.92 408z" /></clipPath><clipPath id="72"><path d="M1.4305E-05 540L960 540L960 540L960 0L960 0L1.4305E-05 0z" /></clipPath><clipPath id="73"><path d="M1.4305E-05 540L960 540L960 540L960 0L960 0L1.4305E-05 0z" /></clipPath><clipPath id="74"><path d="M1.4305E-05 540L960 540L960 540L960 0L960 0L1.4305E-05 0z" /></clipPath><clipPath id="75"><path d="M1.4305E-05 540L960 540L960 540L960 0L960 0L1.4305E-05 0z" /></clipPath><clipPath id="76"><path d="M1.4305E-05 540L960 540L960 540L960 0L960 0L1.4305E-05 0z" /></clipPath><clipPath id="77"><path d="M1.4305E-05 540L960 540L960 540L960 0L960 0L1.4305E-05 0z" /></clipPath><clipPath id="78"><path d="M1.4305E-05 540L960 540L960 540L960 0L960 0L1.4305E-05 0z" /></clipPath><clipPath id="79"><path d="M1.4305E-05 540L960 540L960 540L960 0L960 0L1.4305E-05 0z" /></clipPath><clipPath id="80"><path d="M1.4305E-05 540L960 540L960 540L960 0L960 0L1.4305E-05 0z" /></clipPath><clipPath id="81"><path d="M1.4305E-05 540L960 540L960 540L960 0L960 0L1.4305E-05 0z" /></clipPath><clipPath id="82"><path d="M1.4305E-05 540L960 540L960 540L960 0L960 0L1.4305E-05 0z" /></clipPath><clipPath id="83"><path d="M1.4305E-05 540L960 540L960 540L960 0L960 0L1.4305E-05 0z" /></clipPath><clipPath id="84"><path d="M1.4305E-05 540L960 540L960 540L960 0L960 0L1.4305E-05 0z" /></clipPath><clipPath id="85"><path d="M1.4305E-05 540L960 540L960 540L960 0L960 0L1.4305E-05 0z" /></clipPath><clipPath id="86"><path d="M1.4305E-05 540L960 540L960 540L960 0L960 0L1.4305E-05 0z" /></clipPath><clipPath id="87"><path d="M1.4305E-05 540L960 540L960 540L960 0L960 0L1.4305E-05 0z" /></clipPath><clipPath id="88"><path d="M1.4305E-05 540L960 540L960 540L960 0L960 0L1.4305E-05 0z" /></clipPath><clipPath id="89"><path d="M1.4305E-05 540L960 540L960 540L960 0L960 0L1.4305E-05 0z" /></clipPath><clipPath id="90"><path d="M1.4305E-05 540L960 540L960 540L960 0L960 0L1.4305E-05 0z" /></clipPath><clipPath id="91"><path d="M1.4305E-05 540L960 540L960 540L960 0L960 0L1.4305E-05 0z" /></clipPath><clipPath id="92"><path d="M1.4305E-05 540L960 540L960 540L960 0L960 0L1.4305E-05 0z" /></clipPath><clipPath id="93"><path d="M1.4305E-05 540L960 540L960 540L960 0L960 0L1.4305E-05 0z" /></clipPath><clipPath id="94"><path d="M1.4305E-05 540L960 540L960 540L960 0L960 0L1.4305E-05 0z" /></clipPath><clipPath id="95"><path d="M1.4305E-05 540L960 540L960 540L960 0L960 0L1.4305E-05 0z" /></clipPath><clipPath id="96"><path d="M1.4305E-05 540L960 540L960 540L960 0L960 0L1.4305E-05 0z" /></clipPath><clipPath id="97"><path d="M1.4305E-05 540L960 540L960 540L960 0L960 0L1.4305E-05 0z" /></clipPath><clipPath id="98"><path d="M1.4305E-05 540L960 540L960 540L960 0L960 0L1.4305E-05 0z" /></clipPath><clipPath id="99"><path d="M1.4305E-05 540L960 540L960 540L960 0L960 0L1.4305E-05 0z" /></clipPath><clipPath id="100"><path d="M1.4305E-05 540L960 540L960 540L960 0L960 0L1.4305E-05 0z" /></clipPath><clipPath id="101"><path d="M1.4305E-05 540L960 540L960 540L960 0L960 0L1.4305E-05 0z" /></clipPath><clipPath id="102"><path d="M1.4305E-05 540L960 540L960 540L960 0L960 0L1.4305E-05 0z" /></clipPath><clipPath id="103"><path d="M1.4305E-05 540L960 540L960 540L960 0L960 0L1.4305E-05 0z" /></clipPath><clipPath id="104"><path d="M631.2 239.52L768.6 239.52L768.6 239.52L768.6 205.32L768.6 205.32L631.2 205.32z" /></clipPath><clipPath id="105"><path d="M630 206.28L767.28 206.28L767.28 206.28L767.28 171.36L767.28 171.36L630 171.36z" /></clipPath><clipPath id="106"><path d="M632.16 275.16L768.72 275.16L768.72 275.16L768.72 240.24L768.72 240.24L632.16 240.24z" /></clipPath><clipPath id="107"><path d="M1.4305E-05 540L960 540L960 540L960 0L960 0L1.4305E-05 0z" /></clipPath><clipPath id="108"><path d="M1.4305E-05 540L960 540L960 540L960 0L960 0L1.4305E-05 0z" /></clipPath><clipPath id="109"><path d="M1.4305E-05 540L960 540L960 540L960 0L960 0L1.4305E-05 0z" /></clipPath><clipPath id="110"><path d="M1.4305E-05 540L960 540L960 540L960 0L960 0L1.4305E-05 0z" /></clipPath><clipPath id="111"><path d="M1.4305E-05 540L960 540L960 540L960 0L960 0L1.4305E-05 0z" /></clipPath><clipPath id="112"><path d="M0 0L960 0L960 0L960 539.9998L960 539.9998L3.0518E-05 539.9998" /></clipPath><clipPath id="113"><path d="M0 0L960 0L960 0L960 539.9998L960 539.9998L3.0518E-05 539.9998" /></clipPath><clipPath id="114"><path d="M6.1035E-05 0L960 0L960 0L960 539.9998L960 539.9998L0.00012207 539.9998" /></clipPath><clipPath id="115"><path d="M6.1035E-05 0L960 0L960 0L960 539.9998L960 539.9998L0.00012207 539.9998" /></clipPath><clipPath id="116"><path d="M1.4305E-05 540L960 540L960 540L960 0L960 0L1.4305E-05 0z" /></clipPath></defs><g transform="matrix(1.333333 0 0 1.333333 0 0)"><g><g clip-path="url(#1)"><g clip-path="url(#2)"><path transform="matrix(1 0 0 -1 0 540)" d="M0 6.1035E-05L960 6.1035E-05L960 6.1035E-05L960 540.0001L960 540.0001L0 540.0001z" stroke="none" fill="#FFFFFF" fill-rule="evenodd" /></g><path transform="matrix(1 0 0 -1 0 540)" d="M638.28 49.4C 638.28 53.2 641.36 56.28 645.16 56.28L645.16 56.28L854.12 56.28C 857.92 56.28 861 53.2 861 49.4L861 49.4L861 21.88C 861 18.08 857.92 15 854.12 15L854.12 15L645.16 15C 641.36 15 638.28 18.08 638.28 21.88z" stroke="none" fill="#BDD7EE" fill-rule="evenodd" /><path transform="matrix(1 0 0 -1 0 540)" d="M337.56 51.58C 337.56 55.369 340.63 58.44 344.42 58.44L344.42 58.44L532.42 58.44C 536.21 58.44 539.28 55.369 539.28 51.58L539.28 51.58L539.28 24.14C 539.28 20.351 536.21 17.28 532.42 17.28L532.42 17.28L344.42 17.28C 340.63 17.28 337.56 20.351 337.56 24.14z" stroke="none" fill="#BDD7EE" fill-rule="evenodd" /><path transform="matrix(1 0 0 -1 0 540)" d="M40.56 50.84C 40.56 54.64 43.64 57.72 47.44 57.72L47.44 57.72L199.4 57.72C 203.2 57.72 206.28 54.64 206.28 50.84L206.28 50.84L206.28 23.32C 206.28 19.52 203.2 16.44 199.4 16.44L199.4 16.44L47.44 16.44C 43.64 16.44 40.56 19.52 40.56 23.32z" stroke="none" fill="#BDD7EE" fill-rule="evenodd" /><g clip-path="url(#3)"></g><g clip-path="url(#4)"><g transform="matrix(0.3146182 0 0 0.3146565 32.76 80.28)"><g transform="matrix(1 0 0 1 0 0)"><image x="0" y="0" xlink:href="img_136.png" width="275" height="262" /></g></g></g><g clip-path="url(#5)"></g><g clip-path="url(#6)"><g transform="matrix(0.4292308 0 0 0.429114 31.8 175.8)"><g transform="matrix(1 0 0 1 0 0)"><image x="0" y="0" xlink:href="img_137.png" width="286" height="158" /></g></g></g><g clip-path="url(#7)"></g><g clip-path="url(#8)"></g><g clip-path="url(#9)"></g><path transform="matrix(1 0 0 -1 0 540)" d="M200.7 321.51L218.7 321.51L218.7 321.51L236.7 321.51L236.7 321.51L236.7 320.67L236.7 320.67L218.7 320.67L218.7 320.67L200.7 320.67z" stroke="none" fill="#000000" fill-rule="evenodd" /><g clip-path="url(#10)"></g><g clip-path="url(#11)"></g><g clip-path="url(#12)"></g><path transform="matrix(1 0 0 -1 0 540)" d="M200.7 299.91L218.7 299.91L218.7 299.91L236.7 299.91L236.7 299.91L236.7 299.07L236.7 299.07L218.7 299.07L218.7 299.07L200.7 299.07z" stroke="none" fill="#000000" fill-rule="evenodd" /><g clip-path="url(#13)"><g transform="matrix(0.5215884 0 0 0.5207339 31.08 259.32)"><g transform="matrix(1 0 0 1 0 0)"><image x="0" y="0" xlink:href="img_144.png" width="277" height="109" /></g></g></g><g clip-path="url(#14)"></g><g clip-path="url(#15)"></g><g clip-path="url(#16)"></g><g clip-path="url(#17)"></g><path transform="matrix(1 0 0 -1 0 540)" d="M52.861 177.51L82.861 177.51L82.861 177.51L112.86 177.51L112.86 177.51L142.86 177.51L142.86 177.51L142.86 176.67L142.86 176.67L112.86 176.67L112.86 176.67L82.861 176.67L82.861 176.67L52.861 176.67z" stroke="none" fill="#000000" fill-rule="evenodd" /><g clip-path="url(#18)"></g><g clip-path="url(#19)"></g><g clip-path="url(#20)"></g><g clip-path="url(#21)"></g><g clip-path="url(#22)"></g><g clip-path="url(#23)"></g><g clip-path="url(#24)"></g><g clip-path="url(#25)"><g transform="matrix(0.9240001 0 0 0.923721 329.4 78.84)"><g transform="matrix(1 0 0 1 0 0)"><image x="0" y="0" xlink:href="img_138.png" width="180" height="86" /></g></g></g><g clip-path="url(#26)"></g><g clip-path="url(#27)"></g><g clip-path="url(#28)"></g><g clip-path="url(#29)"></g><g clip-path="url(#30)"></g><path transform="matrix(1 0 0 -1 0 540)" d="M424.95 331.17L460.95 331.17L460.95 331.17L460.95 332.01L460.95 332.01L424.95 332.01z" stroke="none" fill="#FF0000" fill-rule="evenodd" /><g clip-path="url(#31)"></g><g clip-path="url(#32)"><g transform="matrix(0.5215884 0 0 0.5218349 340.8 236.76)"><g transform="matrix(1 0 0 1 0 0)"><image x="0" y="0" xlink:href="img_144.png" width="277" height="109" /></g></g></g><g clip-path="url(#33)"></g><g clip-path="url(#34)"></g><g clip-path="url(#35)"></g><g clip-path="url(#36)"></g><g clip-path="url(#37)"></g><g clip-path="url(#38)"></g><g clip-path="url(#39)"></g><g clip-path="url(#40)"></g><g clip-path="url(#41)"></g><g clip-path="url(#42)"></g><g clip-path="url(#43)"></g><g clip-path="url(#44)"></g><g clip-path="url(#45)"></g><g clip-path="url(#46)"></g><g clip-path="url(#47)"></g><g clip-path="url(#48)"></g><g clip-path="url(#49)"></g><g clip-path="url(#50)"></g><g clip-path="url(#51)"></g><g clip-path="url(#52)"></g><g clip-path="url(#53)"></g><g clip-path="url(#54)"></g><g clip-path="url(#55)"></g><g clip-path="url(#56)"></g><g clip-path="url(#57)"></g><g clip-path="url(#58)"></g><g clip-path="url(#59)"></g><g clip-path="url(#60)"></g><g clip-path="url(#61)"></g><g clip-path="url(#62)"><g transform="matrix(0.5215884 0 0 0.5218349 633.24 26.04004)"><g transform="matrix(1 0 0 1 0 0)"><image x="0" y="0" xlink:href="img_144.png" width="277" height="109" /></g></g></g><g clip-path="url(#63)"></g><g clip-path="url(#64)"></g><path transform="matrix(1 0 0 -1 0 540)" d="M667.95 435.27L703.95 435.27L703.95 435.27L703.95 436.11L703.95 436.11L667.95 436.11z" stroke="none" fill="#000000" fill-rule="evenodd" /><g clip-path="url(#65)"></g><g clip-path="url(#66)"></g><g clip-path="url(#67)"></g><g clip-path="url(#68)"></g><path transform="matrix(1 0 0 -1 0 540)" d="M703.95 392.91L739.95 392.91L739.95 392.91L775.95 392.91L775.95 392.91L775.95 392.07L775.95 392.07L739.95 392.07L739.95 392.07L703.95 392.07z" stroke="none" fill="#000000" fill-rule="evenodd" /><g clip-path="url(#69)"><g transform="matrix(0.4745013 0 0 0.475 634.56 317.04)"><g transform="matrix(1 0 0 1 0 0)"><image x="0" y="0" xlink:href="img_159.png" width="371" height="96" /></g></g></g><g clip-path="url(#70)"><g transform="matrix(0.4741622 0 0 0.4748387 635.04 364.2)"><g transform="matrix(1 0 0 1 0 0)"><image x="0" y="0" xlink:href="img_163.png" width="370" height="93" /></g></g></g><g clip-path="url(#71)"><g transform="matrix(0.4742706 0 0 0.475 634.92 408)"><g transform="matrix(1 0 0 1 0 0)"><image x="0" y="0" xlink:href="img_165.png" width="377" height="96" /></g></g></g><g clip-path="url(#72)"></g><g clip-path="url(#73)"></g><g clip-path="url(#74)"></g><g clip-path="url(#75)"></g><g clip-path="url(#76)"></g><g clip-path="url(#77)"></g><g clip-path="url(#78)"></g><g clip-path="url(#79)"></g><g clip-path="url(#80)"></g><path transform="matrix(1 0 0 -1 0 540)" d="M518.49 109.5L532.53 109.5L532.53 109.5L546.57 109.5L546.57 109.5L560.61 109.5L560.61 109.5L574.65 109.5L574.65 109.5L574.65 108.78L574.65 108.78L560.61 108.78L560.61 108.78L546.57 108.78L546.57 108.78L532.53 108.78L532.53 108.78L518.49 108.78z" stroke="none" fill="#000000" fill-rule="evenodd" /><g clip-path="url(#81)"></g><g clip-path="url(#82)"></g><g clip-path="url(#83)"></g><path transform="matrix(1 0 0 -1 0 540)" d="M80.01 127.77L116.01 127.77L116.01 127.77L116.01 128.61L116.01 128.61L80.01 128.61z" stroke="none" fill="#000000" fill-rule="evenodd" /><g clip-path="url(#84)"></g><g clip-path="url(#85)"></g><g clip-path="url(#86)"></g><g clip-path="url(#87)"></g><g clip-path="url(#88)"></g><g clip-path="url(#89)"></g><g clip-path="url(#90)"></g><g clip-path="url(#91)"></g><g clip-path="url(#92)"></g><g clip-path="url(#93)"></g><g clip-path="url(#94)"></g><g clip-path="url(#95)"></g><g clip-path="url(#96)"></g><g clip-path="url(#97)"></g><g clip-path="url(#98)"></g><g clip-path="url(#99)"></g><g clip-path="url(#100)"></g><g clip-path="url(#101)"></g><g clip-path="url(#102)"></g><g clip-path="url(#103)"></g><g clip-path="url(#104)"><g transform="matrix(0.3683646 0 0 0.3677419 631.2 205.32)"><g transform="matrix(1 0 0 1 0 0)"><image x="0" y="0" xlink:href="img_155.png" width="373" height="93" /></g></g></g><g clip-path="url(#105)"><g transform="matrix(0.3680429 0 0 0.367579 630 171.36)"><g transform="matrix(1 0 0 1 0 0)"><image x="0" y="0" xlink:href="img_156.png" width="373" height="95" /></g></g></g><g clip-path="url(#106)"><g transform="matrix(0.3680862 0 0 0.367579 632.16 240.24)"><g transform="matrix(1 0 0 1 0 0)"><image x="0" y="0" xlink:href="img_169.png" width="371" height="95" /></g></g></g><g clip-path="url(#107)"></g><g clip-path="url(#108)"></g><g clip-path="url(#109)"></g><g clip-path="url(#110)"></g><g clip-path="url(#111)"></g><g clip-path="url(#112)"><path transform="matrix(1 0 0 -1 0 540)" d="M271.08 331.08L295.92 277.86L295.92 277.86L271.08 224.64z" stroke="none" fill="#4472C4" fill-rule="evenodd" /></g><g clip-path="url(#113)"><path transform="matrix(1 0 0 -1 0 540)" d="M271.08 331.08L295.92 277.86L295.92 277.86L271.08 224.64z" stroke="#2F528F" stroke-width="0.96" fill="none" /></g><g clip-path="url(#114)"><path transform="matrix(1 0 0 -1 0 540)" d="M589.08 331.08L613.92 277.86L613.92 277.86L589.08 224.64z" stroke="none" fill="#4472C4" fill-rule="evenodd" /></g><g clip-path="url(#115)"><path transform="matrix(1 0 0 -1 0 540)" d="M589.08 331.08L613.92 277.86L613.92 277.86L589.08 224.64z" stroke="#2F528F" stroke-width="0.96" fill="none" /></g><g clip-path="url(#116)"></g></g></g></g></svg>