<svg xmlns="http://www.w3.org/2000/svg" xmlns:xlink="http://www.w3.org/1999/xlink" id="body_10" preserveAspectRatio="xMinYMin meet" viewBox="0 0 1280 720"><defs><clipPath id="1"><path d="M0 540L0 0L0 0L960 0L960 0L960 540L960 540L0 540z" /></clipPath><clipPath id="2"><path d="M0 539.9999L960 539.9999L960 539.9999L960 -0.0001220703L960 -0.0001220703L0 -0.0001220703z" /></clipPath><clipPath id="3"><path d="M1.4305E-05 540L960 540L960 540L960 0L960 0L1.4305E-05 0z" /></clipPath><clipPath id="4"><path d="M1.4305E-05 540L960 540L960 540L960 0L960 0L1.4305E-05 0z" /></clipPath><clipPath id="5"><path d="M1.4305E-05 540L960 540L960 540L960 0L960 0L1.4305E-05 0z" /></clipPath><clipPath id="6"><path d="M1.4305E-05 540L960 540L960 540L960 0L960 0L1.4305E-05 0z" /></clipPath><clipPath id="7"><path d="M1.4305E-05 540L960 540L960 540L960 0L960 0L1.4305E-05 0z" /></clipPath><clipPath id="8"><path d="M1.4305E-05 540L960 540L960 540L960 0L960 0L1.4305E-05 0z" /></clipPath><clipPath id="9"><path d="M1.4305E-05 540L960 540L960 540L960 0L960 0L1.4305E-05 0z" /></clipPath><clipPath id="10"><path d="M1.4305E-05 540L960 540L960 540L960 0L960 0L1.4305E-05 0z" /></clipPath><clipPath id="11"><path d="M1.4305E-05 540L960 540L960 540L960 0L960 0L1.4305E-05 0z" /></clipPath><clipPath id="12"><path d="M1.4305E-05 540L960 540L960 540L960 0L960 0L1.4305E-05 0z" /></clipPath><clipPath id="13"><path d="M1.4305E-05 540L960 540L960 540L960 0L960 0L1.4305E-05 0z" /></clipPath><clipPath id="14"><path d="M1.4305E-05 540L960 540L960 540L960 0L960 0L1.4305E-05 0z" /></clipPath><clipPath id="15"><path d="M1.4305E-05 540L960 540L960 540L960 0L960 0L1.4305E-05 0z" /></clipPath><clipPath id="16"><path d="M1.4305E-05 540L960 540L960 540L960 0L960 0L1.4305E-05 0z" /></clipPath><clipPath id="17"><path d="M1.4305E-05 540L960 540L960 540L960 0L960 0L1.4305E-05 0z" /></clipPath><clipPath id="18"><path d="M1.4305E-05 540L960 540L960 540L960 0L960 0L1.4305E-05 0z" /></clipPath><clipPath id="19"><path d="M1.4305E-05 540L960 540L960 540L960 0L960 0L1.4305E-05 0z" /></clipPath><clipPath id="20"><path d="M1.4305E-05 540L960 540L960 540L960 0L960 0L1.4305E-05 0z" /></clipPath><clipPath id="21"><path d="M1.4305E-05 540L960 540L960 540L960 0L960 0L1.4305E-05 0z" /></clipPath><clipPath id="22"><path d="M1.4305E-05 540L960 540L960 540L960 0L960 0L1.4305E-05 0z" /></clipPath><clipPath id="23"><path d="M1.4305E-05 540L960 540L960 540L960 0L960 0L1.4305E-05 0z" /></clipPath><clipPath id="24"><path d="M1.4305E-05 540L960 540L960 540L960 0L960 0L1.4305E-05 0z" /></clipPath><clipPath id="25"><path d="M56.28 454.68L112.44 454.68L112.44 454.68L112.44 398.52L112.44 398.52L56.28 398.52z" /></clipPath><clipPath id="26"><path d="M672.24 455.64L726.96 455.64L726.96 455.64L726.96 400.56L726.96 400.56L672.24 400.56z" /></clipPath><clipPath id="27"><path d="M175.8 251.88L231.96 251.88L231.96 251.88L231.96 195.84L231.96 195.84L175.8 195.84z" /></clipPath><clipPath id="28"><path d="M112.2 454.68L168.36 454.68L168.36 454.68L168.36 398.52L168.36 398.52L112.2 398.52z" /></clipPath><clipPath id="29"><path d="M404.4 313.32L459.12 313.32L459.12 313.32L459.12 258.84L459.12 258.84L404.4 258.84z" /></clipPath><clipPath id="30"><path d="M168.12 454.68L224.28 454.68L224.28 454.68L224.28 398.52L224.28 398.52L168.12 398.52z" /></clipPath><clipPath id="31"><path d="M232.44 252L288.6 252L288.6 252L288.6 195.72L288.6 195.72L232.44 195.72z" /></clipPath><clipPath id="32"><path d="M381.24 133.8L437.52 133.8L437.52 133.8L437.52 77.63998L437.52 77.63998L381.24 77.63998z" /></clipPath><clipPath id="33"><path d="M437.88 133.8L494.16 133.8L494.16 133.8L494.16 77.63998L494.16 77.63998L437.88 77.63998z" /></clipPath><clipPath id="34"><path d="M494.52 134.52L550.8 134.52L550.8 134.52L550.8 78.35999L550.8 78.35999L494.52 78.35999z" /></clipPath><clipPath id="35"><path d="M460.32 314.88L516.48 314.88L516.48 314.88L516.48 258.72L516.48 258.72L460.32 258.72z" /></clipPath><clipPath id="36"><path d="M289.08 252L345.24 252L345.24 252L345.24 195.72L345.24 195.72L289.08 195.72z" /></clipPath><clipPath id="37"><path d="M728.04 456.72L784.2 456.72L784.2 456.72L784.2 400.56L784.2 400.56L728.04 400.56z" /></clipPath><clipPath id="38"><path d="M436.56 451.92L492.72 451.92L492.72 451.92L492.72 395.64L492.72 395.64L436.56 395.64z" /></clipPath><clipPath id="39"><path d="M785.28 456.72L841.5601 456.72L841.5601 456.72L841.5601 400.56L841.5601 400.56L785.28 400.56z" /></clipPath><clipPath id="40"><path d="M224.76 454.68L280.92 454.68L280.92 454.68L280.92 398.52L280.92 398.52L224.76 398.52z" /></clipPath><clipPath id="41"><path d="M1.4305E-05 540L960 540L960 540L960 0L960 0L1.4305E-05 0z" /></clipPath><clipPath id="42"><path d="M1.4305E-05 540L960 540L960 540L960 0L960 0L1.4305E-05 0z" /></clipPath><clipPath id="43"><path d="M1.4305E-05 540L960 540L960 540L960 0L960 0L1.4305E-05 0z" /></clipPath><clipPath id="44"><path d="M1.4305E-05 540L960 540L960 540L960 0L960 0L1.4305E-05 0z" /></clipPath><clipPath id="45"><path d="M281.4 453.96L335.52 453.96L335.52 453.96L335.52 399.48L335.52 399.48L281.4 399.48z" /></clipPath><clipPath id="46"><path d="M1.4305E-05 540L960 540L960 540L960 0L960 0L1.4305E-05 0z" /></clipPath><clipPath id="47"><path d="M1.4305E-05 540L960 540L960 540L960 0L960 0L1.4305E-05 0z" /></clipPath></defs><g transform="matrix(1.333333 0 0 1.333333 0 0)"><g><g clip-path="url(#1)"><g clip-path="url(#2)"><path transform="matrix(1 0 0 -1 0 540)" d="M0 6.1035E-05L960 6.1035E-05L960 6.1035E-05L960 540.0001L960 540.0001L0 540.0001z" stroke="none" fill="#FFFFFF" fill-rule="evenodd" /></g><g clip-path="url(#3)"></g><g clip-path="url(#4)"></g><g clip-path="url(#5)"></g><g clip-path="url(#6)"></g><g clip-path="url(#7)"></g><g clip-path="url(#8)"></g><g clip-path="url(#9)"></g><g clip-path="url(#10)"></g><path transform="matrix(1 0 0 -1 0 540)" d="M676.24 160.68L682.24 157.68L682.24 157.68L676.24 154.68zM253.44 154.68L247.44 157.68L247.44 157.68L253.44 160.68zM252.44 158.18L677.24 158.18L677.24 158.18L677.24 157.18L677.24 157.18L252.44 157.18z" stroke="none" fill="#000000" fill-rule="winding" /><path transform="matrix(1 0 0 -1 0 540)" d="M701.98 179.9L704.66 173.75L704.66 173.75L698.13 175.29zM492.04 347.25L489.36 353.4L489.36 353.4L495.89 351.86zM493.52 350.58L701.14 177.34L701.14 177.34L700.5 176.57L700.5 176.57L492.88 349.81z" stroke="none" fill="#000000" fill-rule="winding" /><path transform="matrix(1 0 0 -1 0 540)" d="M227.84 181.96L225.12 175.83L225.12 175.83L231.66 177.33zM437 346.55L439.72 352.68L439.72 352.68L433.18 351.18zM435.54 349.89L228.66 179.39L228.66 179.39L229.3 178.62L229.3 178.62L436.18 349.11z" stroke="none" fill="#000000" fill-rule="winding" /><g clip-path="url(#11)"></g><g clip-path="url(#12)"></g><g clip-path="url(#13)"></g><g clip-path="url(#14)"></g><g clip-path="url(#15)"></g><g clip-path="url(#16)"></g><g clip-path="url(#17)"></g><g clip-path="url(#18)"></g><g clip-path="url(#19)"></g><g clip-path="url(#20)"></g><g clip-path="url(#21)"></g><g clip-path="url(#22)"></g><g clip-path="url(#23)"></g><g clip-path="url(#24)"></g><g clip-path="url(#25)"><g transform="matrix(0.3744 0 0 0.3744 56.28 398.52)"><g transform="matrix(1 0 0 1 0 0)"><image x="0" y="0" xlink:href="img_118.png" width="150" height="150" /></g></g></g><g clip-path="url(#26)"><g transform="matrix(0.3576471 0 0 0.3576623 672.24 400.56)"><g transform="matrix(1 0 0 1 0 0)"><image x="0" y="0" xlink:href="img_119.png" width="153" height="154" /></g></g></g><g clip-path="url(#27)"><g transform="matrix(0.3744 0 0 0.3736 175.8 195.84)"><g transform="matrix(1 0 0 1 0 0)"><image x="0" y="0" xlink:href="img_120.png" width="150" height="150" /></g></g></g><g clip-path="url(#28)"><g transform="matrix(0.3744 0 0 0.3744 112.2 398.52)"><g transform="matrix(1 0 0 1 0 0)"><image x="0" y="0" xlink:href="img_121.png" width="150" height="150" /></g></g></g><g clip-path="url(#29)"><g transform="matrix(0.36 0 0 0.3607947 404.4 258.84)"><g transform="matrix(1 0 0 1 0 0)"><image x="0" y="0" xlink:href="img_122.png" width="152" height="151" /></g></g></g><g clip-path="url(#30)"><g transform="matrix(0.3744 0 0 0.3744 168.12 398.52)"><g transform="matrix(1 0 0 1 0 0)"><image x="0" y="0" xlink:href="img_123.png" width="150" height="150" /></g></g></g><g clip-path="url(#31)"><g transform="matrix(0.3744 0 0 0.3752 232.44 195.72)"><g transform="matrix(1 0 0 1 0 0)"><image x="0" y="0" xlink:href="img_124.png" width="150" height="150" /></g></g></g><g clip-path="url(#32)"><g transform="matrix(0.3752 0 0 0.3744 381.24 77.63998)"><g transform="matrix(1 0 0 1 0 0)"><image x="0" y="0" xlink:href="img_125.png" width="150" height="150" /></g></g></g><g clip-path="url(#33)"><g transform="matrix(0.3752 0 0 0.3744 437.88 77.63998)"><g transform="matrix(1 0 0 1 0 0)"><image x="0" y="0" xlink:href="img_126.png" width="150" height="150" /></g></g></g><g clip-path="url(#34)"><g transform="matrix(0.3752 0 0 0.3744 494.52 78.35999)"><g transform="matrix(1 0 0 1 0 0)"><image x="0" y="0" xlink:href="img_127.png" width="150" height="150" /></g></g></g><g clip-path="url(#35)"><g transform="matrix(0.3744 0 0 0.3744 460.32 258.72)"><g transform="matrix(1 0 0 1 0 0)"><image x="0" y="0" xlink:href="img_128.png" width="150" height="150" /></g></g></g><g clip-path="url(#36)"><g transform="matrix(0.3744 0 0 0.3752 289.08 195.72)"><g transform="matrix(1 0 0 1 0 0)"><image x="0" y="0" xlink:href="img_129.png" width="150" height="150" /></g></g></g><g clip-path="url(#37)"><g transform="matrix(0.3744 0 0 0.3744 728.04 400.56)"><g transform="matrix(1 0 0 1 0 0)"><image x="0" y="0" xlink:href="img_130.png" width="150" height="150" /></g></g></g><g clip-path="url(#38)"><g transform="matrix(0.3744 0 0 0.3752 436.56 395.64)"><g transform="matrix(1 0 0 1 0 0)"><image x="0" y="0" xlink:href="img_131.png" width="150" height="150" /></g></g></g><g clip-path="url(#39)"><g transform="matrix(0.3752 0 0 0.3744 785.28 400.56)"><g transform="matrix(1 0 0 1 0 0)"><image x="0" y="0" xlink:href="img_132.png" width="150" height="150" /></g></g></g><g clip-path="url(#40)"><g transform="matrix(0.3744 0 0 0.3744 224.76 398.52)"><g transform="matrix(1 0 0 1 0 0)"><image x="0" y="0" xlink:href="img_133.png" width="150" height="150" /></g></g></g><g clip-path="url(#41)"></g><g clip-path="url(#42)"></g><g clip-path="url(#43)"></g><g clip-path="url(#44)"></g><g clip-path="url(#45)"><g transform="matrix(0.4261417 0 0 0.425625 281.4 399.48)"><g transform="matrix(1 0 0 1 0 0)"><image x="0" y="0" xlink:href="img_134.png" width="127" height="128" /></g></g></g><g clip-path="url(#46)"></g><g clip-path="url(#47)"></g></g></g></g></svg>