<svg xmlns="http://www.w3.org/2000/svg" xmlns:xlink="http://www.w3.org/1999/xlink" id="body_33" preserveAspectRatio="xMinYMin meet" viewBox="0 0 1280 720"><defs><clipPath id="1"><path d="M0 540L0 0L0 0L960 0L960 0L960 540L960 540L0 540z" /></clipPath><clipPath id="2"><path d="M0 539.9999L960 539.9999L960 539.9999L960 -0.0001220703L960 -0.0001220703L0 -0.0001220703z" /></clipPath><clipPath id="3"><path d="M1.4305E-05 540L960 540L960 540L960 0L960 0L1.4305E-05 0z" /></clipPath><clipPath id="4"><path d="M1.4305E-05 540L960 540L960 540L960 0L960 0L1.4305E-05 0z" /></clipPath><clipPath id="5"><path d="M1.4305E-05 540L960 540L960 540L960 0L960 0L1.4305E-05 0z" /></clipPath><clipPath id="6"><path d="M1.4305E-05 540L960 540L960 540L960 0L960 0L1.4305E-05 0z" /></clipPath><clipPath id="7"><path d="M1.4305E-05 540L960 540L960 540L960 0L960 0L1.4305E-05 0z" /></clipPath><clipPath id="8"><path d="M1.4305E-05 540L960 540L960 540L960 0L960 0L1.4305E-05 0z" /></clipPath><clipPath id="9"><path d="M1.4305E-05 540L960 540L960 540L960 0L960 0L1.4305E-05 0z" /></clipPath><clipPath id="10"><path d="M1.4305E-05 540L960 540L960 540L960 0L960 0L1.4305E-05 0z" /></clipPath><clipPath id="11"><path d="M1.4305E-05 540L960 540L960 540L960 0L960 0L1.4305E-05 0z" /></clipPath><clipPath id="12"><path d="M21.24 111.6L285.84 111.6L285.84 111.6L285.84 73.32001L285.84 73.32001L21.24 73.32001z" /></clipPath><clipPath id="13"><path d="M348.72 119.64L609.12 119.64L609.12 119.64L609.12 76.32001L609.12 76.32001L348.72 76.32001z" /></clipPath><clipPath id="14"><path d="M1.4305E-05 540L960 540L960 540L960 0L960 0L1.4305E-05 0z" /></clipPath><clipPath id="15"><path d="M1.4305E-05 540L960 540L960 540L960 0L960 0L1.4305E-05 0z" /></clipPath><clipPath id="16"><path d="M1.4305E-05 540L960 540L960 540L960 0L960 0L1.4305E-05 0z" /></clipPath><clipPath id="17"><path d="M1.4305E-05 540L960 540L960 540L960 0L960 0L1.4305E-05 0z" /></clipPath><clipPath id="18"><path d="M1.4305E-05 540L960 540L960 540L960 0L960 0L1.4305E-05 0z" /></clipPath><clipPath id="19"><path d="M208.44 390.48L279.24 390.48L279.24 390.48L279.24 320.88L279.24 320.88L208.44 320.88z" /></clipPath><clipPath id="20"><path d="M37.8 389.04L108.6 389.04L108.6 389.04L108.6 319.44L108.6 319.44L37.8 319.44z" /></clipPath><clipPath id="21"><path d="M31.08 406.44L113.88 406.44L113.88 406.44L113.88 388.44L113.88 388.44L31.08 388.44z" /></clipPath><clipPath id="22"><path d="M31.92 467.28L114.6 467.28L114.6 467.28L114.6 405.48L114.6 405.48L31.92 405.48z" /></clipPath><clipPath id="23"><path d="M202.2 408.96L282.24 408.96L282.24 408.96L282.24 389.4L282.24 389.4L202.2 389.4z" /></clipPath><clipPath id="24"><path d="M202.44 464.88L282.24 464.88L282.24 464.88L282.24 409.32L282.24 409.32L202.44 409.32z" /></clipPath><clipPath id="25"><path d="M21.24 170.88L67.56 170.88L67.56 170.88L67.56 125.76L67.56 125.76L21.24 125.76z" /></clipPath><clipPath id="26"><path d="M1.4305E-05 540L960 540L960 540L960 0L960 0L1.4305E-05 0z" /></clipPath><clipPath id="27"><path d="M1.4305E-05 540L960 540L960 540L960 0L960 0L1.4305E-05 0z" /></clipPath><clipPath id="28"><path d="M1.4305E-05 540L960 540L960 540L960 0L960 0L1.4305E-05 0z" /></clipPath><clipPath id="29"><path d="M1.4305E-05 540L960 540L960 540L960 0L960 0L1.4305E-05 0z" /></clipPath><clipPath id="30"><path d="M243.24 184.56L280.08 184.56L280.08 184.56L280.08 148.08L280.08 148.08L243.24 148.08z" /></clipPath><clipPath id="31"><path d="M25.8 248.88L255.12 248.88L255.12 248.88L255.12 207.12L255.12 207.12L25.8 207.12z" /></clipPath><clipPath id="32"><path d="M1.4305E-05 540L960 540L960 540L960 0L960 0L1.4305E-05 0z" /></clipPath><clipPath id="33"><path d="M1.4305E-05 540L960 540L960 540L960 0L960 0L1.4305E-05 0z" /></clipPath><clipPath id="34"><path d="M1.4305E-05 540L960 540L960 540L960 0L960 0L1.4305E-05 0z" /></clipPath><clipPath id="35"><path d="M1.4305E-05 540L960 540L960 540L960 0L960 0L1.4305E-05 0z" /></clipPath><clipPath id="36"><path d="M1.4305E-05 540L960 540L960 540L960 0L960 0L1.4305E-05 0z" /></clipPath><clipPath id="37"><path d="M1.4305E-05 540L960 540L960 540L960 0L960 0L1.4305E-05 0z" /></clipPath><clipPath id="38"><path d="M1.4305E-05 540L960 540L960 540L960 0L960 0L1.4305E-05 0z" /></clipPath><clipPath id="39"><path d="M1.4305E-05 540L960 540L960 540L960 0L960 0L1.4305E-05 0z" /></clipPath><clipPath id="40"><path d="M1.4305E-05 540L960 540L960 540L960 0L960 0L1.4305E-05 0z" /></clipPath><clipPath id="41"><path d="M1.4305E-05 540L960 540L960 540L960 0L960 0L1.4305E-05 0z" /></clipPath><clipPath id="42"><path d="M1.4305E-05 540L960 540L960 540L960 0L960 0L1.4305E-05 0z" /></clipPath><clipPath id="43"><path d="M1.4305E-05 540L960 540L960 540L960 0L960 0L1.4305E-05 0z" /></clipPath><clipPath id="44"><path d="M1.4305E-05 540L960 540L960 540L960 0L960 0L1.4305E-05 0z" /></clipPath><clipPath id="45"><path d="M1.4305E-05 540L960 540L960 540L960 0L960 0L1.4305E-05 0z" /></clipPath><clipPath id="46"><path d="M657 319.68L952.8 319.68L952.8 319.68L952.8 264.24L952.8 264.24L657 264.24z" /></clipPath><clipPath id="47"><path d="M377.88 196.92L577.8 196.92L577.8 196.92L577.8 150.48L577.8 150.48L377.88 150.48z" /></clipPath><clipPath id="48"><path d="M1.4305E-05 540L960 540L960 540L960 0L960 0L1.4305E-05 0z" /></clipPath><clipPath id="49"><path d="M1.4305E-05 540L960 540L960 540L960 0L960 0L1.4305E-05 0z" /></clipPath><clipPath id="50"><path d="M1.4305E-05 540L960 540L960 540L960 0L960 0L1.4305E-05 0z" /></clipPath><clipPath id="51"><path d="M371.88 331.44L583.8 331.44L583.8 331.44L583.8 312.24L583.8 312.24L371.88 312.24z" /></clipPath><clipPath id="52"><path d="M372.36 313.2L568.92 313.2L568.92 313.2L568.92 293.04L568.92 293.04L372.36 293.04z" /></clipPath><clipPath id="53"><path d="M372 294.72L487.44 294.72L487.44 294.72L487.44 274.08L487.44 274.08L372 274.08z" /></clipPath><clipPath id="54"><path d="M371.88 379.56L598.2 379.56L598.2 379.56L598.2 330.36L598.2 330.36L371.88 330.36z" /></clipPath><clipPath id="55"><path d="M1.4305E-05 540L960 540L960 540L960 0L960 0L1.4305E-05 0z" /></clipPath><clipPath id="56"><path d="M1.4305E-05 540L960 540L960 540L960 0L960 0L1.4305E-05 0z" /></clipPath><clipPath id="57"><path d="M1.4305E-05 540L960 540L960 540L960 0L960 0L1.4305E-05 0z" /></clipPath><clipPath id="58"><path d="M1.4305E-05 540L960 540L960 540L960 0L960 0L1.4305E-05 0z" /></clipPath><clipPath id="59"><path d="M1.4305E-05 540L960 540L960 540L960 0L960 0L1.4305E-05 0z" /></clipPath><clipPath id="60"><path d="M1.4305E-05 540L960 540L960 540L960 0L960 0L1.4305E-05 0z" /></clipPath><clipPath id="61"><path d="M364.8 484.44L436.8 484.44L436.8 484.44L436.8 414.12L436.8 414.12L364.8 414.12z" /></clipPath><clipPath id="62"><path d="M517.32 483.72L588.12 483.72L588.12 483.72L588.12 413.4L588.12 413.4L517.32 413.4z" /></clipPath><clipPath id="63"><path d="M1.4305E-05 540L960 540L960 540L960 0L960 0L1.4305E-05 0z" /></clipPath><clipPath id="64"><path d="M1.4305E-05 540L960 540L960 540L960 0L960 0L1.4305E-05 0z" /></clipPath><clipPath id="65"><path d="M1.4305E-05 540L960 540L960 540L960 0L960 0L1.4305E-05 0z" /></clipPath><clipPath id="66"><path d="M1.4305E-05 540L960 540L960 540L960 0L960 0L1.4305E-05 0z" /></clipPath><clipPath id="67"><path d="M1.4305E-05 540L960 540L960 540L960 0L960 0L1.4305E-05 0z" /></clipPath><clipPath id="68"><path d="M1.4305E-05 540L960 540L960 540L960 0L960 0L1.4305E-05 0z" /></clipPath><clipPath id="69"><path d="M1.4305E-05 540L960 540L960 540L960 0L960 0L1.4305E-05 0z" /></clipPath><clipPath id="70"><path d="M1.4305E-05 540L960 540L960 540L960 0L960 0L1.4305E-05 0z" /></clipPath><clipPath id="71"><path d="M1.4305E-05 540L960 540L960 540L960 0L960 0L1.4305E-05 0z" /></clipPath><clipPath id="72"><path d="M656.88 114.48L947.52 114.48L947.52 114.48L947.52 70.20001L947.52 70.20001L656.88 70.20001z" /></clipPath><clipPath id="73"><path d="M377.76 222.48L578.16 222.48L578.16 222.48L578.16 195.12L578.16 195.12L377.76 195.12z" /></clipPath><clipPath id="74"><path d="M1.4305E-05 540L960 540L960 540L960 0L960 0L1.4305E-05 0z" /></clipPath><clipPath id="75"><path d="M1.4305E-05 540L960 540L960 540L960 0L960 0L1.4305E-05 0z" /></clipPath><clipPath id="76"><path d="M1.4305E-05 540L960 540L960 540L960 0L960 0L1.4305E-05 0z" /></clipPath><clipPath id="77"><path d="M1.4305E-05 540L960 540L960 540L960 0L960 0L1.4305E-05 0z" /></clipPath><clipPath id="78"><path d="M1.4305E-05 540L960 540L960 540L960 0L960 0L1.4305E-05 0z" /></clipPath><clipPath id="79"><path d="M1.4305E-05 540L960 540L960 540L960 0L960 0L1.4305E-05 0z" /></clipPath><clipPath id="80"><path d="M1.4305E-05 540L960 540L960 540L960 0L960 0L1.4305E-05 0z" /></clipPath><clipPath id="81"><path d="M1.4305E-05 540L960 540L960 540L960 0L960 0L1.4305E-05 0z" /></clipPath><clipPath id="82"><path d="M657.36 358.44L883.2 358.44L883.2 358.44L883.2 320.28L883.2 320.28L657.36 320.28z" /></clipPath><clipPath id="83"><path d="M657.6 376.32L816 376.32L816 376.32L816 357.84L816 357.84L657.6 357.84z" /></clipPath><clipPath id="84"><path d="M657.48 388.8L804.96 388.8L804.96 388.8L804.96 375L804.96 375L657.48 375z" /></clipPath><clipPath id="85"><path d="M656.64 157.2L948.24 157.2L948.24 157.2L948.24 114.6L948.24 114.6L656.64 114.6z" /></clipPath><clipPath id="86"><path d="M656.52 196.56L948 196.56L948 196.56L948 156.84L948 156.84L656.52 156.84z" /></clipPath><clipPath id="87"><path d="M655.8 238.68L948.24 238.68L948.24 238.68L948.24 195.72L948.24 195.72L655.8 195.72z" /></clipPath><clipPath id="88"><path d="M660.96 444.24L946.2 444.24L946.2 444.24L946.2 418.56L946.2 418.56L660.96 418.56z" /></clipPath><clipPath id="89"><path d="M1.4305E-05 540L960 540L960 540L960 0L960 0L1.4305E-05 0z" /></clipPath><clipPath id="90"><path d="M1.4305E-05 540L960 540L960 540L960 0L960 0L1.4305E-05 0z" /></clipPath><clipPath id="91"><path d="M1.4305E-05 540L960 540L960 540L960 0L960 0L1.4305E-05 0z" /></clipPath><clipPath id="92"><path d="M1.4305E-05 540L960 540L960 540L960 0L960 0L1.4305E-05 0z" /></clipPath><clipPath id="93"><path d="M1.4305E-05 540L960 540L960 540L960 0L960 0L1.4305E-05 0z" /></clipPath><clipPath id="94"><path d="M1.4305E-05 540L960 540L960 540L960 0L960 0L1.4305E-05 0z" /></clipPath><clipPath id="95"><path d="M660.6 538.5598L731.4 538.5598L731.4 538.5598L731.4 468.3598L731.4 468.3598L660.6 468.3598z" /></clipPath><clipPath id="96"><path d="M760.08 537.7198L831.6 537.7198L831.6 537.7198L831.6 467.5198L831.6 467.5198L760.08 467.5198z" /></clipPath><clipPath id="97"><path d="M1.4305E-05 540L960 540L960 540L960 0L960 0L1.4305E-05 0z" /></clipPath><clipPath id="98"><path d="M1.4305E-05 540L960 540L960 540L960 0L960 0L1.4305E-05 0z" /></clipPath><clipPath id="99"><path d="M22.08 295.2L276.12 295.2L276.12 295.2L276.12 274.32L276.12 274.32L22.08 274.32z" /></clipPath><clipPath id="100"><path d="M1.4305E-05 540L960 540L960 540L960 0L960 0L1.4305E-05 0z" /></clipPath><clipPath id="101"><path d="M1.4305E-05 540L960 540L960 540L960 0L960 0L1.4305E-05 0z" /></clipPath><clipPath id="102"><path d="M1.4305E-05 540L960 540L960 540L960 0L960 0L1.4305E-05 0z" /></clipPath><clipPath id="103"><path d="M1.4305E-05 540L960 540L960 540L960 0L960 0L1.4305E-05 0z" /></clipPath><clipPath id="104"><path d="M1.4305E-05 540L960 540L960 540L960 0L960 0L1.4305E-05 0z" /></clipPath><clipPath id="105"><path d="M861.36 537.7198L933 537.7198L933 537.7198L933 466.1998L933 466.1998L861.36 466.1998z" /></clipPath><clipPath id="106"><path d="M1.4305E-05 540L960 540L960 540L960 0L960 0L1.4305E-05 0z" /></clipPath><clipPath id="107"><path d="M1.4305E-05 540L960 540L960 540L960 0L960 0L1.4305E-05 0z" /></clipPath></defs><g transform="matrix(1.333333 0 0 1.333333 0 0)"><g><g clip-path="url(#1)"><g clip-path="url(#2)"><path transform="matrix(1 0 0 -1 0 540)" d="M0 6.1035E-05L960 6.1035E-05L960 6.1035E-05L960 540.0001L960 540.0001L0 540.0001z" stroke="none" fill="#FFFFFF" fill-rule="evenodd" /></g><path transform="matrix(1 0 0 -1 0 540)" d="M321.54 528.78L321.54 8.7025" stroke="#000000" stroke-width="1.56" stroke-dasharray="8,3" fill="none" /><path transform="matrix(1 0 0 -1 0 540)" d="M642.66 529.5L642.66 9.4224" stroke="#000000" stroke-width="1.56" stroke-dasharray="8,3" fill="none" /><g clip-path="url(#3)"></g><g clip-path="url(#4)"></g><g clip-path="url(#5)"></g><g clip-path="url(#6)"></g><g clip-path="url(#7)"></g><g clip-path="url(#8)"></g><g clip-path="url(#9)"></g><g clip-path="url(#10)"></g><g clip-path="url(#11)"></g><g clip-path="url(#12)"><g transform="matrix(0.4964353 0 0 0.4971429 21.24 73.32001)"><g transform="matrix(1 0 0 1 0 0)"><image x="0" y="0" xlink:href="img_220.png" width="533" height="77" /></g></g></g><g clip-path="url(#13)"><g transform="matrix(0.5208 0 0 0.5219277 348.72 76.32001)"><g transform="matrix(1 0 0 1 0 0)"><image x="0" y="0" xlink:href="img_221.png" width="500" height="83" /></g></g></g><g clip-path="url(#14)"></g><g clip-path="url(#15)"></g><g clip-path="url(#16)"></g><g clip-path="url(#17)"></g><g clip-path="url(#18)"></g><g clip-path="url(#19)"><g transform="matrix(0.6 0 0 0.6 208.44 320.88)"><g transform="matrix(1 0 0 1 0 0)"><image x="0" y="0" xlink:href="img_234.png" width="118" height="116" /></g></g></g><g clip-path="url(#20)"><g transform="matrix(0.6 0 0 0.6 37.8 319.44)"><g transform="matrix(1 0 0 1 0 0)"><image x="0" y="0" xlink:href="img_235.png" width="118" height="116" /></g></g></g><g clip-path="url(#21)"><g transform="matrix(0.6 0 0 0.6 31.08 388.44)"><g transform="matrix(1 0 0 1 0 0)"><image x="0" y="0" xlink:href="img_236.png" width="138" height="30" /></g></g></g><g clip-path="url(#22)"><g transform="matrix(0.8351515 0 0 0.8351352 31.92 405.48)"><g transform="matrix(1 0 0 1 0 0)"><image x="0" y="0" xlink:href="img_237.png" width="99" height="74" /></g></g></g><g clip-path="url(#23)"><g transform="matrix(0.7276363 0 0 0.7244444 202.2 389.4)"><g transform="matrix(1 0 0 1 0 0)"><image x="0" y="0" xlink:href="img_238.png" width="110" height="27" /></g></g></g><g clip-path="url(#24)"><g transform="matrix(0.782353 0 0 0.7825352 202.44 409.32)"><g transform="matrix(1 0 0 1 0 0)"><image x="0" y="0" xlink:href="img_239.png" width="102" height="71" /></g></g></g><g clip-path="url(#25)"><g transform="matrix(0.6015584 0 0 0.6016 21.24 125.76)"><g transform="matrix(1 0 0 1 0 0)"><image x="0" y="0" xlink:href="img_240.png" width="77" height="75" /></g></g></g><g clip-path="url(#26)"></g><g clip-path="url(#27)"></g><g clip-path="url(#28)"></g><g clip-path="url(#29)"></g><g clip-path="url(#30)"><g transform="matrix(0.3148718 0 0 0.3144827 243.24 148.08)"><g transform="matrix(1 0 0 1 0 0)"><image x="0" y="0" xlink:href="img_241.png" width="117" height="116" /></g></g></g><g clip-path="url(#31)"><g transform="matrix(0.52 0 0 0.522 25.8 207.12)"><g transform="matrix(1 0 0 1 0 0)"><image x="0" y="0" xlink:href="img_242.png" width="441" height="80" /></g></g></g><g clip-path="url(#32)"></g><g clip-path="url(#33)"></g><g clip-path="url(#34)"></g><g clip-path="url(#35)"></g><g clip-path="url(#36)"></g><g clip-path="url(#37)"></g><g clip-path="url(#38)"></g><g clip-path="url(#39)"></g><g clip-path="url(#40)"></g><g clip-path="url(#41)"></g><g clip-path="url(#42)"></g><g clip-path="url(#43)"></g><g clip-path="url(#44)"></g><g clip-path="url(#45)"></g><g clip-path="url(#46)"><g transform="matrix(0.6632287 0 0 0.66 657 264.24)"><g transform="matrix(1 0 0 1 0 0)"><image x="0" y="0" xlink:href="img_243.png" width="446" height="84" /></g></g></g><g clip-path="url(#47)"><g transform="matrix(0.6003604 0 0 0.6031169 377.88 150.48)"><g transform="matrix(1 0 0 1 0 0)"><image x="0" y="0" xlink:href="img_244.png" width="333" height="77" /></g></g></g><g clip-path="url(#48)"></g><g clip-path="url(#49)"></g><g clip-path="url(#50)"></g><g clip-path="url(#51)"><g transform="matrix(0.6003399 0 0 0.6 371.88 312.24)"><g transform="matrix(1 0 0 1 0 0)"><image x="0" y="0" xlink:href="img_245.png" width="353" height="32" /></g></g></g><g clip-path="url(#52)"><g transform="matrix(0.84 0 0 0.84 372.36 293.04)"><g transform="matrix(1 0 0 1 0 0)"><image x="0" y="0" xlink:href="img_246.png" width="234" height="24" /></g></g></g><g clip-path="url(#53)"><g transform="matrix(0.7645033 0 0 0.7644444 372 274.08)"><g transform="matrix(1 0 0 1 0 0)"><image x="0" y="0" xlink:href="img_247.png" width="151" height="27" /></g></g></g><g clip-path="url(#54)"><g transform="matrix(0.6003183 0 0 0.6 371.88 330.36)"><g transform="matrix(1 0 0 1 0 0)"><image x="0" y="0" xlink:href="img_248.png" width="377" height="82" /></g></g></g><g clip-path="url(#55)"></g><g clip-path="url(#56)"></g><g clip-path="url(#57)"></g><g clip-path="url(#58)"></g><g clip-path="url(#59)"></g><g clip-path="url(#60)"></g><g clip-path="url(#61)"><g transform="matrix(0.6 0 0 0.6010256 364.8 414.12)"><g transform="matrix(1 0 0 1 0 0)"><image x="0" y="0" xlink:href="img_249.png" width="120" height="117" /></g></g></g><g clip-path="url(#62)"><g transform="matrix(0.6 0 0 0.6010256 517.32 413.4)"><g transform="matrix(1 0 0 1 0 0)"><image x="0" y="0" xlink:href="img_250.png" width="118" height="117" /></g></g></g><g clip-path="url(#63)"></g><g clip-path="url(#64)"></g><g clip-path="url(#65)"></g><g clip-path="url(#66)"></g><g clip-path="url(#67)"></g><g clip-path="url(#68)"></g><g clip-path="url(#69)"></g><g clip-path="url(#70)"></g><g clip-path="url(#71)"></g><g clip-path="url(#72)"><g transform="matrix(0.5676563 0 0 0.5676923 656.88 70.20001)"><g transform="matrix(1 0 0 1 0 0)"><image x="0" y="0" xlink:href="img_251.png" width="512" height="78" /></g></g></g><g clip-path="url(#73)"><g transform="matrix(0.7590909 0 0 0.7600001 377.76 195.12)"><g transform="matrix(1 0 0 1 0 0)"><image x="0" y="0" xlink:href="img_252.png" width="264" height="36" /></g></g></g><g clip-path="url(#74)"></g><g clip-path="url(#75)"></g><g clip-path="url(#76)"></g><g clip-path="url(#77)"></g><g clip-path="url(#78)"></g><g clip-path="url(#79)"></g><g clip-path="url(#80)"></g><g clip-path="url(#81)"></g><g clip-path="url(#82)"><g transform="matrix(0.8302941 0 0 0.8295652 657.36 320.28)"><g transform="matrix(1 0 0 1 0 0)"><image x="0" y="0" xlink:href="img_253.png" width="272" height="46" /></g></g></g><g clip-path="url(#83)"><g transform="matrix(0.6 0 0 0.596129 657.6 357.84)"><g transform="matrix(1 0 0 1 0 0)"><image x="0" y="0" xlink:href="img_254.png" width="264" height="31" /></g></g></g><g clip-path="url(#84)"><g transform="matrix(0.6275744 0 0 0.6272727 657.48 375)"><g transform="matrix(1 0 0 1 0 0)"><image x="0" y="0" xlink:href="img_255.png" width="235" height="22" /></g></g></g><g clip-path="url(#85)"><g transform="matrix(0.5244604 0 0 0.5259259 656.64 114.6)"><g transform="matrix(1 0 0 1 0 0)"><image x="0" y="0" xlink:href="img_256.png" width="556" height="81" /></g></g></g><g clip-path="url(#86)"><g transform="matrix(0.5149823 0 0 0.5158442 656.52 156.84)"><g transform="matrix(1 0 0 1 0 0)"><image x="0" y="0" xlink:href="img_257.png" width="566" height="77" /></g></g></g><g clip-path="url(#87)"><g transform="matrix(0.5570286 0 0 0.5579221 655.8 195.72)"><g transform="matrix(1 0 0 1 0 0)"><image x="0" y="0" xlink:href="img_258.png" width="525" height="77" /></g></g></g><g clip-path="url(#88)"><g transform="matrix(0.9171703 0 0 0.9171429 660.96 418.56)"><g transform="matrix(1 0 0 1 0 0)"><image x="0" y="0" xlink:href="img_259.png" width="311" height="28" /></g></g></g><g clip-path="url(#89)"></g><g clip-path="url(#90)"></g><g clip-path="url(#91)"></g><g clip-path="url(#92)"></g><g clip-path="url(#93)"></g><g clip-path="url(#94)"></g><g clip-path="url(#95)"><g transform="matrix(0.6 0 0 0.6 660.6 468.3599)"><g transform="matrix(1 0 0 1 0 0)"><image x="0" y="0" xlink:href="img_260.png" width="118" height="117" /></g></g></g><g clip-path="url(#96)"><g transform="matrix(0.6010084 0 0 0.6 760.08 467.52)"><g transform="matrix(1 0 0 1 0 0)"><image x="0" y="0" xlink:href="img_261.png" width="119" height="117" /></g></g></g><g clip-path="url(#97)"></g><g clip-path="url(#98)"></g><path transform="matrix(1 0 0 -1 0 540)" d="M198.42 454.02L246.14 454.02" stroke="#FF0000" stroke-width="1.56" fill="none" /><path transform="matrix(1 0 0 -1 0 540)" d="M499.86 448.38L547.58 448.38" stroke="#FF0000" stroke-width="1.56" fill="none" /><path transform="matrix(1 0 0 -1 0 540)" d="M477.3 375.06L525.02 375.06" stroke="#FF0000" stroke-width="1.56" fill="none" /><path transform="matrix(1 0 0 -1 0 540)" d="M913.02 453.78L927.76 453.78" stroke="#FF0000" stroke-width="1.56" fill="none" /><path transform="matrix(1 0 0 -1 0 540)" d="M744.3 453.78L759.04 453.78" stroke="#FF0000" stroke-width="1.56" fill="none" /><path transform="matrix(1 0 0 -1 0 540)" d="M749.82 410.46L764.56 410.46" stroke="#FF0000" stroke-width="1.56" fill="none" /><path transform="matrix(1 0 0 -1 0 540)" d="M878.1 410.46L892.84 410.46" stroke="#FF0000" stroke-width="1.56" fill="none" /><path transform="matrix(1 0 0 -1 0 540)" d="M892.14 329.46L910.14 329.46" stroke="#FF0000" stroke-width="1.56" fill="none" /><path transform="matrix(1 0 0 -1 0 540)" d="M843.78 369.9L861.78 369.9" stroke="#FF0000" stroke-width="1.56" fill="none" /><path transform="matrix(1 0 0 -1 0 540)" d="M821.94 259.26L854.41 259.26" stroke="#FF0000" stroke-width="1.56" fill="none" /><path transform="matrix(1 0 0 -1 0 540)" d="M837.54 184.86L877.82 184.86" stroke="#FF0000" stroke-width="1.56" fill="none" /><path transform="matrix(1 0 0 -1 0 540)" d="M778.14 166.86L807.02 166.86" stroke="#FF0000" stroke-width="1.56" fill="none" /><path transform="matrix(1 0 0 -1 0 540)" d="M763.74 151.86L798.01 151.86" stroke="#FF0000" stroke-width="1.56" fill="none" /><path transform="matrix(1 0 0 -1 0 540)" d="M868.74 99.66L916.81 99.66" stroke="#FF0000" stroke-width="1.56" fill="none" /><g clip-path="url(#99)"><g transform="matrix(0.8699999 0 0 0.87 22.08 274.32)"><g transform="matrix(1 0 0 1 0 0)"><image x="0" y="0" xlink:href="img_262.png" width="292" height="24" /></g></g></g><g clip-path="url(#100)"></g><g clip-path="url(#101)"></g><g clip-path="url(#102)"></g><g clip-path="url(#103)"></g><path transform="matrix(1 0 0 -1 0 540)" d="M201.42 247.62L249.14 247.62" stroke="#FF0000" stroke-width="1.56" fill="none" /><path transform="matrix(1 0 0 -1 0 540)" d="M17.52 495.24L89.52 495.24L89.52 495.24L89.52 527.4L89.52 527.4L17.52 527.4z" stroke="none" fill="#00B0F0" fill-rule="evenodd" /><path transform="matrix(1 0 0 -1 0 540)" d="M24 500.64L81.96 500.64L81.96 500.64L81.96 521.64L81.96 521.64L24 521.64z" stroke="none" fill="#BDD7EE" fill-rule="evenodd" /><g clip-path="url(#104)"></g><g clip-path="url(#105)"><g transform="matrix(0.4776 0 0 0.4768 861.36 466.2)"><g transform="matrix(1 0 0 1 0 0)"><image x="0" y="0" xlink:href="img_263.png" width="150" height="150" /></g></g></g><g clip-path="url(#106)"></g><g clip-path="url(#107)"></g></g></g></g></svg>