<svg xmlns="http://www.w3.org/2000/svg" xmlns:xlink="http://www.w3.org/1999/xlink" id="body_35" preserveAspectRatio="xMinYMin meet" viewBox="0 0 1280 720"><defs><clipPath id="1"><path d="M0 540L0 0L0 0L960 0L960 0L960 540L960 540L0 540z" /></clipPath><clipPath id="2"><path d="M0 539.9999L960 539.9999L960 539.9999L960 -0.0001220703L960 -0.0001220703L0 -0.0001220703z" /></clipPath><clipPath id="3"><path d="M48.96 180.48L161.52 180.48L161.52 180.48L161.52 67.92001L161.52 67.92001L48.96 67.92001z" /></clipPath><clipPath id="4"><path d="M1.4305E-05 540L960 540L960 540L960 0L960 0L1.4305E-05 0z" /></clipPath><clipPath id="5"><path d="M1.4305E-05 540L960 540L960 540L960 0L960 0L1.4305E-05 0z" /></clipPath><clipPath id="6"><path d="M1.4305E-05 540L960 540L960 540L960 0L960 0L1.4305E-05 0z" /></clipPath><clipPath id="7"><path d="M1.4305E-05 540L960 540L960 540L960 0L960 0L1.4305E-05 0z" /></clipPath><clipPath id="8"><path d="M1.4305E-05 540L960 540L960 540L960 0L960 0L1.4305E-05 0z" /></clipPath><clipPath id="9"><path d="M1.4305E-05 540L960 540L960 540L960 0L960 0L1.4305E-05 0z" /></clipPath><clipPath id="10"><path d="M1.4305E-05 540L960 540L960 540L960 0L960 0L1.4305E-05 0z" /></clipPath><clipPath id="11"><path d="M1.4305E-05 540L960 540L960 540L960 0L960 0L1.4305E-05 0z" /></clipPath><clipPath id="12"><path d="M1.4305E-05 540L960 540L960 540L960 0L960 0L1.4305E-05 0z" /></clipPath><clipPath id="13"><path d="M1.4305E-05 540L960 540L960 540L960 0L960 0L1.4305E-05 0z" /></clipPath><clipPath id="14"><path d="M1.4305E-05 540L960 540L960 540L960 0L960 0L1.4305E-05 0z" /></clipPath><clipPath id="15"><path d="M1.4305E-05 540L960 540L960 540L960 0L960 0L1.4305E-05 0z" /></clipPath><clipPath id="16"><path d="M1.4305E-05 540L960 540L960 540L960 0L960 0L1.4305E-05 0z" /></clipPath><clipPath id="17"><path d="M1.4305E-05 540L960 540L960 540L960 0L960 0L1.4305E-05 0z" /></clipPath><clipPath id="18"><path d="M1.4305E-05 540L960 540L960 540L960 0L960 0L1.4305E-05 0z" /></clipPath><clipPath id="19"><path d="M1.4305E-05 540L960 540L960 540L960 0L960 0L1.4305E-05 0z" /></clipPath><clipPath id="20"><path d="M1.4305E-05 540L960 540L960 540L960 0L960 0L1.4305E-05 0z" /></clipPath><clipPath id="21"><path d="M25.32 406.92L113.88 406.92L113.88 406.92L113.88 319.8L113.88 319.8L25.32 319.8z" /></clipPath><clipPath id="22"><path d="M338.4 147.36L392.4 147.36L392.4 147.36L392.4 93L392.4 93L338.4 93z" /></clipPath><clipPath id="23"><path d="M391.56 147.36L446.28 147.36L446.28 147.36L446.28 93L446.28 93L391.56 93z" /></clipPath><clipPath id="24"><path d="M1.4305E-05 540L960 540L960 540L960 0L960 0L1.4305E-05 0z" /></clipPath><clipPath id="25"><path d="M1.4305E-05 540L960 540L960 540L960 0L960 0L1.4305E-05 0z" /></clipPath><clipPath id="26"><path d="M1.4305E-05 540L960 540L960 540L960 0L960 0L1.4305E-05 0z" /></clipPath><clipPath id="27"><path d="M337.92 233.76L391.92 233.76L391.92 233.76L391.92 180.12L391.92 180.12L337.92 180.12z" /></clipPath><clipPath id="28"><path d="M390.12 234.6L445.2 234.6L445.2 234.6L445.2 180.24L445.2 180.24L390.12 180.24z" /></clipPath><clipPath id="29"><path d="M444.96 234.48L499.68 234.48L499.68 234.48L499.68 181.2L499.68 181.2L444.96 181.2z" /></clipPath><clipPath id="30"><path d="M1.4305E-05 540L960 540L960 540L960 0L960 0L1.4305E-05 0z" /></clipPath><clipPath id="31"><path d="M1.4305E-05 540L960 540L960 540L960 0L960 0L1.4305E-05 0z" /></clipPath><clipPath id="32"><path d="M1.4305E-05 540L960 540L960 540L960 0L960 0L1.4305E-05 0z" /></clipPath><clipPath id="33"><path d="M1.4305E-05 540L960 540L960 540L960 0L960 0L1.4305E-05 0z" /></clipPath><clipPath id="34"><path d="M1.4305E-05 540L960 540L960 540L960 0L960 0L1.4305E-05 0z" /></clipPath><clipPath id="35"><path d="M1.4305E-05 540L960 540L960 540L960 0L960 0L1.4305E-05 0z" /></clipPath><clipPath id="36"><path d="M1.4305E-05 540L960 540L960 540L960 0L960 0L1.4305E-05 0z" /></clipPath><clipPath id="37"><path d="M337.92 312.24L391.92 312.24L391.92 312.24L391.92 258.96L391.92 258.96L337.92 258.96z" /></clipPath><clipPath id="38"><path d="M391.68 313.2L446.16 313.2L446.16 313.2L446.16 259.2L446.16 259.2L391.68 259.2z" /></clipPath><clipPath id="39"><path d="M1.4305E-05 540L960 540L960 540L960 0L960 0L1.4305E-05 0z" /></clipPath><clipPath id="40"><path d="M1.4305E-05 540L960 540L960 540L960 0L960 0L1.4305E-05 0z" /></clipPath><clipPath id="41"><path d="M1.4305E-05 540L960 540L960 540L960 0L960 0L1.4305E-05 0z" /></clipPath><clipPath id="42"><path d="M1.4305E-05 540L960 540L960 540L960 0L960 0L1.4305E-05 0z" /></clipPath><clipPath id="43"><path d="M335.4 396L389.76 396L389.76 396L389.76 342L389.76 342L335.4 342z" /></clipPath><clipPath id="44"><path d="M1.4305E-05 540L960 540L960 540L960 0L960 0L1.4305E-05 0z" /></clipPath><clipPath id="45"><path d="M1.4305E-05 540L960 540L960 540L960 0L960 0L1.4305E-05 0z" /></clipPath><clipPath id="46"><path d="M474.84 484.68L529.56 484.68L529.56 484.68L529.56 431.4L529.56 431.4L474.84 431.4z" /></clipPath><clipPath id="47"><path d="M332.28 483.24L387 483.24L387 483.24L387 429.24L387 429.24L332.28 429.24z" /></clipPath><clipPath id="48"><path d="M1.4305E-05 540L960 540L960 540L960 0L960 0L1.4305E-05 0z" /></clipPath><clipPath id="49"><path d="M1.4305E-05 540L960 540L960 540L960 0L960 0L1.4305E-05 0z" /></clipPath><clipPath id="50"><path d="M690.72 155.16L781.3199 155.16L781.3199 155.16L781.3199 64.56L781.3199 64.56L690.72 64.56z" /></clipPath><clipPath id="51"><path d="M1.4305E-05 540L960 540L960 540L960 0L960 0L1.4305E-05 0z" /></clipPath><clipPath id="52"><path d="M1.4305E-05 540L960 540L960 540L960 0L960 0L1.4305E-05 0z" /></clipPath><clipPath id="53"><path d="M1.4305E-05 540L960 540L960 540L960 0L960 0L1.4305E-05 0z" /></clipPath><clipPath id="54"><path d="M1.4305E-05 540L960 540L960 540L960 0L960 0L1.4305E-05 0z" /></clipPath><clipPath id="55"><path d="M838.08 155.16L929.28 155.16L929.28 155.16L929.28 64.56L929.28 64.56L838.08 64.56z" /></clipPath><clipPath id="56"><path d="M1.4305E-05 540L960 540L960 540L960 0L960 0L1.4305E-05 0z" /></clipPath><clipPath id="57"><path d="M1.4305E-05 540L960 540L960 540L960 0L960 0L1.4305E-05 0z" /></clipPath><clipPath id="58"><path d="M1.4305E-05 540L960 540L960 540L960 0L960 0L1.4305E-05 0z" /></clipPath><clipPath id="59"><path d="M721.68 291.12L785.88 291.12L785.88 291.12L785.88 227.64L785.88 227.64L721.68 227.64z" /></clipPath><clipPath id="60"><path d="M831.36 292.32L894.84 292.32L894.84 292.32L894.84 229.32L894.84 229.32L831.36 229.32z" /></clipPath><clipPath id="61"><path d="M1.4305E-05 540L960 540L960 540L960 0L960 0L1.4305E-05 0z" /></clipPath><clipPath id="62"><path d="M1.4305E-05 540L960 540L960 540L960 0L960 0L1.4305E-05 0z" /></clipPath><clipPath id="63"><path d="M1.4305E-05 540L960 540L960 540L960 0L960 0L1.4305E-05 0z" /></clipPath><clipPath id="64"><path d="M1.4305E-05 540L960 540L960 540L960 0L960 0L1.4305E-05 0z" /></clipPath><clipPath id="65"><path d="M1.4305E-05 540L960 540L960 540L960 0L960 0L1.4305E-05 0z" /></clipPath><clipPath id="66"><path d="M1.4305E-05 540L960 540L960 540L960 0L960 0L1.4305E-05 0z" /></clipPath><clipPath id="67"><path d="M1.4305E-05 540L960 540L960 540L960 0L960 0L1.4305E-05 0z" /></clipPath><clipPath id="68"><path d="M1.4305E-05 540L960 540L960 540L960 0L960 0L1.4305E-05 0z" /></clipPath><clipPath id="69"><path d="M1.4305E-05 540L960 540L960 540L960 0L960 0L1.4305E-05 0z" /></clipPath><clipPath id="70"><path d="M1.4305E-05 540L960 540L960 540L960 0L960 0L1.4305E-05 0z" /></clipPath><clipPath id="71"><path d="M1.4305E-05 540L960 540L960 540L960 0L960 0L1.4305E-05 0z" /></clipPath><clipPath id="72"><path d="M1.4305E-05 540L960 540L960 540L960 0L960 0L1.4305E-05 0z" /></clipPath><clipPath id="73"><path d="M1.4305E-05 540L960 540L960 540L960 0L960 0L1.4305E-05 0z" /></clipPath><clipPath id="74"><path d="M1.4305E-05 540L960 540L960 540L960 0L960 0L1.4305E-05 0z" /></clipPath><clipPath id="75"><path d="M1.4305E-05 540L960 540L960 540L960 0L960 0L1.4305E-05 0z" /></clipPath><clipPath id="76"><path d="M11.76 251.28L216.96 251.28L216.96 251.28L216.96 209.28L216.96 209.28L11.76 209.28z" /></clipPath><clipPath id="77"><path d="M125.4 342.72L208.2 342.72L208.2 342.72L208.2 324.72L208.2 324.72L125.4 324.72z" /></clipPath><clipPath id="78"><path d="M125.64 403.56L208.32 403.56L208.32 403.56L208.32 341.76L208.32 341.76L125.64 341.76z" /></clipPath><clipPath id="79"><path d="M1.4305E-05 540L960 540L960 540L960 0L960 0L1.4305E-05 0z" /></clipPath><clipPath id="80"><path d="M420.24 399.72L478.8 399.72L478.8 399.72L478.8 341.16L478.8 341.16L420.24 341.16z" /></clipPath><clipPath id="81"><path d="M1.4305E-05 540L960 540L960 540L960 0L960 0L1.4305E-05 0z" /></clipPath><clipPath id="82"><path d="M1.4305E-05 540L960 540L960 540L960 0L960 0L1.4305E-05 0z" /></clipPath><clipPath id="83"><path d="M513 398.88L571.92 398.88L571.92 398.88L571.92 340.32L571.92 340.32L513 340.32z" /></clipPath><clipPath id="84"><path d="M1.4305E-05 540L960 540L960 540L960 0L960 0L1.4305E-05 0z" /></clipPath><clipPath id="85"><path d="M1.4305E-05 540L960 540L960 540L960 0L960 0L1.4305E-05 0z" /></clipPath><clipPath id="86"><path d="M719.4 392.04L785.88 392.04L785.88 392.04L785.88 325.56L785.88 325.56L719.4 325.56z" /></clipPath><clipPath id="87"><path d="M446.52 148.08L502.56 148.08L502.56 148.08L502.56 91.91998L502.56 91.91998L446.52 91.91998z" /></clipPath><clipPath id="88"><path d="M1.4305E-05 540L960 540L960 540L960 0L960 0L1.4305E-05 0z" /></clipPath><clipPath id="89"><path d="M1.4305E-05 540L960 540L960 540L960 0L960 0L1.4305E-05 0z" /></clipPath><clipPath id="90"><path d="M1.4305E-05 540L960 540L960 540L960 0L960 0L1.4305E-05 0z" /></clipPath><clipPath id="91"><path d="M1.4305E-05 540L960 540L960 540L960 0L960 0L1.4305E-05 0z" /></clipPath><clipPath id="92"><path d="M831.96 389.04L894 389.04L894 389.04L894 327L894 327L831.96 327z" /></clipPath><clipPath id="93"><path d="M1.4305E-05 540L960 540L960 540L960 0L960 0L1.4305E-05 0z" /></clipPath><clipPath id="94"><path d="M1.4305E-05 540L960 540L960 540L960 0L960 0L1.4305E-05 0z" /></clipPath><clipPath id="95"><path d="M1.4305E-05 540L960 540L960 540L960 0L960 0L1.4305E-05 0z" /></clipPath><clipPath id="96"><path d="M1.4305E-05 540L960 540L960 540L960 0L960 0L1.4305E-05 0z" /></clipPath><clipPath id="97"><path d="M1.4305E-05 540L960 540L960 540L960 0L960 0L1.4305E-05 0z" /></clipPath><clipPath id="98"><path d="M1.4305E-05 540L960 540L960 540L960 0L960 0L1.4305E-05 0z" /></clipPath><clipPath id="99"><path d="M652.32 516.24L725.64 516.24L725.64 516.24L725.64 443.04L725.64 443.04L652.32 443.04z" /></clipPath><clipPath id="100"><path d="M1.4305E-05 540L960 540L960 540L960 0L960 0L1.4305E-05 0z" /></clipPath><clipPath id="101"><path d="M1.4305E-05 540L960 540L960 540L960 0L960 0L1.4305E-05 0z" /></clipPath><clipPath id="102"><path d="M1.4305E-05 540L960 540L960 540L960 0L960 0L1.4305E-05 0z" /></clipPath><clipPath id="103"><path d="M1.4305E-05 540L960 540L960 540L960 0L960 0L1.4305E-05 0z" /></clipPath><clipPath id="104"><path d="M1.4305E-05 540L960 540L960 540L960 0L960 0L1.4305E-05 0z" /></clipPath><clipPath id="105"><path d="M762.72 517.8L839.52 517.8L839.52 517.8L839.52 441L839.52 441L762.72 441z" /></clipPath><clipPath id="106"><path d="M1.4305E-05 540L960 540L960 540L960 0L960 0L1.4305E-05 0z" /></clipPath><clipPath id="107"><path d="M859.92 518.52L938.04 518.52L938.04 518.52L938.04 440.28L938.04 440.28L859.92 440.28z" /></clipPath><clipPath id="108"><path d="M1.4305E-05 540L960 540L960 540L960 0L960 0L1.4305E-05 0z" /></clipPath><clipPath id="109"><path d="M530.28 484.56L582.72 484.56L582.72 484.56L582.72 431.52L582.72 431.52L530.28 431.52z" /></clipPath><clipPath id="110"><path d="M1.4305E-05 540L960 540L960 540L960 0L960 0L1.4305E-05 0z" /></clipPath><clipPath id="111"><path d="M421.2 485.52L476.4 485.52L476.4 485.52L476.4 430.32L476.4 430.32L421.2 430.32z" /></clipPath><clipPath id="112"><path d="M1.4305E-05 540L960 540L960 540L960 0L960 0L1.4305E-05 0z" /></clipPath><clipPath id="113"><path d="M1.4305E-05 540L960 540L960 540L960 0L960 0L1.4305E-05 0z" /></clipPath><clipPath id="114"><path d="M1.4305E-05 540L960 540L960 540L960 0L960 0L1.4305E-05 0z" /></clipPath><clipPath id="115"><path d="M1.4305E-05 540L960 540L960 540L960 0L960 0L1.4305E-05 0z" /></clipPath><clipPath id="116"><path d="M1.4305E-05 540L960 540L960 540L960 0L960 0L1.4305E-05 0z" /></clipPath><clipPath id="117"><path d="M1.4305E-05 540L960 540L960 540L960 0L960 0L1.4305E-05 0z" /></clipPath><clipPath id="118"><path d="M1.4305E-05 540L960 540L960 540L960 0L960 0L1.4305E-05 0z" /></clipPath></defs><g transform="matrix(1.333333 0 0 1.333333 0 0)"><g><g clip-path="url(#1)"><g clip-path="url(#2)"><path transform="matrix(1 0 0 -1 0 540)" d="M0 6.1035E-05L960 6.1035E-05L960 6.1035E-05L960 540.0001L960 540.0001L0 540.0001z" stroke="none" fill="#FFFFFF" fill-rule="evenodd" /></g><g clip-path="url(#3)"><g transform="matrix(0.7504 0 0 0.7504 48.96 67.92001)"><g transform="matrix(1 0 0 1 0 0)"><image x="0" y="0" xlink:href="img_271.png" width="150" height="150" /></g></g></g><g clip-path="url(#4)"></g><g clip-path="url(#5)"></g><g clip-path="url(#6)"></g><g clip-path="url(#7)"></g><g clip-path="url(#8)"></g><g clip-path="url(#9)"></g><g clip-path="url(#10)"></g><g clip-path="url(#11)"></g><g clip-path="url(#12)"></g><g clip-path="url(#13)"></g><g clip-path="url(#14)"></g><g clip-path="url(#15)"></g><g clip-path="url(#16)"></g><g clip-path="url(#17)"></g><g clip-path="url(#18)"></g><g clip-path="url(#19)"></g><g clip-path="url(#20)"></g><g clip-path="url(#21)"><g transform="matrix(0.7505084 0 0 0.7510345 25.32 319.8)"><g transform="matrix(1 0 0 1 0 0)"><image x="0" y="0" xlink:href="img_235.png" width="118" height="116" /></g></g></g><g clip-path="url(#22)"><g transform="matrix(0.36 0 0 0.36 338.4 93)"><g transform="matrix(1 0 0 1 0 0)"><image x="0" y="0" xlink:href="img_276.png" width="150" height="151" /></g></g></g><g clip-path="url(#23)"><g transform="matrix(0.36 0 0 0.36 391.56 93)"><g transform="matrix(1 0 0 1 0 0)"><image x="0" y="0" xlink:href="img_277.png" width="152" height="151" /></g></g></g><g clip-path="url(#24)"></g><g clip-path="url(#25)"></g><g clip-path="url(#26)"></g><g clip-path="url(#27)"><g transform="matrix(0.36 0 0 0.36 337.92 180.12)"><g transform="matrix(1 0 0 1 0 0)"><image x="0" y="0" xlink:href="img_278.png" width="150" height="149" /></g></g></g><g clip-path="url(#28)"><g transform="matrix(0.36 0 0 0.36 390.12 180.24)"><g transform="matrix(1 0 0 1 0 0)"><image x="0" y="0" xlink:href="img_279.png" width="153" height="151" /></g></g></g><g clip-path="url(#29)"><g transform="matrix(0.36 0 0 0.36 444.96 181.2)"><g transform="matrix(1 0 0 1 0 0)"><image x="0" y="0" xlink:href="img_280.png" width="152" height="148" /></g></g></g><g clip-path="url(#30)"></g><g clip-path="url(#31)"></g><g clip-path="url(#32)"></g><g clip-path="url(#33)"></g><g clip-path="url(#34)"></g><g clip-path="url(#35)"></g><g clip-path="url(#36)"></g><g clip-path="url(#37)"><g transform="matrix(0.36 0 0 0.36 337.92 258.96)"><g transform="matrix(1 0 0 1 0 0)"><image x="0" y="0" xlink:href="img_281.png" width="150" height="148" /></g></g></g><g clip-path="url(#38)"><g transform="matrix(0.3607947 0 0 0.36 391.68 259.2)"><g transform="matrix(1 0 0 1 0 0)"><image x="0" y="0" xlink:href="img_282.png" width="151" height="150" /></g></g></g><g clip-path="url(#39)"></g><g clip-path="url(#40)"></g><g clip-path="url(#41)"></g><g clip-path="url(#42)"></g><g clip-path="url(#43)"><g transform="matrix(0.36 0 0 0.36 335.4 342)"><g transform="matrix(1 0 0 1 0 0)"><image x="0" y="0" xlink:href="img_283.png" width="151" height="150" /></g></g></g><g clip-path="url(#44)"></g><g clip-path="url(#45)"></g><g clip-path="url(#46)"><g transform="matrix(0.36 0 0 0.36 474.84 431.4)"><g transform="matrix(1 0 0 1 0 0)"><image x="0" y="0" xlink:href="img_284.png" width="152" height="148" /></g></g></g><g clip-path="url(#47)"><g transform="matrix(0.36 0 0 0.36 332.28 429.24)"><g transform="matrix(1 0 0 1 0 0)"><image x="0" y="0" xlink:href="img_285.png" width="152" height="150" /></g></g></g><g clip-path="url(#48)"></g><g clip-path="url(#49)"></g><path transform="matrix(1 0 0 -1 0 540)" d="M273.6 73.92C 268.76 73.92 264.84 74.574 264.84 75.38L264.84 75.38L264.84 246.64C 264.84 247.45 260.92 248.1 256.08 248.1C 260.92 248.1 264.84 248.75 264.84 249.56L264.84 249.56L264.84 420.82C 264.84 421.63 268.76 422.28 273.6 422.28" stroke="#000000" stroke-width="0.48" fill="none" /><g clip-path="url(#50)"><g transform="matrix(0.6 0 0 0.6 690.72 64.56)"><g transform="matrix(1 0 0 1 0 0)"><image x="0" y="0" xlink:href="img_286.png" width="151" height="151" /></g></g></g><g clip-path="url(#51)"></g><g clip-path="url(#52)"></g><g clip-path="url(#53)"></g><g clip-path="url(#54)"></g><g clip-path="url(#55)"><g transform="matrix(0.6 0 0 0.6 838.08 64.56)"><g transform="matrix(1 0 0 1 0 0)"><image x="0" y="0" xlink:href="img_287.png" width="152" height="151" /></g></g></g><g clip-path="url(#56)"></g><g clip-path="url(#57)"></g><g clip-path="url(#58)"></g><g clip-path="url(#59)"><g transform="matrix(0.4196078 0 0 0.4203973 721.68 227.64)"><g transform="matrix(1 0 0 1 0 0)"><image x="0" y="0" xlink:href="img_288.png" width="153" height="151" /></g></g></g><g clip-path="url(#60)"><g transform="matrix(0.4203973 0 0 0.42 831.36 229.32)"><g transform="matrix(1 0 0 1 0 0)"><image x="0" y="0" xlink:href="img_289.png" width="151" height="150" /></g></g></g><g clip-path="url(#61)"></g><g clip-path="url(#62)"></g><g clip-path="url(#63)"></g><g clip-path="url(#64)"></g><g clip-path="url(#65)"></g><g clip-path="url(#66)"></g><g clip-path="url(#67)"></g><g clip-path="url(#68)"></g><g clip-path="url(#69)"></g><g clip-path="url(#70)"></g><g clip-path="url(#71)"></g><g clip-path="url(#72)"></g><g clip-path="url(#73)"></g><g clip-path="url(#74)"></g><g clip-path="url(#75)"></g><g clip-path="url(#76)"><g transform="matrix(0.6 0 0 0.6 11.76 209.28)"><g transform="matrix(1 0 0 1 0 0)"><image x="0" y="0" xlink:href="img_290.png" width="342" height="70" /></g></g></g><path transform="matrix(1 0 0 -1 0 540)" d="M133.14 292.62L201.53 292.62" stroke="#FF0000" stroke-width="1.56" fill="none" /><g clip-path="url(#77)"><g transform="matrix(0.6 0 0 0.6 125.4 324.72)"><g transform="matrix(1 0 0 1 0 0)"><image x="0" y="0" xlink:href="img_236.png" width="138" height="30" /></g></g></g><g clip-path="url(#78)"><g transform="matrix(0.8351515 0 0 0.8351352 125.64 341.76)"><g transform="matrix(1 0 0 1 0 0)"><image x="0" y="0" xlink:href="img_237.png" width="99" height="74" /></g></g></g><g clip-path="url(#79)"></g><g clip-path="url(#80)"><g transform="matrix(0.3904 0 0 0.3904 420.24 341.16)"><g transform="matrix(1 0 0 1 0 0)"><image x="0" y="0" xlink:href="img_291.png" width="150" height="150" /></g></g></g><g clip-path="url(#81)"></g><g clip-path="url(#82)"></g><g clip-path="url(#83)"><g transform="matrix(0.3901987 0 0 0.3904 513 340.32)"><g transform="matrix(1 0 0 1 0 0)"><image x="0" y="0" xlink:href="img_289.png" width="151" height="150" /></g></g></g><g clip-path="url(#84)"></g><g clip-path="url(#85)"></g><g clip-path="url(#86)"><g transform="matrix(0.4432 0 0 0.4432 719.4 325.56)"><g transform="matrix(1 0 0 1 0 0)"><image x="0" y="0" xlink:href="img_230.png" width="150" height="150" /></g></g></g><g clip-path="url(#87)"><g transform="matrix(0.3736 0 0 0.3744 446.52 91.91998)"><g transform="matrix(1 0 0 1 0 0)"><image x="0" y="0" xlink:href="img_230.png" width="150" height="150" /></g></g></g><g clip-path="url(#88)"></g><g clip-path="url(#89)"></g><g clip-path="url(#90)"></g><g clip-path="url(#91)"></g><g clip-path="url(#92)"><g transform="matrix(0.4136 0 0 0.4136 831.96 327)"><g transform="matrix(1 0 0 1 0 0)"><image x="0" y="0" xlink:href="img_292.png" width="150" height="150" /></g></g></g><g clip-path="url(#93)"></g><g clip-path="url(#94)"></g><g clip-path="url(#95)"></g><g clip-path="url(#96)"></g><g clip-path="url(#97)"></g><g clip-path="url(#98)"></g><g clip-path="url(#99)"><g transform="matrix(0.4888 0 0 0.488 652.32 443.04)"><g transform="matrix(1 0 0 1 0 0)"><image x="0" y="0" xlink:href="img_293.png" width="150" height="150" /></g></g></g><g clip-path="url(#100)"></g><g clip-path="url(#101)"></g><g clip-path="url(#102)"></g><g clip-path="url(#103)"></g><g clip-path="url(#104)"></g><g clip-path="url(#105)"><g transform="matrix(0.512 0 0 0.512 762.72 441)"><g transform="matrix(1 0 0 1 0 0)"><image x="0" y="0" xlink:href="img_294.png" width="150" height="150" /></g></g></g><g clip-path="url(#106)"></g><g clip-path="url(#107)"><g transform="matrix(0.5208001 0 0 0.5216 859.92 440.28)"><g transform="matrix(1 0 0 1 0 0)"><image x="0" y="0" xlink:href="img_295.png" width="150" height="150" /></g></g></g><g clip-path="url(#108)"></g><g clip-path="url(#109)"><g transform="matrix(0.4129134 0 0 0.414375 530.28 431.52)"><g transform="matrix(1 0 0 1 0 0)"><image x="0" y="0" xlink:href="img_134.png" width="127" height="128" /></g></g></g><g clip-path="url(#110)"></g><g clip-path="url(#111)"><g transform="matrix(0.368 0 0 0.368 421.2 430.32)"><g transform="matrix(1 0 0 1 0 0)"><image x="0" y="0" xlink:href="img_296.png" width="150" height="150" /></g></g></g><g clip-path="url(#112)"></g><g clip-path="url(#113)"></g><g clip-path="url(#114)"></g><g clip-path="url(#115)"></g><g clip-path="url(#116)"></g><path transform="matrix(1 0 0 -1 0 540)" d="M6.96 500.52L78.96 500.52L78.96 500.52L78.96 532.68L78.96 532.68L6.96 532.68z" stroke="none" fill="#00B0F0" fill-rule="evenodd" /><path transform="matrix(1 0 0 -1 0 540)" d="M13.44 505.92L71.52 505.92L71.52 505.92L71.52 526.92L71.52 526.92L13.44 526.92z" stroke="none" fill="#BDD7EE" fill-rule="evenodd" /><g clip-path="url(#117)"></g><g clip-path="url(#118)"></g></g></g></g></svg>