<svg xmlns="http://www.w3.org/2000/svg" xmlns:xlink="http://www.w3.org/1999/xlink" id="body_31" preserveAspectRatio="xMinYMin meet" viewBox="0 0 1280 720"><defs><clipPath id="1"><path d="M0 540L0 0L0 0L960 0L960 0L960 540L960 540L0 540z" /></clipPath><clipPath id="2"><path d="M0 539.9999L960 539.9999L960 539.9999L960 -0.0001220703L960 -0.0001220703L0 -0.0001220703z" /></clipPath><clipPath id="3"><path d="M1.4305E-05 540L960 540L960 540L960 0L960 0L1.4305E-05 0z" /></clipPath><clipPath id="4"><path d="M1.4305E-05 540L960 540L960 540L960 0L960 0L1.4305E-05 0z" /></clipPath><clipPath id="5"><path d="M1.4305E-05 540L960 540L960 540L960 0L960 0L1.4305E-05 0z" /></clipPath><clipPath id="6"><path d="M1.4305E-05 540L960 540L960 540L960 0L960 0L1.4305E-05 0z" /></clipPath><clipPath id="7"><path d="M1.4305E-05 540L960 540L960 540L960 0L960 0L1.4305E-05 0z" /></clipPath><clipPath id="8"><path d="M1.4305E-05 540L960 540L960 540L960 0L960 0L1.4305E-05 0z" /></clipPath><clipPath id="9"><path d="M1.4305E-05 540L960 540L960 540L960 0L960 0L1.4305E-05 0z" /></clipPath><clipPath id="10"><path d="M1.4305E-05 540L960 540L960 540L960 0L960 0L1.4305E-05 0z" /></clipPath><clipPath id="11"><path d="M1.4305E-05 540L960 540L960 540L960 0L960 0L1.4305E-05 0z" /></clipPath><clipPath id="12"><path d="M1.4305E-05 540L960 540L960 540L960 0L960 0L1.4305E-05 0z" /></clipPath><clipPath id="13"><path d="M1.4305E-05 540L960 540L960 540L960 0L960 0L1.4305E-05 0z" /></clipPath><clipPath id="14"><path d="M1.4305E-05 540L960 540L960 540L960 0L960 0L1.4305E-05 0z" /></clipPath><clipPath id="15"><path d="M1.4305E-05 540L960 540L960 540L960 0L960 0L1.4305E-05 0z" /></clipPath><clipPath id="16"><path d="M1.4305E-05 540L960 540L960 540L960 0L960 0L1.4305E-05 0z" /></clipPath><clipPath id="17"><path d="M1.4305E-05 540L960 540L960 540L960 0L960 0L1.4305E-05 0z" /></clipPath><clipPath id="18"><path d="M1.4305E-05 540L960 540L960 540L960 0L960 0L1.4305E-05 0z" /></clipPath><clipPath id="19"><path d="M1.4305E-05 540L960 540L960 540L960 0L960 0L1.4305E-05 0z" /></clipPath><clipPath id="20"><path d="M1.4305E-05 540L960 540L960 540L960 0L960 0L1.4305E-05 0z" /></clipPath><clipPath id="21"><path d="M1.4305E-05 540L960 540L960 540L960 0L960 0L1.4305E-05 0z" /></clipPath><clipPath id="22"><path d="M1.4305E-05 540L960 540L960 540L960 0L960 0L1.4305E-05 0z" /></clipPath><clipPath id="23"><path d="M1.4305E-05 540L960 540L960 540L960 0L960 0L1.4305E-05 0z" /></clipPath><clipPath id="24"><path d="M1.4305E-05 540L960 540L960 540L960 0L960 0L1.4305E-05 0z" /></clipPath><clipPath id="25"><path d="M1.4305E-05 540L960 540L960 540L960 0L960 0L1.4305E-05 0z" /></clipPath><clipPath id="26"><path d="M1.4305E-05 540L960 540L960 540L960 0L960 0L1.4305E-05 0z" /></clipPath><clipPath id="27"><path d="M1.4305E-05 540L960 540L960 540L960 0L960 0L1.4305E-05 0z" /></clipPath><clipPath id="28"><path d="M1.4305E-05 540L960 540L960 540L960 0L960 0L1.4305E-05 0z" /></clipPath><clipPath id="29"><path d="M1.4305E-05 540L960 540L960 540L960 0L960 0L1.4305E-05 0z" /></clipPath><clipPath id="30"><path d="M1.4305E-05 540L960 540L960 540L960 0L960 0L1.4305E-05 0z" /></clipPath><clipPath id="31"><path d="M1.4305E-05 540L960 540L960 540L960 0L960 0L1.4305E-05 0z" /></clipPath><clipPath id="32"><path d="M1.4305E-05 540L960 540L960 540L960 0L960 0L1.4305E-05 0z" /></clipPath><clipPath id="33"><path d="M1.4305E-05 540L960 540L960 540L960 0L960 0L1.4305E-05 0z" /></clipPath><clipPath id="34"><path d="M1.4305E-05 540L960 540L960 540L960 0L960 0L1.4305E-05 0z" /></clipPath><clipPath id="35"><path d="M1.4305E-05 540L960 540L960 540L960 0L960 0L1.4305E-05 0z" /></clipPath><clipPath id="36"><path d="M1.4305E-05 540L960 540L960 540L960 0L960 0L1.4305E-05 0z" /></clipPath><clipPath id="37"><path d="M1.4305E-05 540L960 540L960 540L960 0L960 0L1.4305E-05 0z" /></clipPath><clipPath id="38"><path d="M1.4305E-05 540L960 540L960 540L960 0L960 0L1.4305E-05 0z" /></clipPath><clipPath id="39"><path d="M1.4305E-05 540L960 540L960 540L960 0L960 0L1.4305E-05 0z" /></clipPath><clipPath id="40"><path d="M1.4305E-05 540L960 540L960 540L960 0L960 0L1.4305E-05 0z" /></clipPath><clipPath id="41"><path d="M1.4305E-05 540L960 540L960 540L960 0L960 0L1.4305E-05 0z" /></clipPath><clipPath id="42"><path d="M1.4305E-05 540L960 540L960 540L960 0L960 0L1.4305E-05 0z" /></clipPath><clipPath id="43"><path d="M1.4305E-05 540L960 540L960 540L960 0L960 0L1.4305E-05 0z" /></clipPath><clipPath id="44"><path d="M1.4305E-05 540L960 540L960 540L960 0L960 0L1.4305E-05 0z" /></clipPath><clipPath id="45"><path d="M1.4305E-05 540L960 540L960 540L960 0L960 0L1.4305E-05 0z" /></clipPath><clipPath id="46"><path d="M1.4305E-05 540L960 540L960 540L960 0L960 0L1.4305E-05 0z" /></clipPath><clipPath id="47"><path d="M1.4305E-05 540L960 540L960 540L960 0L960 0L1.4305E-05 0z" /></clipPath><clipPath id="48"><path d="M1.4305E-05 540L960 540L960 540L960 0L960 0L1.4305E-05 0z" /></clipPath><clipPath id="49"><path d="M1.4305E-05 540L960 540L960 540L960 0L960 0L1.4305E-05 0z" /></clipPath><clipPath id="50"><path d="M1.4305E-05 540L960 540L960 540L960 0L960 0L1.4305E-05 0z" /></clipPath><clipPath id="51"><path d="M1.4305E-05 540L960 540L960 540L960 0L960 0L1.4305E-05 0z" /></clipPath><clipPath id="52"><path d="M1.4305E-05 540L960 540L960 540L960 0L960 0L1.4305E-05 0z" /></clipPath><clipPath id="53"><path d="M1.4305E-05 540L960 540L960 540L960 0L960 0L1.4305E-05 0z" /></clipPath><clipPath id="54"><path d="M1.4305E-05 540L960 540L960 540L960 0L960 0L1.4305E-05 0z" /></clipPath><clipPath id="55"><path d="M1.4305E-05 540L960 540L960 540L960 0L960 0L1.4305E-05 0z" /></clipPath><clipPath id="56"><path d="M1.4305E-05 540L960 540L960 540L960 0L960 0L1.4305E-05 0z" /></clipPath><clipPath id="57"><path d="M1.4305E-05 540L960 540L960 540L960 0L960 0L1.4305E-05 0z" /></clipPath><clipPath id="58"><path d="M1.4305E-05 540L960 540L960 540L960 0L960 0L1.4305E-05 0z" /></clipPath><clipPath id="59"><path d="M1.4305E-05 540L960 540L960 540L960 0L960 0L1.4305E-05 0z" /></clipPath><clipPath id="60"><path d="M1.4305E-05 540L960 540L960 540L960 0L960 0L1.4305E-05 0z" /></clipPath><clipPath id="61"><path d="M1.4305E-05 540L960 540L960 540L960 0L960 0L1.4305E-05 0z" /></clipPath><clipPath id="62"><path d="M1.4305E-05 540L960 540L960 540L960 0L960 0L1.4305E-05 0z" /></clipPath><clipPath id="63"><path d="M1.4305E-05 540L960 540L960 540L960 0L960 0L1.4305E-05 0z" /></clipPath></defs><g transform="matrix(1.333333 0 0 1.333333 0 0)"><g><g clip-path="url(#1)"><g clip-path="url(#2)"><path transform="matrix(1 0 0 -1 0 540)" d="M0 6.1035E-05L960 6.1035E-05L960 6.1035E-05L960 540.0001L960 540.0001L0 540.0001z" stroke="none" fill="#FFFFFF" fill-rule="evenodd" /></g><g clip-path="url(#3)"></g><g clip-path="url(#4)"></g><g clip-path="url(#5)"></g><path transform="matrix(1 0 0 -1 0 540)" d="M534.44 495.95L570.44 495.95L570.44 495.95L570.44 496.79L570.44 496.79L534.44 496.79z" stroke="none" fill="#FF0000" fill-rule="evenodd" /><path transform="matrix(1 0 0 -1 0 540)" d="M211.8 163.92C 200.4 163.92 191.16 165.46 191.16 167.36L191.16 167.36L191.16 281.44C 191.16 283.34 181.92 284.88 170.52 284.88C 181.92 284.88 191.16 286.42 191.16 288.32L191.16 288.32L191.16 402.4C 191.16 404.3 200.4 405.84 211.8 405.84" stroke="#000000" stroke-width="0.48" fill="none" /><path transform="matrix(1 0 0 -1 0 540)" d="M220.2 388.56L271.08 388.56L271.08 388.56L271.08 417.72L271.08 417.72L220.2 417.72z" stroke="#000000" stroke-width="0.72" fill="none" /><g clip-path="url(#6)"></g><path transform="matrix(1 0 0 -1 0 540)" d="M222.24 142.56L273.24 142.56L273.24 142.56L273.24 171.6L273.24 171.6L222.24 171.6z" stroke="#000000" stroke-width="0.72" fill="none" /><g clip-path="url(#7)"></g><path transform="matrix(1 0 0 -1 0 540)" d="M308.28 346.32C 301.52 346.32 296.04 347.23 296.04 348.36L296.04 348.36L296.04 398.6C 296.04 399.73 290.56 400.64 283.8 400.64C 290.56 400.64 296.04 401.56 296.04 402.68L296.04 402.68L296.04 447.84C 296.04 448.97 301.52 449.88 308.28 449.88" stroke="#000000" stroke-width="0.48" fill="none" /><path transform="matrix(1 0 0 -1 0 540)" d="M319.44 444.48L553.68 444.48L553.68 444.48L553.68 473.64L553.68 473.64L319.44 473.64z" stroke="#000000" stroke-width="0.72" fill="none" /><g clip-path="url(#8)"></g><g clip-path="url(#9)"></g><g clip-path="url(#10)"></g><g clip-path="url(#11)"></g><g clip-path="url(#12)"></g><path transform="matrix(1 0 0 -1 0 540)" d="M318.72 387.84L551.4 387.84L551.4 387.84L551.4 417L551.4 417L318.72 417z" stroke="#000000" stroke-width="0.72" fill="none" /><g clip-path="url(#13)"></g><path transform="matrix(1 0 0 -1 0 540)" d="M320.88 329.16L528.12 329.16L528.12 329.16L528.12 358.2L528.12 358.2L320.88 358.2z" stroke="#000000" stroke-width="0.72" fill="none" /><g clip-path="url(#14)"></g><g clip-path="url(#15)"></g><g clip-path="url(#16)"></g><g clip-path="url(#17)"></g><g clip-path="url(#18)"></g><g clip-path="url(#19)"></g><path transform="matrix(1 0 0 -1 0 540)" d="M331.32 38.04C 317.04 38.04 305.46 39.97 305.46 42.35L305.46 42.35L305.46 157.67C 305.46 160.05 293.88 161.98 279.6 161.98C 293.88 161.98 305.46 163.91 305.46 166.29L305.46 166.29L305.46 270.01C 305.46 272.39 317.04 274.32 331.32 274.32" stroke="#000000" stroke-width="0.48" fill="none" /><path transform="matrix(1 0 0 -1 0 540)" d="M345.96 258.6L378.72 258.6L378.72 258.6L378.72 287.64L378.72 287.64L345.96 287.64z" stroke="#000000" stroke-width="0.72" fill="none" /><g clip-path="url(#20)"></g><path transform="matrix(1 0 0 -1 0 540)" d="M336.96 146.76L381.6 146.76L381.6 146.76L381.6 175.8L381.6 175.8L336.96 175.8z" stroke="#000000" stroke-width="0.72" fill="none" /><g clip-path="url(#21)"></g><path transform="matrix(1 0 0 -1 0 540)" d="M339.72 78.24L372.48 78.24L372.48 78.24L372.48 107.28L372.48 107.28L339.72 107.28z" stroke="#000000" stroke-width="0.72" fill="none" /><g clip-path="url(#22)"></g><path transform="matrix(1 0 0 -1 0 540)" d="M417.96 245.04C 411.03 245.04 405.42 245.98 405.42 247.13L405.42 247.13L405.42 274.11C 405.42 275.26 399.81 276.2 392.88 276.2C 399.81 276.2 405.42 277.13 405.42 278.29L405.42 278.29L405.42 302.35C 405.42 303.5 411.03 304.44 417.96 304.44" stroke="#000000" stroke-width="0.48" fill="none" /><path transform="matrix(1 0 0 -1 0 540)" d="M429.24 288.6L498.24 288.6L498.24 288.6L498.24 317.76L498.24 317.76L429.24 317.76z" stroke="#000000" stroke-width="0.72" fill="none" /><g clip-path="url(#23)"></g><path transform="matrix(1 0 0 -1 0 540)" d="M428.52 235.56L479.4 235.56L479.4 235.56L479.4 264.6L479.4 264.6L428.52 264.6z" stroke="#000000" stroke-width="0.72" fill="none" /><g clip-path="url(#24)"></g><path transform="matrix(1 0 0 -1 0 540)" d="M417.96 117.84C 411.4 117.84 406.08 118.73 406.08 119.82L406.08 119.82L406.08 160.17C 406.08 161.27 400.76 162.15 394.2 162.15C 400.76 162.15 406.08 163.04 406.08 164.13L406.08 164.13L406.08 200.34C 406.08 201.43 411.4 202.32 417.96 202.32" stroke="#000000" stroke-width="0.48" fill="none" /><path transform="matrix(1 0 0 -1 0 540)" d="M427.8 185.88L496.92 185.88L496.92 185.88L496.92 214.92L496.92 214.92L427.8 214.92z" stroke="#000000" stroke-width="0.72" fill="none" /><g clip-path="url(#25)"></g><path transform="matrix(1 0 0 -1 0 540)" d="M428.52 144.6L497.52 144.6L497.52 144.6L497.52 173.76L497.52 173.76L428.52 173.76z" stroke="#000000" stroke-width="0.72" fill="none" /><g clip-path="url(#26)"></g><path transform="matrix(1 0 0 -1 0 540)" d="M428.52 106.2L497.52 106.2L497.52 106.2L497.52 135.24L497.52 135.24L428.52 135.24z" stroke="#000000" stroke-width="0.72" fill="none" /><g clip-path="url(#27)"></g><path transform="matrix(1 0 0 -1 0 540)" d="M334.8 20.16L385.68 20.16L385.68 20.16L385.68 49.32L385.68 49.32L334.8 49.32z" stroke="#000000" stroke-width="0.72" fill="none" /><g clip-path="url(#28)"></g><path transform="matrix(1 0 0 -1 0 540)" d="M413.88 14.28C 409.24 14.28 405.48 14.907 405.48 15.68L405.48 15.68L405.48 39.696C 405.48 40.469 401.72 41.095 397.08 41.095C 401.72 41.095 405.48 41.722 405.48 42.495L405.48 42.495L405.48 64C 405.48 64.773 409.24 65.4 413.88 65.4" stroke="#000000" stroke-width="0.48" fill="none" /><path transform="matrix(1 0 0 -1 0 540)" d="M420.12 55.2L489.24 55.2L489.24 55.2L489.24 84.24001L489.24 84.24001L420.12 84.24001z" stroke="#000000" stroke-width="0.72" fill="none" /><g clip-path="url(#29)"></g><path transform="matrix(1 0 0 -1 0 540)" d="M420.84 5.52L489.84 5.52L489.84 5.52L489.84 34.56L489.84 34.56L420.84 34.56z" stroke="#000000" stroke-width="0.72" fill="none" /><g clip-path="url(#30)"></g><path transform="matrix(1 0 0 -1 0 540)" d="M531.24 164.64C 524.88 164.64 519.72 165.5 519.72 166.56L519.72 166.56L519.72 198.29C 519.72 199.35 514.56 200.21 508.2 200.21C 514.56 200.21 519.72 201.06 519.72 202.13L519.72 202.13L519.72 230.52C 519.72 231.58 524.88 232.44 531.24 232.44" stroke="#000000" stroke-width="0.48" fill="none" /><path transform="matrix(1 0 0 -1 0 540)" d="M544.56 218.04L740.88 218.04L740.88 218.04L740.88 247.08L740.88 247.08L544.56 247.08z" stroke="#000000" stroke-width="0.72" fill="none" /><g clip-path="url(#31)"></g><path transform="matrix(1 0 0 -1 0 540)" d="M544.56 178.2L724.8 178.2L724.8 178.2L724.8 207.24L724.8 207.24L544.56 207.24z" stroke="#000000" stroke-width="0.72" fill="none" /><g clip-path="url(#32)"></g><g clip-path="url(#33)"></g><path transform="matrix(1 0 0 -1 0 540)" d="M544.56 117.96L760.56 117.96L760.56 117.96L760.56 168.84L760.56 168.84L544.56 168.84z" stroke="#000000" stroke-width="0.72" fill="none" /><g clip-path="url(#34)"></g><g clip-path="url(#35)"></g><g clip-path="url(#36)"></g><g clip-path="url(#37)"></g><path transform="matrix(1 0 0 -1 0 540)" d="M45.48 257.04L156.6 257.04L156.6 257.04L156.6 307.92L156.6 307.92L45.48 307.92z" stroke="#000000" stroke-width="0.72" fill="none" /><g clip-path="url(#38)"></g><g clip-path="url(#39)"></g><path transform="matrix(1 0 0 -1 0 540)" d="M636.84 457.08L743.76 457.08L743.76 457.08L743.76 486.12L743.76 486.12L636.84 486.12z" stroke="#000000" stroke-width="0.72" fill="none" /><g clip-path="url(#40)"></g><path transform="matrix(1 0 0 -1 0 540)" d="M777.96 435.12C 770.24 435.12 763.98 436.16 763.98 437.45L763.98 437.45L763.98 467.66C 763.98 468.95 757.72 469.99 750 469.99C 757.72 469.99 763.98 471.04 763.98 472.32L763.98 472.32L763.98 499.27C 763.98 500.56 770.24 501.6 777.96 501.6" stroke="#000000" stroke-width="0.48" fill="none" /><path transform="matrix(1 0 0 -1 0 540)" d="M785.76 486.48L873 486.48L873 486.48L873 515.52L873 515.52L785.76 515.52z" stroke="#000000" stroke-width="0.72" fill="none" /><g clip-path="url(#41)"></g><path transform="matrix(1 0 0 -1 0 540)" d="M787.08 427.08L874.32 427.08L874.32 427.08L874.32 456.12L874.32 456.12L787.08 456.12z" stroke="#000000" stroke-width="0.72" fill="none" /><g clip-path="url(#42)"></g><path transform="matrix(1 0 0 -1 0 540)" d="M699 327.12L749.88 327.12L749.88 327.12L749.88 356.16L749.88 356.16L699 356.16z" stroke="#000000" stroke-width="0.72" fill="none" /><g clip-path="url(#43)"></g><path transform="matrix(1 0 0 -1 0 540)" d="M775.2 290.4C 770.4 290.4 766.5 291.05 766.5 291.85L766.5 291.85L766.5 340.73C 766.5 341.53 762.6 342.18 757.8 342.18C 762.6 342.18 766.5 342.83 766.5 343.63L766.5 343.63L766.5 392.51C 766.5 393.31 770.4 393.96 775.2 393.96" stroke="#000000" stroke-width="0.48" fill="none" /><path transform="matrix(1 0 0 -1 0 540)" d="M781.56 372.48L861 372.48L861 372.48L861 401.64L861 401.64L781.56 401.64z" stroke="#000000" stroke-width="0.72" fill="none" /><g clip-path="url(#44)"></g><g clip-path="url(#45)"></g><g clip-path="url(#46)"></g><path transform="matrix(1 0 0 -1 0 540)" d="M781.56 327.12L868.8 327.12L868.8 327.12L868.8 356.16L868.8 356.16L781.56 356.16z" stroke="#000000" stroke-width="0.72" fill="none" /><g clip-path="url(#47)"></g><path transform="matrix(1 0 0 -1 0 540)" d="M781.56 280.92L842.28 280.92L842.28 280.92L842.28 309.96L842.28 309.96L781.56 309.96z" stroke="#000000" stroke-width="0.72" fill="none" /><g clip-path="url(#48)"></g><g clip-path="url(#49)"></g><g clip-path="url(#50)"></g><g clip-path="url(#51)"></g><g clip-path="url(#52)"></g><g clip-path="url(#53)"></g><g clip-path="url(#54)"></g><g clip-path="url(#55)"></g><g clip-path="url(#56)"></g><path transform="matrix(1 0 0 -1 0 540)" d="M786.72 24.72C 780.39 24.72 775.26 25.575 775.26 26.63L775.26 26.63L775.26 48.55C 775.26 49.605 770.13 50.46 763.8 50.46C 770.13 50.46 775.26 51.315 775.26 52.37L775.26 52.37L775.26 74.29C 775.26 75.345 780.39 76.2 786.72 76.2" stroke="#000000" stroke-width="0.48" fill="none" /><path transform="matrix(1 0 0 -1 0 540)" d="M799.44 61.2L838.2 61.2L838.2 61.2L838.2 83.04L838.2 83.04L799.44 83.04z" stroke="#000000" stroke-width="0.72" fill="none" /><g clip-path="url(#57)"></g><path transform="matrix(1 0 0 -1 0 540)" d="M799.44 18.6L862.44 18.6L862.44 18.6L862.44 40.32L862.44 40.32L799.44 40.32z" stroke="#000000" stroke-width="0.72" fill="none" /><g clip-path="url(#58)"></g><path transform="matrix(1 0 0 -1 0 540)" d="M17.52 495.24L89.52 495.24L89.52 495.24L89.52 527.4L89.52 527.4L17.52 527.4z" stroke="none" fill="#00B0F0" fill-rule="evenodd" /><path transform="matrix(1 0 0 -1 0 540)" d="M24 500.64L81.96 500.64L81.96 500.64L81.96 521.64L81.96 521.64L24 521.64z" stroke="none" fill="#BDD7EE" fill-rule="evenodd" /><g clip-path="url(#59)"></g><g clip-path="url(#60)"></g><g clip-path="url(#61)"></g><path transform="matrix(1 0 0 -1 0 540)" d="M634.95 48.57L670.95 48.57L670.95 48.57L670.95 49.41L670.95 49.41L634.95 49.41z" stroke="none" fill="#000000" fill-rule="evenodd" /><g clip-path="url(#62)"></g><g clip-path="url(#63)"></g></g></g></g></svg>