<svg xmlns="http://www.w3.org/2000/svg" xmlns:xlink="http://www.w3.org/1999/xlink" id="body_4" preserveAspectRatio="xMinYMin meet" viewBox="0 0 1280 720"><defs><clipPath id="1"><path d="M0 540L0 0L0 0L960 0L960 0L960 540L960 540L0 540z" /></clipPath><clipPath id="2"><path d="M0 539.9999L960 539.9999L960 539.9999L960 -0.0001220703L960 -0.0001220703L0 -0.0001220703z" /></clipPath><clipPath id="3"><path d="M1.4305E-05 540L960 540L960 540L960 0L960 0L1.4305E-05 0z" /></clipPath><clipPath id="4"><path d="M1.4305E-05 540L960 540L960 540L960 0L960 0L1.4305E-05 0z" /></clipPath><clipPath id="5"><path d="M1.4305E-05 540L960 540L960 540L960 0L960 0L1.4305E-05 0z" /></clipPath><clipPath id="6"><path d="M6.1035E-05 0L960 0L960 0L960 539.9998L960 539.9998L9.1553E-05 539.9998" /></clipPath><clipPath id="7"><path d="M42 152.28L77.28 152.28L77.28 152.28L77.28 120.72L77.28 120.72L42 120.72z" /></clipPath><clipPath id="8"><path d="M327 153.72L366 153.72L366 153.72L366 125.16L366 125.16L327 125.16z" /></clipPath><clipPath id="9"><path d="M187.68 153L226.68 153L226.68 153L226.68 125.16L226.68 125.16L187.68 125.16z" /></clipPath><clipPath id="10"><path d="M144.12 153L183.84 153L183.84 153L183.84 125.28L183.84 125.28L144.12 125.28z" /></clipPath><clipPath id="11"><path d="M88.44 153.72L124.56 153.72L124.56 153.72L124.56 120L124.56 120L88.44 120z" /></clipPath><clipPath id="12"><path d="M285 154.56L323.28 154.56L323.28 154.56L323.28 123.72L323.28 123.72L285 123.72z" /></clipPath><clipPath id="13"><path d="M1.4305E-05 540L960 540L960 540L960 0L960 0L1.4305E-05 0z" /></clipPath><clipPath id="14"><path d="M1.4305E-05 540L960 540L960 540L960 0L960 0L1.4305E-05 0z" /></clipPath><clipPath id="15"><path d="M1.4305E-05 540L960 540L960 540L960 0L960 0L1.4305E-05 0z" /></clipPath><clipPath id="16"><path d="M1.4305E-05 540L960 540L960 540L960 0L960 0L1.4305E-05 0z" /></clipPath><clipPath id="17"><path d="M1.4305E-05 540L960 540L960 540L960 0L960 0L1.4305E-05 0z" /></clipPath><clipPath id="18"><path d="M1.4305E-05 540L960 540L960 540L960 0L960 0L1.4305E-05 0z" /></clipPath><clipPath id="19"><path d="M6.1035E-05 0L960 0L960 0L960 539.9998L960 539.9998L9.1553E-05 539.9998" /></clipPath><clipPath id="20"><path d="M37.56 262.56L76.56 262.56L76.56 262.56L76.56 234.72L76.56 234.72L37.56 234.72z" /></clipPath><clipPath id="21"><path d="M77.28 265.56L113.28 265.56L113.28 265.56L113.28 231.72L113.28 231.72L77.28 231.72z" /></clipPath><clipPath id="22"><path d="M239.16 265.32L277.32 265.32L277.32 265.32L277.32 234.6L277.32 234.6L239.16 234.6z" /></clipPath><clipPath id="23"><path d="M306.12 264L345.12 264L345.12 264L345.12 235.56L345.12 235.56L306.12 235.56z" /></clipPath><clipPath id="24"><path d="M114.84 264.12L150 264.12L150 264.12L150 232.56L150 232.56L114.84 232.56z" /></clipPath><clipPath id="25"><path d="M196.92 264L236.64 264L236.64 264L236.64 236.28L236.64 236.28L196.92 236.28z" /></clipPath><clipPath id="26"><path d="M6.1035E-05 0L960 0L960 0L960 539.9998L960 539.9998L0.00012207 539.9999" /></clipPath><clipPath id="27"><path d="M720.72 147L759.72 147L759.72 147L759.72 119.28L759.72 119.28L720.72 119.28z" /></clipPath><clipPath id="28"><path d="M552.72 149.28L588.72 149.28L588.72 149.28L588.72 115.56L588.72 115.56L552.72 115.56z" /></clipPath><clipPath id="29"><path d="M513 146.28L551.28 146.28L551.28 146.28L551.28 115.56L551.28 115.56L513 115.56z" /></clipPath><clipPath id="30"><path d="M828 149.28L867 149.28L867 149.28L867 120.72L867 120.72L828 120.72z" /></clipPath><clipPath id="31"><path d="M684.72 148.56L720 148.56L720 148.56L720 117L720 117L684.72 117z" /></clipPath><clipPath id="32"><path d="M867.72 149.28L907.56 149.28L907.56 149.28L907.56 121.56L907.56 121.56L867.72 121.56z" /></clipPath><clipPath id="33"><path d="M1.4305E-05 540L960 540L960 540L960 0L960 0L1.4305E-05 0z" /></clipPath><clipPath id="34"><path d="M1.4305E-05 540L960 540L960 540L960 0L960 0L1.4305E-05 0z" /></clipPath><clipPath id="35"><path d="M1.4305E-05 540L960 540L960 540L960 0L960 0L1.4305E-05 0z" /></clipPath><clipPath id="36"><path d="M1.4305E-05 540L960 540L960 540L960 0L960 0L1.4305E-05 0z" /></clipPath><clipPath id="37"><path d="M6.1035E-05 0L960 0L960 0L960 539.9998L960 539.9998L0.00012207 539.9998" /></clipPath><clipPath id="38"><path d="M512.28 270.72L551.28 270.72L551.28 270.72L551.28 243L551.28 243L512.28 243z" /></clipPath><clipPath id="39"><path d="M640.44 274.56L676.56 274.56L676.56 274.56L676.56 240.72L676.56 240.72L640.44 240.72z" /></clipPath><clipPath id="40"><path d="M600.72 272.28L639 272.28L639 272.28L639 241.56L639 241.56L600.72 241.56z" /></clipPath><clipPath id="41"><path d="M808.56 270.72L847.56 270.72L847.56 270.72L847.56 242.28L847.56 242.28L808.56 242.28z" /></clipPath><clipPath id="42"><path d="M552 273L587.28 273L587.28 273L587.28 241.56L587.28 241.56L552 241.56z" /></clipPath><clipPath id="43"><path d="M867.72 270L907.56 270L907.56 270L907.56 242.28L907.56 242.28L867.72 242.28z" /></clipPath><clipPath id="44"><path d="M1.4305E-05 540L960 540L960 540L960 0L960 0L1.4305E-05 0z" /></clipPath><clipPath id="45"><path d="M1.4305E-05 540L960 540L960 540L960 0L960 0L1.4305E-05 0z" /></clipPath><clipPath id="46"><path d="M1.4305E-05 540L960 540L960 540L960 0L960 0L1.4305E-05 0z" /></clipPath><clipPath id="47"><path d="M1.4305E-05 540L960 540L960 540L960 0L960 0L1.4305E-05 0z" /></clipPath><clipPath id="48"><path d="M1.4305E-05 540L960 540L960 540L960 0L960 0L1.4305E-05 0z" /></clipPath><clipPath id="49"><path d="M1.4305E-05 540L960 540L960 540L960 0L960 0L1.4305E-05 0z" /></clipPath><clipPath id="50"><path d="M1.4305E-05 540L960 540L960 540L960 0L960 0L1.4305E-05 0z" /></clipPath><clipPath id="51"><path d="M1.4305E-05 540L960 540L960 540L960 0L960 0L1.4305E-05 0z" /></clipPath><clipPath id="52"><path d="M1.4305E-05 540L960 540L960 540L960 0L960 0L1.4305E-05 0z" /></clipPath><clipPath id="53"><path d="M1.4305E-05 540L960 540L960 540L960 0L960 0L1.4305E-05 0z" /></clipPath><clipPath id="54"><path d="M538.44 497.28L939.36 497.28L939.36 497.28L939.36 350.52L939.36 350.52L538.44 350.52z" /></clipPath><clipPath id="55"><path d="M1.4305E-05 540L960 540L960 540L960 0L960 0L1.4305E-05 0z" /></clipPath><clipPath id="56"><path d="M1.4305E-05 540L960 540L960 540L960 0L960 0L1.4305E-05 0z" /></clipPath><clipPath id="57"><path d="M1.4305E-05 540L960 540L960 540L960 0L960 0L1.4305E-05 0z" /></clipPath><clipPath id="58"><path d="M1.4305E-05 540L960 540L960 540L960 0L960 0L1.4305E-05 0z" /></clipPath><clipPath id="59"><path d="M78 528.72L271.56 528.72L271.56 528.72L271.56 402.24L271.56 402.24L78 402.24z" /></clipPath><clipPath id="60"><path d="M1.4305E-05 540L960 540L960 540L960 0L960 0L1.4305E-05 0z" /></clipPath><clipPath id="61"><path d="M1.4305E-05 540L960 540L960 540L960 0L960 0L1.4305E-05 0z" /></clipPath><clipPath id="62"><path d="M1.4305E-05 540L960 540L960 540L960 0L960 0L1.4305E-05 0z" /></clipPath><clipPath id="63"><path d="M1.4305E-05 540L960 540L960 540L960 0L960 0L1.4305E-05 0z" /></clipPath><clipPath id="64"><path d="M1.4305E-05 540L960 540L960 540L960 0L960 0L1.4305E-05 0z" /></clipPath></defs><g transform="matrix(1.333333 0 0 1.333333 0 0)"><g><g clip-path="url(#1)"><g clip-path="url(#2)"><path transform="matrix(1 0 0 -1 0 540)" d="M0 6.1035E-05L960 6.1035E-05L960 6.1035E-05L960 540.0001L960 540.0001L0 540.0001z" stroke="none" fill="#FFFFFF" fill-rule="evenodd" /></g><g clip-path="url(#3)"></g><g clip-path="url(#4)"></g><g clip-path="url(#5)"></g><g clip-path="url(#6)"><path transform="matrix(1 0 0 -1 0 540)" d="M37.56 378.36L448.08 367.32L448.08 367.32L37.56 356.28z" stroke="none" fill="#BDD7EE" fill-rule="evenodd" /></g><g clip-path="url(#7)"><g transform="matrix(1.306667 0 0 1.315 42 120.72)"><g transform="matrix(1 0 0 1 0 0)"><image x="0" y="0" xlink:href="img_21.png" width="27" height="24" /></g></g></g><g clip-path="url(#8)"><g transform="matrix(1.3 0 0 1.298182 327 125.16)"><g transform="matrix(1 0 0 1 0 0)"><image x="0" y="0" xlink:href="img_22.png" width="30" height="22" /></g></g></g><g clip-path="url(#9)"><g transform="matrix(1.3 0 0 1.325714 187.68 125.16)"><g transform="matrix(1 0 0 1 0 0)"><image x="0" y="0" xlink:href="img_23.png" width="30" height="21" /></g></g></g><g clip-path="url(#10)"><g transform="matrix(1.324 0 0 1.32 144.12 125.28)"><g transform="matrix(1 0 0 1 0 0)"><image x="0" y="0" xlink:href="img_24.png" width="30" height="21" /></g></g></g><g clip-path="url(#11)"><g transform="matrix(1.337778 0 0 1.296923 88.44 120)"><g transform="matrix(1 0 0 1 0 0)"><image x="0" y="0" xlink:href="img_25.png" width="27" height="26" /></g></g></g><g clip-path="url(#12)"><g transform="matrix(1.32 0 0 1.34087 285 123.72)"><g transform="matrix(1 0 0 1 0 0)"><image x="0" y="0" xlink:href="img_26.png" width="29" height="23" /></g></g></g><g clip-path="url(#13)"></g><g clip-path="url(#14)"></g><g clip-path="url(#15)"></g><g clip-path="url(#16)"></g><g clip-path="url(#17)"></g><g clip-path="url(#18)"></g><g clip-path="url(#19)"><path transform="matrix(1 0 0 -1 0 540)" d="M36 266.64L446.64 255.54L446.64 255.54L36 244.44z" stroke="none" fill="#BDD7EE" fill-rule="evenodd" /></g><g clip-path="url(#20)"><g transform="matrix(1.3 0 0 1.325714 37.56 234.72)"><g transform="matrix(1 0 0 1 0 0)"><image x="0" y="0" xlink:href="img_23.png" width="30" height="21" /></g></g></g><g clip-path="url(#21)"><g transform="matrix(1.333333 0 0 1.301538 77.28 231.72)"><g transform="matrix(1 0 0 1 0 0)"><image x="0" y="0" xlink:href="img_25.png" width="27" height="26" /></g></g></g><g clip-path="url(#22)"><g transform="matrix(1.315862 0 0 1.335652 239.16 234.6)"><g transform="matrix(1 0 0 1 0 0)"><image x="0" y="0" xlink:href="img_26.png" width="29" height="23" /></g></g></g><g clip-path="url(#23)"><g transform="matrix(1.3 0 0 1.292727 306.12 235.56)"><g transform="matrix(1 0 0 1 0 0)"><image x="0" y="0" xlink:href="img_22.png" width="30" height="22" /></g></g></g><g clip-path="url(#24)"><g transform="matrix(1.302222 0 0 1.315 114.84 232.56)"><g transform="matrix(1 0 0 1 0 0)"><image x="0" y="0" xlink:href="img_21.png" width="27" height="24" /></g></g></g><g clip-path="url(#25)"><g transform="matrix(1.324 0 0 1.32 196.92 236.28)"><g transform="matrix(1 0 0 1 0 0)"><image x="0" y="0" xlink:href="img_24.png" width="30" height="21" /></g></g></g><g clip-path="url(#26)"><path transform="matrix(1 0 0 -1 0 540)" d="M511.56 382.92L922.08 371.82L922.08 371.82L511.56 360.72z" stroke="none" fill="#BDD7EE" fill-rule="evenodd" /></g><g clip-path="url(#27)"><g transform="matrix(1.3 0 0 1.32 720.72 119.28)"><g transform="matrix(1 0 0 1 0 0)"><image x="0" y="0" xlink:href="img_23.png" width="30" height="21" /></g></g></g><g clip-path="url(#28)"><g transform="matrix(1.333333 0 0 1.296923 552.72 115.56)"><g transform="matrix(1 0 0 1 0 0)"><image x="0" y="0" xlink:href="img_25.png" width="27" height="26" /></g></g></g><g clip-path="url(#29)"><g transform="matrix(1.32 0 0 1.335652 513 115.56)"><g transform="matrix(1 0 0 1 0 0)"><image x="0" y="0" xlink:href="img_26.png" width="29" height="23" /></g></g></g><g clip-path="url(#30)"><g transform="matrix(1.3 0 0 1.298182 828 120.72)"><g transform="matrix(1 0 0 1 0 0)"><image x="0" y="0" xlink:href="img_22.png" width="30" height="22" /></g></g></g><g clip-path="url(#31)"><g transform="matrix(1.306667 0 0 1.315 684.72 117)"><g transform="matrix(1 0 0 1 0 0)"><image x="0" y="0" xlink:href="img_21.png" width="27" height="24" /></g></g></g><g clip-path="url(#32)"><g transform="matrix(1.328 0 0 1.32 867.72 121.56)"><g transform="matrix(1 0 0 1 0 0)"><image x="0" y="0" xlink:href="img_24.png" width="30" height="21" /></g></g></g><g clip-path="url(#33)"></g><g clip-path="url(#34)"></g><g clip-path="url(#35)"></g><g clip-path="url(#36)"></g><g clip-path="url(#37)"><path transform="matrix(1 0 0 -1 0 540)" d="M511.56 262.08L922.08 251.04L922.08 251.04L511.56 240z" stroke="none" fill="#BDD7EE" fill-rule="evenodd" /></g><g clip-path="url(#38)"><g transform="matrix(1.3 0 0 1.32 512.28 243)"><g transform="matrix(1 0 0 1 0 0)"><image x="0" y="0" xlink:href="img_23.png" width="30" height="21" /></g></g></g><g clip-path="url(#39)"><g transform="matrix(1.337778 0 0 1.301538 640.44 240.72)"><g transform="matrix(1 0 0 1 0 0)"><image x="0" y="0" xlink:href="img_25.png" width="27" height="26" /></g></g></g><g clip-path="url(#40)"><g transform="matrix(1.32 0 0 1.335652 600.72 241.56)"><g transform="matrix(1 0 0 1 0 0)"><image x="0" y="0" xlink:href="img_26.png" width="29" height="23" /></g></g></g><g clip-path="url(#41)"><g transform="matrix(1.3 0 0 1.292727 808.56 242.28)"><g transform="matrix(1 0 0 1 0 0)"><image x="0" y="0" xlink:href="img_22.png" width="30" height="22" /></g></g></g><g clip-path="url(#42)"><g transform="matrix(1.306667 0 0 1.31 552 241.56)"><g transform="matrix(1 0 0 1 0 0)"><image x="0" y="0" xlink:href="img_21.png" width="27" height="24" /></g></g></g><g clip-path="url(#43)"><g transform="matrix(1.328 0 0 1.32 867.72 242.28)"><g transform="matrix(1 0 0 1 0 0)"><image x="0" y="0" xlink:href="img_24.png" width="30" height="21" /></g></g></g><g clip-path="url(#44)"></g><g clip-path="url(#45)"></g><g clip-path="url(#46)"></g><g clip-path="url(#47)"></g><path transform="matrix(1 0 0 -1 0 540)" d="M200.7 197.61L254.7 197.61L254.7 197.61L308.7 197.61L308.7 197.61L308.7 196.77L308.7 196.77L254.7 196.77L254.7 196.77L200.7 196.77z" stroke="none" fill="#000000" fill-rule="evenodd" /><g clip-path="url(#48)"></g><g clip-path="url(#49)"></g><g clip-path="url(#50)"></g><g clip-path="url(#51)"></g><g clip-path="url(#52)"></g><path transform="matrix(1 0 0 -1 0 540)" d="M235.95 157.02L307.95 157.02L307.95 157.02L307.95 157.86L307.95 157.86L235.95 157.86z" stroke="none" fill="#000000" fill-rule="evenodd" /><g clip-path="url(#53)"></g><g clip-path="url(#54)"><g transform="matrix(0.5454694 0 0 0.5455762 538.44 350.52)"><g transform="matrix(1 0 0 1 0 0)"><image x="0" y="0" xlink:href="img_28.png" width="735" height="269" /></g></g></g><g clip-path="url(#55)"></g><g clip-path="url(#56)"></g><path transform="matrix(1 0 0 -1 0 540)" d="M761.7 191.52L833.7 191.52L833.7 191.52L833.7 192.36L833.7 192.36L761.7 192.36z" stroke="none" fill="#000000" fill-rule="evenodd" /><g clip-path="url(#57)"></g><path transform="matrix(1 0 0 -1 0 540)" d="M664.2 26.91L691.2 26.91L691.2 26.91L718.2 26.91L718.2 26.91L745.2 26.91L745.2 26.91L772.2 26.91L772.2 26.91L772.2 26.07L772.2 26.07L745.2 26.07L745.2 26.07L718.2 26.07L718.2 26.07L691.2 26.07L691.2 26.07L664.2 26.07z" stroke="none" fill="#000000" fill-rule="evenodd" /><g clip-path="url(#58)"></g><path transform="matrix(1 0 0 -1 0 540)" d="M588 161.28L644.25 161.28" stroke="#FF0000" stroke-width="0.48" fill="none" /><path transform="matrix(1 0 0 -1 0 540)" d="M729 111.72L785.25 111.72" stroke="#FF0000" stroke-width="0.48" fill="none" /><path transform="matrix(1 0 0 -1 0 540)" d="M852.72 127.44L908.97 127.44" stroke="#FF0000" stroke-width="0.48" fill="none" /><path transform="matrix(1 0 0 -1 0 540)" d="M774 78L830.25 78" stroke="#FF0000" stroke-width="0.48" fill="none" /><path transform="matrix(1 0 0 -1 0 540)" d="M894.72 61.44L929.97 61.44" stroke="#FF0000" stroke-width="0.48" fill="none" /><path transform="matrix(1 0 0 -1 0 540)" d="M546 44.28L560.25 44.28" stroke="#FF0000" stroke-width="0.48" fill="none" /><g clip-path="url(#59)"><g transform="matrix(0.3679848 0 0 0.3676744 78 402.24)"><g transform="matrix(1 0 0 1 0 0)"><image x="0" y="0" xlink:href="img_29.png" width="526" height="344" /></g></g></g><g clip-path="url(#60)"></g><g clip-path="url(#61)"></g><g clip-path="url(#62)"></g><g clip-path="url(#63)"></g><g clip-path="url(#64)"></g></g></g></g></svg>